<?xml version="1.0" encoding="utf-8" standalone="no"?>
<!DOCTYPE svg PUBLIC "-//W3C//DTD SVG 1.1//EN"
  "http://www.w3.org/Graphics/SVG/1.1/DTD/svg11.dtd">
<!-- Created with matplotlib (https://matplotlib.org/) -->
<svg height="288pt" version="1.1" viewBox="0 0 432 288" width="432pt" xmlns="http://www.w3.org/2000/svg" xmlns:xlink="http://www.w3.org/1999/xlink">
 <metadata>
  <rdf:RDF xmlns:cc="http://creativecommons.org/ns#" xmlns:dc="http://purl.org/dc/elements/1.1/" xmlns:rdf="http://www.w3.org/1999/02/22-rdf-syntax-ns#">
   <cc:Work>
    <dc:type rdf:resource="http://purl.org/dc/dcmitype/StillImage"/>
    <dc:date>2020-10-18T18:38:30.886399</dc:date>
    <dc:format>image/svg+xml</dc:format>
    <dc:creator>
     <cc:Agent>
      <dc:title>Matplotlib v3.3.2, https://matplotlib.org/</dc:title>
     </cc:Agent>
    </dc:creator>
   </cc:Work>
  </rdf:RDF>
 </metadata>
 <defs>
  <style type="text/css">*{stroke-linecap:butt;stroke-linejoin:round;}</style>
 </defs>
 <g id="figure_1">
  <g id="patch_1">
   <path d="M 0 288 
L 432 288 
L 432 0 
L 0 0 
z
" style="fill:#ffffff;"/>
  </g>
  <g id="axes_1">
   <g id="patch_2">
    <path d="M 54 252 
L 388.8 252 
L 388.8 34.56 
L 54 34.56 
z
" style="fill:#ffffff;"/>
   </g>
   <g id="matplotlib.axis_1">
    <g id="xtick_1">
     <g id="line2d_1">
      <defs>
       <path d="M 0 0 
L 0 3.5 
" id="m148697bc10" style="stroke:#000000;stroke-width:0.8;"/>
      </defs>
      <g>
       <use style="stroke:#000000;stroke-width:0.8;" x="54" xlink:href="#m148697bc10" y="252"/>
      </g>
     </g>
     <g id="text_1">
      <!-- 0.0 -->
      <g transform="translate(46.048437 266.598437)scale(0.1 -0.1)">
       <defs>
        <path d="M 31.78125 66.40625 
Q 24.171875 66.40625 20.328125 58.90625 
Q 16.5 51.421875 16.5 36.375 
Q 16.5 21.390625 20.328125 13.890625 
Q 24.171875 6.390625 31.78125 6.390625 
Q 39.453125 6.390625 43.28125 13.890625 
Q 47.125 21.390625 47.125 36.375 
Q 47.125 51.421875 43.28125 58.90625 
Q 39.453125 66.40625 31.78125 66.40625 
z
M 31.78125 74.21875 
Q 44.046875 74.21875 50.515625 64.515625 
Q 56.984375 54.828125 56.984375 36.375 
Q 56.984375 17.96875 50.515625 8.265625 
Q 44.046875 -1.421875 31.78125 -1.421875 
Q 19.53125 -1.421875 13.0625 8.265625 
Q 6.59375 17.96875 6.59375 36.375 
Q 6.59375 54.828125 13.0625 64.515625 
Q 19.53125 74.21875 31.78125 74.21875 
z
" id="DejaVuSans-48"/>
        <path d="M 10.6875 12.40625 
L 21 12.40625 
L 21 0 
L 10.6875 0 
z
" id="DejaVuSans-46"/>
       </defs>
       <use xlink:href="#DejaVuSans-48"/>
       <use x="63.623047" xlink:href="#DejaVuSans-46"/>
       <use x="95.410156" xlink:href="#DejaVuSans-48"/>
      </g>
     </g>
    </g>
    <g id="xtick_2">
     <g id="line2d_2">
      <g>
       <use style="stroke:#000000;stroke-width:0.8;" x="95.85" xlink:href="#m148697bc10" y="252"/>
      </g>
     </g>
     <g id="text_2">
      <!-- 0.5 -->
      <g transform="translate(87.898438 266.598437)scale(0.1 -0.1)">
       <defs>
        <path d="M 10.796875 72.90625 
L 49.515625 72.90625 
L 49.515625 64.59375 
L 19.828125 64.59375 
L 19.828125 46.734375 
Q 21.96875 47.46875 24.109375 47.828125 
Q 26.265625 48.1875 28.421875 48.1875 
Q 40.625 48.1875 47.75 41.5 
Q 54.890625 34.8125 54.890625 23.390625 
Q 54.890625 11.625 47.5625 5.09375 
Q 40.234375 -1.421875 26.90625 -1.421875 
Q 22.3125 -1.421875 17.546875 -0.640625 
Q 12.796875 0.140625 7.71875 1.703125 
L 7.71875 11.625 
Q 12.109375 9.234375 16.796875 8.0625 
Q 21.484375 6.890625 26.703125 6.890625 
Q 35.15625 6.890625 40.078125 11.328125 
Q 45.015625 15.765625 45.015625 23.390625 
Q 45.015625 31 40.078125 35.4375 
Q 35.15625 39.890625 26.703125 39.890625 
Q 22.75 39.890625 18.8125 39.015625 
Q 14.890625 38.140625 10.796875 36.28125 
z
" id="DejaVuSans-53"/>
       </defs>
       <use xlink:href="#DejaVuSans-48"/>
       <use x="63.623047" xlink:href="#DejaVuSans-46"/>
       <use x="95.410156" xlink:href="#DejaVuSans-53"/>
      </g>
     </g>
    </g>
    <g id="xtick_3">
     <g id="line2d_3">
      <g>
       <use style="stroke:#000000;stroke-width:0.8;" x="137.7" xlink:href="#m148697bc10" y="252"/>
      </g>
     </g>
     <g id="text_3">
      <!-- 1.0 -->
      <g transform="translate(129.748437 266.598437)scale(0.1 -0.1)">
       <defs>
        <path d="M 12.40625 8.296875 
L 28.515625 8.296875 
L 28.515625 63.921875 
L 10.984375 60.40625 
L 10.984375 69.390625 
L 28.421875 72.90625 
L 38.28125 72.90625 
L 38.28125 8.296875 
L 54.390625 8.296875 
L 54.390625 0 
L 12.40625 0 
z
" id="DejaVuSans-49"/>
       </defs>
       <use xlink:href="#DejaVuSans-49"/>
       <use x="63.623047" xlink:href="#DejaVuSans-46"/>
       <use x="95.410156" xlink:href="#DejaVuSans-48"/>
      </g>
     </g>
    </g>
    <g id="xtick_4">
     <g id="line2d_4">
      <g>
       <use style="stroke:#000000;stroke-width:0.8;" x="179.55" xlink:href="#m148697bc10" y="252"/>
      </g>
     </g>
     <g id="text_4">
      <!-- 1.5 -->
      <g transform="translate(171.598438 266.598437)scale(0.1 -0.1)">
       <use xlink:href="#DejaVuSans-49"/>
       <use x="63.623047" xlink:href="#DejaVuSans-46"/>
       <use x="95.410156" xlink:href="#DejaVuSans-53"/>
      </g>
     </g>
    </g>
    <g id="xtick_5">
     <g id="line2d_5">
      <g>
       <use style="stroke:#000000;stroke-width:0.8;" x="221.4" xlink:href="#m148697bc10" y="252"/>
      </g>
     </g>
     <g id="text_5">
      <!-- 2.0 -->
      <g transform="translate(213.448438 266.598437)scale(0.1 -0.1)">
       <defs>
        <path d="M 19.1875 8.296875 
L 53.609375 8.296875 
L 53.609375 0 
L 7.328125 0 
L 7.328125 8.296875 
Q 12.9375 14.109375 22.625 23.890625 
Q 32.328125 33.6875 34.8125 36.53125 
Q 39.546875 41.84375 41.421875 45.53125 
Q 43.3125 49.21875 43.3125 52.78125 
Q 43.3125 58.59375 39.234375 62.25 
Q 35.15625 65.921875 28.609375 65.921875 
Q 23.96875 65.921875 18.8125 64.3125 
Q 13.671875 62.703125 7.8125 59.421875 
L 7.8125 69.390625 
Q 13.765625 71.78125 18.9375 73 
Q 24.125 74.21875 28.421875 74.21875 
Q 39.75 74.21875 46.484375 68.546875 
Q 53.21875 62.890625 53.21875 53.421875 
Q 53.21875 48.921875 51.53125 44.890625 
Q 49.859375 40.875 45.40625 35.40625 
Q 44.1875 33.984375 37.640625 27.21875 
Q 31.109375 20.453125 19.1875 8.296875 
z
" id="DejaVuSans-50"/>
       </defs>
       <use xlink:href="#DejaVuSans-50"/>
       <use x="63.623047" xlink:href="#DejaVuSans-46"/>
       <use x="95.410156" xlink:href="#DejaVuSans-48"/>
      </g>
     </g>
    </g>
    <g id="xtick_6">
     <g id="line2d_6">
      <g>
       <use style="stroke:#000000;stroke-width:0.8;" x="263.25" xlink:href="#m148697bc10" y="252"/>
      </g>
     </g>
     <g id="text_6">
      <!-- 2.5 -->
      <g transform="translate(255.298438 266.598437)scale(0.1 -0.1)">
       <use xlink:href="#DejaVuSans-50"/>
       <use x="63.623047" xlink:href="#DejaVuSans-46"/>
       <use x="95.410156" xlink:href="#DejaVuSans-53"/>
      </g>
     </g>
    </g>
    <g id="xtick_7">
     <g id="line2d_7">
      <g>
       <use style="stroke:#000000;stroke-width:0.8;" x="305.1" xlink:href="#m148697bc10" y="252"/>
      </g>
     </g>
     <g id="text_7">
      <!-- 3.0 -->
      <g transform="translate(297.148438 266.598437)scale(0.1 -0.1)">
       <defs>
        <path d="M 40.578125 39.3125 
Q 47.65625 37.796875 51.625 33 
Q 55.609375 28.21875 55.609375 21.1875 
Q 55.609375 10.40625 48.1875 4.484375 
Q 40.765625 -1.421875 27.09375 -1.421875 
Q 22.515625 -1.421875 17.65625 -0.515625 
Q 12.796875 0.390625 7.625 2.203125 
L 7.625 11.71875 
Q 11.71875 9.328125 16.59375 8.109375 
Q 21.484375 6.890625 26.8125 6.890625 
Q 36.078125 6.890625 40.9375 10.546875 
Q 45.796875 14.203125 45.796875 21.1875 
Q 45.796875 27.640625 41.28125 31.265625 
Q 36.765625 34.90625 28.71875 34.90625 
L 20.21875 34.90625 
L 20.21875 43.015625 
L 29.109375 43.015625 
Q 36.375 43.015625 40.234375 45.921875 
Q 44.09375 48.828125 44.09375 54.296875 
Q 44.09375 59.90625 40.109375 62.90625 
Q 36.140625 65.921875 28.71875 65.921875 
Q 24.65625 65.921875 20.015625 65.03125 
Q 15.375 64.15625 9.8125 62.3125 
L 9.8125 71.09375 
Q 15.4375 72.65625 20.34375 73.4375 
Q 25.25 74.21875 29.59375 74.21875 
Q 40.828125 74.21875 47.359375 69.109375 
Q 53.90625 64.015625 53.90625 55.328125 
Q 53.90625 49.265625 50.4375 45.09375 
Q 46.96875 40.921875 40.578125 39.3125 
z
" id="DejaVuSans-51"/>
       </defs>
       <use xlink:href="#DejaVuSans-51"/>
       <use x="63.623047" xlink:href="#DejaVuSans-46"/>
       <use x="95.410156" xlink:href="#DejaVuSans-48"/>
      </g>
     </g>
    </g>
    <g id="xtick_8">
     <g id="line2d_8">
      <g>
       <use style="stroke:#000000;stroke-width:0.8;" x="346.95" xlink:href="#m148697bc10" y="252"/>
      </g>
     </g>
     <g id="text_8">
      <!-- 3.5 -->
      <g transform="translate(338.998437 266.598437)scale(0.1 -0.1)">
       <use xlink:href="#DejaVuSans-51"/>
       <use x="63.623047" xlink:href="#DejaVuSans-46"/>
       <use x="95.410156" xlink:href="#DejaVuSans-53"/>
      </g>
     </g>
    </g>
    <g id="xtick_9">
     <g id="line2d_9">
      <g>
       <use style="stroke:#000000;stroke-width:0.8;" x="388.8" xlink:href="#m148697bc10" y="252"/>
      </g>
     </g>
     <g id="text_9">
      <!-- 4.0 -->
      <g transform="translate(380.848437 266.598437)scale(0.1 -0.1)">
       <defs>
        <path d="M 37.796875 64.3125 
L 12.890625 25.390625 
L 37.796875 25.390625 
z
M 35.203125 72.90625 
L 47.609375 72.90625 
L 47.609375 25.390625 
L 58.015625 25.390625 
L 58.015625 17.1875 
L 47.609375 17.1875 
L 47.609375 0 
L 37.796875 0 
L 37.796875 17.1875 
L 4.890625 17.1875 
L 4.890625 26.703125 
z
" id="DejaVuSans-52"/>
       </defs>
       <use xlink:href="#DejaVuSans-52"/>
       <use x="63.623047" xlink:href="#DejaVuSans-46"/>
       <use x="95.410156" xlink:href="#DejaVuSans-48"/>
      </g>
     </g>
    </g>
    <g id="text_10">
     <!-- l2distance -->
     <g transform="translate(195.642969 280.276563)scale(0.1 -0.1)">
      <defs>
       <path d="M 9.421875 75.984375 
L 18.40625 75.984375 
L 18.40625 0 
L 9.421875 0 
z
" id="DejaVuSans-108"/>
       <path d="M 45.40625 46.390625 
L 45.40625 75.984375 
L 54.390625 75.984375 
L 54.390625 0 
L 45.40625 0 
L 45.40625 8.203125 
Q 42.578125 3.328125 38.25 0.953125 
Q 33.9375 -1.421875 27.875 -1.421875 
Q 17.96875 -1.421875 11.734375 6.484375 
Q 5.515625 14.40625 5.515625 27.296875 
Q 5.515625 40.1875 11.734375 48.09375 
Q 17.96875 56 27.875 56 
Q 33.9375 56 38.25 53.625 
Q 42.578125 51.265625 45.40625 46.390625 
z
M 14.796875 27.296875 
Q 14.796875 17.390625 18.875 11.75 
Q 22.953125 6.109375 30.078125 6.109375 
Q 37.203125 6.109375 41.296875 11.75 
Q 45.40625 17.390625 45.40625 27.296875 
Q 45.40625 37.203125 41.296875 42.84375 
Q 37.203125 48.484375 30.078125 48.484375 
Q 22.953125 48.484375 18.875 42.84375 
Q 14.796875 37.203125 14.796875 27.296875 
z
" id="DejaVuSans-100"/>
       <path d="M 9.421875 54.6875 
L 18.40625 54.6875 
L 18.40625 0 
L 9.421875 0 
z
M 9.421875 75.984375 
L 18.40625 75.984375 
L 18.40625 64.59375 
L 9.421875 64.59375 
z
" id="DejaVuSans-105"/>
       <path d="M 44.28125 53.078125 
L 44.28125 44.578125 
Q 40.484375 46.53125 36.375 47.5 
Q 32.28125 48.484375 27.875 48.484375 
Q 21.1875 48.484375 17.84375 46.4375 
Q 14.5 44.390625 14.5 40.28125 
Q 14.5 37.15625 16.890625 35.375 
Q 19.28125 33.59375 26.515625 31.984375 
L 29.59375 31.296875 
Q 39.15625 29.25 43.1875 25.515625 
Q 47.21875 21.78125 47.21875 15.09375 
Q 47.21875 7.46875 41.1875 3.015625 
Q 35.15625 -1.421875 24.609375 -1.421875 
Q 20.21875 -1.421875 15.453125 -0.5625 
Q 10.6875 0.296875 5.421875 2 
L 5.421875 11.28125 
Q 10.40625 8.6875 15.234375 7.390625 
Q 20.0625 6.109375 24.8125 6.109375 
Q 31.15625 6.109375 34.5625 8.28125 
Q 37.984375 10.453125 37.984375 14.40625 
Q 37.984375 18.0625 35.515625 20.015625 
Q 33.0625 21.96875 24.703125 23.78125 
L 21.578125 24.515625 
Q 13.234375 26.265625 9.515625 29.90625 
Q 5.8125 33.546875 5.8125 39.890625 
Q 5.8125 47.609375 11.28125 51.796875 
Q 16.75 56 26.8125 56 
Q 31.78125 56 36.171875 55.265625 
Q 40.578125 54.546875 44.28125 53.078125 
z
" id="DejaVuSans-115"/>
       <path d="M 18.3125 70.21875 
L 18.3125 54.6875 
L 36.8125 54.6875 
L 36.8125 47.703125 
L 18.3125 47.703125 
L 18.3125 18.015625 
Q 18.3125 11.328125 20.140625 9.421875 
Q 21.96875 7.515625 27.59375 7.515625 
L 36.8125 7.515625 
L 36.8125 0 
L 27.59375 0 
Q 17.1875 0 13.234375 3.875 
Q 9.28125 7.765625 9.28125 18.015625 
L 9.28125 47.703125 
L 2.6875 47.703125 
L 2.6875 54.6875 
L 9.28125 54.6875 
L 9.28125 70.21875 
z
" id="DejaVuSans-116"/>
       <path d="M 34.28125 27.484375 
Q 23.390625 27.484375 19.1875 25 
Q 14.984375 22.515625 14.984375 16.5 
Q 14.984375 11.71875 18.140625 8.90625 
Q 21.296875 6.109375 26.703125 6.109375 
Q 34.1875 6.109375 38.703125 11.40625 
Q 43.21875 16.703125 43.21875 25.484375 
L 43.21875 27.484375 
z
M 52.203125 31.203125 
L 52.203125 0 
L 43.21875 0 
L 43.21875 8.296875 
Q 40.140625 3.328125 35.546875 0.953125 
Q 30.953125 -1.421875 24.3125 -1.421875 
Q 15.921875 -1.421875 10.953125 3.296875 
Q 6 8.015625 6 15.921875 
Q 6 25.140625 12.171875 29.828125 
Q 18.359375 34.515625 30.609375 34.515625 
L 43.21875 34.515625 
L 43.21875 35.40625 
Q 43.21875 41.609375 39.140625 45 
Q 35.0625 48.390625 27.6875 48.390625 
Q 23 48.390625 18.546875 47.265625 
Q 14.109375 46.140625 10.015625 43.890625 
L 10.015625 52.203125 
Q 14.9375 54.109375 19.578125 55.046875 
Q 24.21875 56 28.609375 56 
Q 40.484375 56 46.34375 49.84375 
Q 52.203125 43.703125 52.203125 31.203125 
z
" id="DejaVuSans-97"/>
       <path d="M 54.890625 33.015625 
L 54.890625 0 
L 45.90625 0 
L 45.90625 32.71875 
Q 45.90625 40.484375 42.875 44.328125 
Q 39.84375 48.1875 33.796875 48.1875 
Q 26.515625 48.1875 22.3125 43.546875 
Q 18.109375 38.921875 18.109375 30.90625 
L 18.109375 0 
L 9.078125 0 
L 9.078125 54.6875 
L 18.109375 54.6875 
L 18.109375 46.1875 
Q 21.34375 51.125 25.703125 53.5625 
Q 30.078125 56 35.796875 56 
Q 45.21875 56 50.046875 50.171875 
Q 54.890625 44.34375 54.890625 33.015625 
z
" id="DejaVuSans-110"/>
       <path d="M 48.78125 52.59375 
L 48.78125 44.1875 
Q 44.96875 46.296875 41.140625 47.34375 
Q 37.3125 48.390625 33.40625 48.390625 
Q 24.65625 48.390625 19.8125 42.84375 
Q 14.984375 37.3125 14.984375 27.296875 
Q 14.984375 17.28125 19.8125 11.734375 
Q 24.65625 6.203125 33.40625 6.203125 
Q 37.3125 6.203125 41.140625 7.25 
Q 44.96875 8.296875 48.78125 10.40625 
L 48.78125 2.09375 
Q 45.015625 0.34375 40.984375 -0.53125 
Q 36.96875 -1.421875 32.421875 -1.421875 
Q 20.0625 -1.421875 12.78125 6.34375 
Q 5.515625 14.109375 5.515625 27.296875 
Q 5.515625 40.671875 12.859375 48.328125 
Q 20.21875 56 33.015625 56 
Q 37.15625 56 41.109375 55.140625 
Q 45.0625 54.296875 48.78125 52.59375 
z
" id="DejaVuSans-99"/>
       <path d="M 56.203125 29.59375 
L 56.203125 25.203125 
L 14.890625 25.203125 
Q 15.484375 15.921875 20.484375 11.0625 
Q 25.484375 6.203125 34.421875 6.203125 
Q 39.59375 6.203125 44.453125 7.46875 
Q 49.3125 8.734375 54.109375 11.28125 
L 54.109375 2.78125 
Q 49.265625 0.734375 44.1875 -0.34375 
Q 39.109375 -1.421875 33.890625 -1.421875 
Q 20.796875 -1.421875 13.15625 6.1875 
Q 5.515625 13.8125 5.515625 26.8125 
Q 5.515625 40.234375 12.765625 48.109375 
Q 20.015625 56 32.328125 56 
Q 43.359375 56 49.78125 48.890625 
Q 56.203125 41.796875 56.203125 29.59375 
z
M 47.21875 32.234375 
Q 47.125 39.59375 43.09375 43.984375 
Q 39.0625 48.390625 32.421875 48.390625 
Q 24.90625 48.390625 20.390625 44.140625 
Q 15.875 39.890625 15.1875 32.171875 
z
" id="DejaVuSans-101"/>
      </defs>
      <use xlink:href="#DejaVuSans-108"/>
      <use x="27.783203" xlink:href="#DejaVuSans-50"/>
      <use x="91.40625" xlink:href="#DejaVuSans-100"/>
      <use x="154.882812" xlink:href="#DejaVuSans-105"/>
      <use x="182.666016" xlink:href="#DejaVuSans-115"/>
      <use x="234.765625" xlink:href="#DejaVuSans-116"/>
      <use x="273.974609" xlink:href="#DejaVuSans-97"/>
      <use x="335.253906" xlink:href="#DejaVuSans-110"/>
      <use x="398.632812" xlink:href="#DejaVuSans-99"/>
      <use x="453.613281" xlink:href="#DejaVuSans-101"/>
     </g>
    </g>
   </g>
   <g id="matplotlib.axis_2">
    <g id="ytick_1">
     <g id="line2d_10">
      <defs>
       <path d="M 0 0 
L -3.5 0 
" id="m613d748b4a" style="stroke:#000000;stroke-width:0.8;"/>
      </defs>
      <g>
       <use style="stroke:#000000;stroke-width:0.8;" x="54" xlink:href="#m613d748b4a" y="252"/>
      </g>
     </g>
     <g id="text_11">
      <!-- 0.0 -->
      <g transform="translate(31.096875 255.799219)scale(0.1 -0.1)">
       <use xlink:href="#DejaVuSans-48"/>
       <use x="63.623047" xlink:href="#DejaVuSans-46"/>
       <use x="95.410156" xlink:href="#DejaVuSans-48"/>
      </g>
     </g>
    </g>
    <g id="ytick_2">
     <g id="line2d_11">
      <g>
       <use style="stroke:#000000;stroke-width:0.8;" x="54" xlink:href="#m613d748b4a" y="208.512"/>
      </g>
     </g>
     <g id="text_12">
      <!-- 0.2 -->
      <g transform="translate(31.096875 212.311219)scale(0.1 -0.1)">
       <use xlink:href="#DejaVuSans-48"/>
       <use x="63.623047" xlink:href="#DejaVuSans-46"/>
       <use x="95.410156" xlink:href="#DejaVuSans-50"/>
      </g>
     </g>
    </g>
    <g id="ytick_3">
     <g id="line2d_12">
      <g>
       <use style="stroke:#000000;stroke-width:0.8;" x="54" xlink:href="#m613d748b4a" y="165.024"/>
      </g>
     </g>
     <g id="text_13">
      <!-- 0.4 -->
      <g transform="translate(31.096875 168.823219)scale(0.1 -0.1)">
       <use xlink:href="#DejaVuSans-48"/>
       <use x="63.623047" xlink:href="#DejaVuSans-46"/>
       <use x="95.410156" xlink:href="#DejaVuSans-52"/>
      </g>
     </g>
    </g>
    <g id="ytick_4">
     <g id="line2d_13">
      <g>
       <use style="stroke:#000000;stroke-width:0.8;" x="54" xlink:href="#m613d748b4a" y="121.536"/>
      </g>
     </g>
     <g id="text_14">
      <!-- 0.6 -->
      <g transform="translate(31.096875 125.335219)scale(0.1 -0.1)">
       <defs>
        <path d="M 33.015625 40.375 
Q 26.375 40.375 22.484375 35.828125 
Q 18.609375 31.296875 18.609375 23.390625 
Q 18.609375 15.53125 22.484375 10.953125 
Q 26.375 6.390625 33.015625 6.390625 
Q 39.65625 6.390625 43.53125 10.953125 
Q 47.40625 15.53125 47.40625 23.390625 
Q 47.40625 31.296875 43.53125 35.828125 
Q 39.65625 40.375 33.015625 40.375 
z
M 52.59375 71.296875 
L 52.59375 62.3125 
Q 48.875 64.0625 45.09375 64.984375 
Q 41.3125 65.921875 37.59375 65.921875 
Q 27.828125 65.921875 22.671875 59.328125 
Q 17.53125 52.734375 16.796875 39.40625 
Q 19.671875 43.65625 24.015625 45.921875 
Q 28.375 48.1875 33.59375 48.1875 
Q 44.578125 48.1875 50.953125 41.515625 
Q 57.328125 34.859375 57.328125 23.390625 
Q 57.328125 12.15625 50.6875 5.359375 
Q 44.046875 -1.421875 33.015625 -1.421875 
Q 20.359375 -1.421875 13.671875 8.265625 
Q 6.984375 17.96875 6.984375 36.375 
Q 6.984375 53.65625 15.1875 63.9375 
Q 23.390625 74.21875 37.203125 74.21875 
Q 40.921875 74.21875 44.703125 73.484375 
Q 48.484375 72.75 52.59375 71.296875 
z
" id="DejaVuSans-54"/>
       </defs>
       <use xlink:href="#DejaVuSans-48"/>
       <use x="63.623047" xlink:href="#DejaVuSans-46"/>
       <use x="95.410156" xlink:href="#DejaVuSans-54"/>
      </g>
     </g>
    </g>
    <g id="ytick_5">
     <g id="line2d_14">
      <g>
       <use style="stroke:#000000;stroke-width:0.8;" x="54" xlink:href="#m613d748b4a" y="78.048"/>
      </g>
     </g>
     <g id="text_15">
      <!-- 0.8 -->
      <g transform="translate(31.096875 81.847219)scale(0.1 -0.1)">
       <defs>
        <path d="M 31.78125 34.625 
Q 24.75 34.625 20.71875 30.859375 
Q 16.703125 27.09375 16.703125 20.515625 
Q 16.703125 13.921875 20.71875 10.15625 
Q 24.75 6.390625 31.78125 6.390625 
Q 38.8125 6.390625 42.859375 10.171875 
Q 46.921875 13.96875 46.921875 20.515625 
Q 46.921875 27.09375 42.890625 30.859375 
Q 38.875 34.625 31.78125 34.625 
z
M 21.921875 38.8125 
Q 15.578125 40.375 12.03125 44.71875 
Q 8.5 49.078125 8.5 55.328125 
Q 8.5 64.0625 14.71875 69.140625 
Q 20.953125 74.21875 31.78125 74.21875 
Q 42.671875 74.21875 48.875 69.140625 
Q 55.078125 64.0625 55.078125 55.328125 
Q 55.078125 49.078125 51.53125 44.71875 
Q 48 40.375 41.703125 38.8125 
Q 48.828125 37.15625 52.796875 32.3125 
Q 56.78125 27.484375 56.78125 20.515625 
Q 56.78125 9.90625 50.3125 4.234375 
Q 43.84375 -1.421875 31.78125 -1.421875 
Q 19.734375 -1.421875 13.25 4.234375 
Q 6.78125 9.90625 6.78125 20.515625 
Q 6.78125 27.484375 10.78125 32.3125 
Q 14.796875 37.15625 21.921875 38.8125 
z
M 18.3125 54.390625 
Q 18.3125 48.734375 21.84375 45.5625 
Q 25.390625 42.390625 31.78125 42.390625 
Q 38.140625 42.390625 41.71875 45.5625 
Q 45.3125 48.734375 45.3125 54.390625 
Q 45.3125 60.0625 41.71875 63.234375 
Q 38.140625 66.40625 31.78125 66.40625 
Q 25.390625 66.40625 21.84375 63.234375 
Q 18.3125 60.0625 18.3125 54.390625 
z
" id="DejaVuSans-56"/>
       </defs>
       <use xlink:href="#DejaVuSans-48"/>
       <use x="63.623047" xlink:href="#DejaVuSans-46"/>
       <use x="95.410156" xlink:href="#DejaVuSans-56"/>
      </g>
     </g>
    </g>
    <g id="ytick_6">
     <g id="line2d_15">
      <g>
       <use style="stroke:#000000;stroke-width:0.8;" x="54" xlink:href="#m613d748b4a" y="34.56"/>
      </g>
     </g>
     <g id="text_16">
      <!-- 1.0 -->
      <g transform="translate(31.096875 38.359219)scale(0.1 -0.1)">
       <use xlink:href="#DejaVuSans-49"/>
       <use x="63.623047" xlink:href="#DejaVuSans-46"/>
       <use x="95.410156" xlink:href="#DejaVuSans-48"/>
      </g>
     </g>
    </g>
    <g id="text_17">
     <!-- Accuracy -->
     <g transform="translate(25.017187 166.108125)rotate(-90)scale(0.1 -0.1)">
      <defs>
       <path d="M 34.1875 63.1875 
L 20.796875 26.90625 
L 47.609375 26.90625 
z
M 28.609375 72.90625 
L 39.796875 72.90625 
L 67.578125 0 
L 57.328125 0 
L 50.6875 18.703125 
L 17.828125 18.703125 
L 11.1875 0 
L 0.78125 0 
z
" id="DejaVuSans-65"/>
       <path d="M 8.5 21.578125 
L 8.5 54.6875 
L 17.484375 54.6875 
L 17.484375 21.921875 
Q 17.484375 14.15625 20.5 10.265625 
Q 23.53125 6.390625 29.59375 6.390625 
Q 36.859375 6.390625 41.078125 11.03125 
Q 45.3125 15.671875 45.3125 23.6875 
L 45.3125 54.6875 
L 54.296875 54.6875 
L 54.296875 0 
L 45.3125 0 
L 45.3125 8.40625 
Q 42.046875 3.421875 37.71875 1 
Q 33.40625 -1.421875 27.6875 -1.421875 
Q 18.265625 -1.421875 13.375 4.4375 
Q 8.5 10.296875 8.5 21.578125 
z
M 31.109375 56 
z
" id="DejaVuSans-117"/>
       <path d="M 41.109375 46.296875 
Q 39.59375 47.171875 37.8125 47.578125 
Q 36.03125 48 33.890625 48 
Q 26.265625 48 22.1875 43.046875 
Q 18.109375 38.09375 18.109375 28.8125 
L 18.109375 0 
L 9.078125 0 
L 9.078125 54.6875 
L 18.109375 54.6875 
L 18.109375 46.1875 
Q 20.953125 51.171875 25.484375 53.578125 
Q 30.03125 56 36.53125 56 
Q 37.453125 56 38.578125 55.875 
Q 39.703125 55.765625 41.0625 55.515625 
z
" id="DejaVuSans-114"/>
       <path d="M 32.171875 -5.078125 
Q 28.375 -14.84375 24.75 -17.8125 
Q 21.140625 -20.796875 15.09375 -20.796875 
L 7.90625 -20.796875 
L 7.90625 -13.28125 
L 13.1875 -13.28125 
Q 16.890625 -13.28125 18.9375 -11.515625 
Q 21 -9.765625 23.484375 -3.21875 
L 25.09375 0.875 
L 2.984375 54.6875 
L 12.5 54.6875 
L 29.59375 11.921875 
L 46.6875 54.6875 
L 56.203125 54.6875 
z
" id="DejaVuSans-121"/>
      </defs>
      <use xlink:href="#DejaVuSans-65"/>
      <use x="66.658203" xlink:href="#DejaVuSans-99"/>
      <use x="121.638672" xlink:href="#DejaVuSans-99"/>
      <use x="176.619141" xlink:href="#DejaVuSans-117"/>
      <use x="239.998047" xlink:href="#DejaVuSans-114"/>
      <use x="281.111328" xlink:href="#DejaVuSans-97"/>
      <use x="342.390625" xlink:href="#DejaVuSans-99"/>
      <use x="397.371094" xlink:href="#DejaVuSans-121"/>
     </g>
    </g>
   </g>
   <g id="line2d_16">
    <path clip-path="url(#p0b5b71c029)" d="M 54.3348 35.951616 
L 59.3568 36.364752 
L 60.0264 36.451728 
L 61.3656 36.51696 
L 72.7488 37.147536 
L 74.088 37.212768 
L 75.0924 37.299744 
L 77.436 37.38672 
L 78.7752 37.451952 
L 90.828 38.343456 
L 92.1672 38.408688 
L 93.8412 38.517408 
L 94.8456 38.626128 
L 100.872 39.104496 
L 101.5416 39.213216 
L 103.8852 39.474144 
L 104.5548 39.604608 
L 105.5592 39.713328 
L 110.916 40.169952 
L 111.5856 40.256928 
L 120.6252 41.322384 
L 121.6296 41.40936 
L 122.634 41.561568 
L 123.6384 41.692032 
L 123.9732 41.865984 
L 127.3212 42.192144 
L 132.0084 42.996672 
L 132.678 43.170624 
L 133.6824 43.36632 
L 135.6912 43.605504 
L 137.0304 43.888176 
L 141.048 44.583984 
L 142.0524 44.736192 
L 144.396 45.301536 
L 145.4004 45.497232 
L 146.4048 45.605952 
L 149.7528 46.149552 
L 150.4224 46.345248 
L 154.44 47.49768 
L 155.4444 47.758608 
L 156.114 47.954304 
L 158.4576 48.606624 
L 158.7924 48.80232 
L 159.462 48.91104 
L 160.1316 49.171968 
L 161.136 49.476384 
L 162.81 50.063472 
L 163.1448 50.280912 
L 163.8144 50.43312 
L 174.8628 54.107856 
L 175.5324 54.390528 
L 179.2152 55.65168 
L 179.8848 55.97784 
L 180.2196 56.151792 
L 180.8892 56.238768 
L 181.5588 56.52144 
L 182.898 56.782368 
L 183.9024 57.086784 
L 184.572 57.3912 
L 186.246 57.82608 
L 187.2504 58.26096 
L 191.268 59.739552 
L 193.2768 60.239664 
L 193.9464 60.609312 
L 194.2812 60.718032 
L 194.9508 61.065936 
L 195.6204 61.435584 
L 195.9552 61.500816 
L 196.29 61.696512 
L 197.964 62.06616 
L 198.6336 62.39232 
L 200.3076 63.001152 
L 200.9772 63.240336 
L 203.3208 64.197072 
L 204.3252 64.392768 
L 205.3296 64.849392 
L 205.9992 65.132064 
L 208.008 66.023568 
L 208.3428 66.327984 
L 208.6776 66.436704 
L 209.3472 66.84984 
L 211.356 67.741344 
L 213.03 68.69808 
L 214.3692 69.328656 
L 216.0432 70.154928 
L 216.7128 70.502832 
L 217.0476 70.633296 
L 217.3824 70.937712 
L 218.052 71.133408 
L 218.7216 71.568288 
L 223.4088 73.894896 
L 225.4176 74.655936 
L 226.7568 75.743136 
L 229.4352 77.047776 
L 231.1092 77.61312 
L 231.7788 77.852304 
L 232.7832 78.613344 
L 233.118 78.70032 
L 233.7876 79.156944 
L 238.4748 81.614016 
L 238.8096 82.005408 
L 239.4792 82.3968 
L 240.1488 82.679472 
L 240.8184 83.114352 
L 241.488 83.310048 
L 243.8316 84.89736 
L 246.51 86.158512 
L 248.184 87.2892 
L 249.1884 87.811056 
L 249.858 88.311168 
L 250.5276 88.680816 
L 253.5408 90.98568 
L 254.2104 91.268352 
L 254.88 91.942416 
L 255.5496 92.355552 
L 260.9064 95.791104 
L 261.2412 95.899824 
L 262.2456 96.900048 
L 264.5892 98.182944 
L 265.2588 98.530848 
L 265.9284 98.965728 
L 266.598 99.487584 
L 268.9416 100.792224 
L 270.2808 101.85768 
L 271.2852 102.683952 
L 271.9548 102.94488 
L 272.6244 103.48848 
L 273.9636 104.271264 
L 274.6332 104.90184 
L 275.6376 105.401952 
L 276.3072 106.010784 
L 276.9768 106.336944 
L 277.6464 106.945776 
L 278.6508 107.61984 
L 279.6552 108.359136 
L 283.6728 110.620512 
L 284.3424 110.88144 
L 284.6772 111.229344 
L 285.6816 111.794688 
L 286.0164 112.055616 
L 287.0208 112.468752 
L 288.36 113.27328 
L 293.382 117.51336 
L 294.0516 117.7308 
L 295.056 118.339632 
L 297.3996 119.448576 
L 299.4084 120.970656 
L 299.7432 121.057632 
L 300.7476 121.688208 
L 301.752 122.253552 
L 303.426 123.427728 
L 304.0956 123.775632 
L 304.7652 124.014816 
L 307.1088 125.297712 
L 307.7784 125.602128 
L 308.448 125.971776 
L 310.7916 127.450368 
L 311.796 127.84176 
L 312.4656 128.320128 
L 313.47 128.82024 
L 315.144 129.755232 
L 315.8136 130.146624 
L 316.4832 130.298832 
L 317.1528 130.646736 
L 320.166 132.690672 
L 322.1748 133.538688 
L 322.5096 133.734384 
L 322.8444 134.082288 
L 323.514 134.47368 
L 324.1836 134.756352 
L 325.188 135.299952 
L 327.1968 136.495872 
L 329.8752 137.996208 
L 330.5448 138.474576 
L 331.884 139.018176 
L 332.8884 139.605264 
L 333.2232 139.974912 
L 334.5624 140.388048 
L 335.232 140.627232 
L 335.9016 140.866416 
L 337.9104 141.583968 
L 338.2452 141.86664 
L 338.9148 142.127568 
L 340.254 142.975584 
L 341.2584 143.323488 
L 342.5976 143.780112 
L 343.602 143.997552 
L 344.6064 144.47592 
L 346.6152 145.432656 
L 347.6196 146.150208 
L 348.2892 146.280672 
L 348.624 146.411136 
L 348.9588 146.672064 
L 350.6328 147.215664 
L 350.9676 147.41136 
L 351.6372 147.6288 
L 352.3068 147.867984 
L 352.9764 148.259376 
L 353.646 148.585536 
L 354.3156 149.04216 
L 355.32 149.303088 
L 355.9896 149.455296 
L 357.9984 150.303312 
L 358.668 150.520752 
L 361.6812 152.042832 
L 362.3508 152.19504 
L 363.3552 152.564688 
L 363.69 152.84736 
L 368.3772 154.608624 
L 369.0468 154.847808 
L 369.7164 155.043504 
L 371.0556 155.369664 
L 371.7252 155.608848 
L 373.734 156.261168 
L 374.0688 156.500352 
L 375.0732 156.739536 
L 376.0776 157.152672 
L 377.7516 157.84848 
L 378.4212 157.978944 
L 379.7604 158.413824 
L 380.0952 158.5008 
L 380.43 158.805216 
L 381.0996 158.957424 
L 383.1084 159.544512 
L 384.1128 159.740208 
L 384.4476 159.91416 
L 385.452 160.1316 
L 387.7956 160.827408 
L 388.4652 160.936128 
L 388.8 161.044848 
L 388.8 161.044848 
" style="fill:none;stroke:#1f77b4;stroke-linecap:square;stroke-width:1.5;"/>
   </g>
   <g id="line2d_17">
    <path clip-path="url(#p0b5b71c029)" d="M 54.3348 35.951616 
L 59.022 36.321264 
L 59.6916 36.40824 
L 63.7092 36.756144 
L 65.0484 36.995328 
L 66.7224 37.104048 
L 79.7796 38.017296 
L 80.4492 38.126016 
L 88.8192 38.756592 
L 89.4888 38.865312 
L 90.828 39.061008 
L 92.502 39.169728 
L 95.5152 39.474144 
L 108.9072 41.322384 
L 109.5768 41.496336 
L 110.2464 41.561568 
L 111.5856 41.865984 
L 112.59 41.974704 
L 114.9336 42.38784 
L 118.2816 43.127136 
L 120.96 43.888176 
L 121.6296 43.996896 
L 125.982 45.084096 
L 126.9864 45.149328 
L 129.9996 46.040832 
L 132.678 46.997568 
L 137.3652 48.323952 
L 137.7 48.58488 
L 139.7088 49.150224 
L 140.3784 49.45464 
L 144.7308 50.97672 
L 149.0832 52.781472 
L 149.7528 53.129376 
L 150.4224 53.564256 
L 151.092 53.80344 
L 151.4268 53.955648 
L 151.7616 54.325296 
L 152.4312 54.694944 
L 155.1096 55.847376 
L 155.7792 56.477952 
L 156.7836 56.8476 
L 158.1228 57.456432 
L 161.136 59.043744 
L 161.8056 59.543856 
L 162.4752 59.826528 
L 163.1448 60.239664 
L 164.1492 60.739776 
L 164.484 61.065936 
L 165.4884 61.587792 
L 166.4928 62.2836 
L 166.8276 62.39232 
L 167.832 63.131616 
L 168.8364 63.544752 
L 169.8408 64.305792 
L 171.18 65.262528 
L 171.8496 65.610432 
L 172.854 66.436704 
L 173.8584 66.871584 
L 175.1976 67.871808 
L 175.5324 67.915296 
L 175.8672 68.110992 
L 176.5368 68.632848 
L 176.8716 68.763312 
L 178.8804 70.198416 
L 179.55 70.611552 
L 181.8936 72.024912 
L 182.2284 72.329328 
L 182.898 72.742464 
L 183.9024 73.525248 
L 185.5764 74.612448 
L 186.9156 75.395232 
L 187.5852 75.960576 
L 189.2592 77.047776 
L 191.9376 79.178688 
L 192.6072 79.504848 
L 192.942 79.548336 
L 193.9464 80.505072 
L 194.2812 80.65728 
L 194.9508 81.113904 
L 195.9552 81.809712 
L 196.6248 82.309824 
L 197.6292 82.896912 
L 197.964 83.04912 
L 198.9684 83.962368 
L 199.3032 84.332016 
L 199.9728 84.810384 
L 202.986 86.919552 
L 203.3208 86.941296 
L 204.66 87.61536 
L 211.0212 92.225088 
L 211.356 92.659968 
L 214.0344 94.508208 
L 214.3692 94.616928 
L 214.704 94.943088 
L 215.0388 95.095296 
L 215.7084 95.76936 
L 216.7128 96.834816 
L 217.3824 97.204464 
L 217.7172 97.574112 
L 218.7216 98.248176 
L 220.0608 99.2484 
L 220.7304 99.509328 
L 225.4176 103.0536 
L 225.7524 103.249296 
L 226.422 103.92336 
L 231.1092 106.837056 
L 231.444 106.945776 
L 232.4484 107.815536 
L 235.1268 109.381104 
L 235.7964 110.1204 
L 236.466 110.359584 
L 237.4704 110.816208 
L 237.8052 111.120624 
L 238.14 111.229344 
L 238.8096 111.620736 
L 239.1444 111.794688 
L 239.4792 112.273056 
L 240.4836 112.903632 
L 241.488 113.555952 
L 242.8272 114.425712 
L 244.5012 115.66512 
L 245.5056 116.230464 
L 246.1752 116.6436 
L 247.8492 117.817776 
L 249.1884 118.60056 
L 249.858 119.187648 
L 250.5276 119.666016 
L 252.8712 121.514256 
L 254.2104 122.427504 
L 255.5496 123.145056 
L 256.2192 123.623424 
L 259.5672 125.515152 
L 259.902 125.623872 
L 262.5804 127.5156 
L 263.25 127.798272 
L 264.2544 128.450592 
L 265.2588 128.994192 
L 267.2676 130.364064 
L 268.272 130.755456 
L 268.6068 131.038128 
L 269.2764 131.364288 
L 269.946 131.820912 
L 271.2852 132.755904 
L 273.294 134.017056 
L 273.9636 134.386704 
L 275.9724 135.539136 
L 277.3116 136.582848 
L 278.316 137.08296 
L 278.9856 137.322144 
L 279.6552 137.844 
L 280.6596 138.148416 
L 284.0076 139.80096 
L 284.3424 140.192352 
L 285.3468 140.714208 
L 286.686 141.496992 
L 287.6904 142.08408 
L 288.36 142.30152 
L 298.404 147.6288 
L 299.7432 148.346352 
L 301.4172 148.998672 
L 308.448 152.129808 
L 309.7872 152.564688 
L 311.1264 153.151776 
L 311.796 153.434448 
L 312.1308 153.782352 
L 315.4788 155.152224 
L 316.1484 155.56536 
L 316.818 155.717568 
L 319.4964 157.174416 
L 325.5228 159.435792 
L 325.8576 159.522768 
L 327.1968 160.45776 
L 329.5404 161.153568 
L 331.2144 161.697168 
L 331.884 161.849376 
L 332.8884 162.349488 
L 335.232 163.371456 
L 336.906 163.675872 
L 337.2408 163.9368 
L 340.9236 165.219696 
L 341.5932 165.415392 
L 342.5976 165.589344 
L 344.2716 166.350384 
L 345.276 166.589568 
L 346.95 167.133168 
L 349.9632 167.807232 
L 351.3024 168.155136 
L 352.6416 168.437808 
L 354.3156 168.872688 
L 354.9852 169.111872 
L 355.9896 169.307568 
L 356.6592 169.459776 
L 357.3288 169.655472 
L 358.668 169.981632 
L 362.016 170.764416 
L 362.3508 170.78616 
L 362.6856 170.960112 
L 363.69 171.134064 
L 364.3596 171.373248 
L 365.364 171.525456 
L 369.0468 172.329984 
L 369.7164 172.503936 
L 370.386 172.6344 
L 374.0688 173.50416 
L 375.408 173.678112 
L 376.0776 173.83032 
L 377.082 174.04776 
L 378.756 174.395664 
L 379.7604 174.569616 
L 383.4432 175.439376 
L 384.7824 175.613328 
L 386.1216 175.78728 
L 387.126 175.961232 
L 388.8 176.309136 
L 388.8 176.309136 
" style="fill:none;stroke:#ff7f0e;stroke-linecap:square;stroke-width:1.5;"/>
   </g>
   <g id="line2d_18">
    <path clip-path="url(#p0b5b71c029)" d="M 54.3348 37.017072 
L 55.3392 37.125792 
L 56.0088 37.191024 
L 57.348 37.343232 
L 61.3656 37.451952 
L 66.3876 37.995552 
L 68.3964 38.104272 
L 69.7356 38.25648 
L 71.0748 38.321712 
L 73.4184 38.69136 
L 74.4228 38.80008 
L 76.0968 39.12624 
L 77.436 39.321936 
L 79.11 39.430656 
L 80.4492 39.626352 
L 81.1188 39.822048 
L 82.7928 40.017744 
L 84.132 40.278672 
L 95.5152 41.84424 
L 95.85 41.996448 
L 96.1848 42.018192 
L 96.5196 42.213888 
L 97.1892 42.344352 
L 97.8588 42.561792 
L 102.2112 43.214112 
L 103.2156 43.605504 
L 104.5548 43.779456 
L 107.2332 44.388288 
L 107.9028 44.583984 
L 109.5768 44.910144 
L 118.6164 47.345472 
L 119.6208 47.82384 
L 120.96 48.193488 
L 121.6296 48.389184 
L 122.634 48.6936 
L 123.3036 48.845808 
L 125.6472 49.628592 
L 125.982 49.911264 
L 127.656 50.389632 
L 128.3256 50.54184 
L 128.6604 50.75928 
L 128.9952 50.781024 
L 132.678 52.368336 
L 133.3476 52.585776 
L 135.6912 53.781696 
L 136.3608 53.977392 
L 137.0304 54.194832 
L 138.0348 54.738432 
L 138.7044 55.021104 
L 142.0524 56.869344 
L 143.0568 57.478176 
L 144.7308 58.347936 
L 145.7352 59.000256 
L 146.07 59.108976 
L 146.4048 59.391648 
L 147.4092 59.848272 
L 147.744 60.130944 
L 148.4136 60.348384 
L 149.418 60.935472 
L 151.092 61.500816 
L 152.0964 62.305344 
L 154.1052 63.457776 
L 154.7748 63.936144 
L 155.7792 64.631952 
L 156.7836 65.088576 
L 158.4576 66.30624 
L 159.1272 66.95856 
L 159.7968 67.545648 
L 163.4796 69.720048 
L 164.1492 70.372368 
L 164.484 70.568064 
L 167.4972 73.351296 
L 171.5148 76.330224 
L 173.8584 78.461136 
L 174.528 79.35264 
L 176.5368 80.852976 
L 181.224 85.288752 
L 181.8936 85.636656 
L 182.2284 86.136768 
L 182.898 86.680368 
L 183.9024 87.789312 
L 184.2372 88.115472 
L 184.9068 88.528608 
L 185.5764 89.159184 
L 185.9112 89.311392 
L 188.5896 91.942416 
L 189.594 92.746944 
L 189.9288 92.986128 
L 190.9332 94.073328 
L 191.9376 94.986576 
L 192.6072 95.812848 
L 192.942 95.9868 
L 199.3032 102.51 
L 200.3076 103.27104 
L 200.6424 103.662432 
L 201.312 104.162544 
L 201.9816 104.836608 
L 202.3164 104.967072 
L 202.6512 105.44544 
L 203.6556 106.293456 
L 207.3384 110.33784 
L 207.6732 111.055392 
L 208.6776 111.903408 
L 211.6908 115.317216 
L 212.3604 115.99128 
L 214.704 118.752768 
L 215.0388 118.92672 
L 216.378 120.601008 
L 217.0476 121.296816 
L 217.7172 122.29704 
L 218.7216 123.188544 
L 219.3912 123.92784 
L 219.726 124.167024 
L 220.7304 125.254224 
L 221.0652 125.515152 
L 222.0696 126.972 
L 223.074 127.928736 
L 223.7436 128.776752 
L 224.0784 128.994192 
L 225.7524 130.907664 
L 227.4264 132.451488 
L 228.7656 134.234496 
L 229.1004 134.451936 
L 230.4396 135.930528 
L 230.7744 136.126224 
L 232.7832 138.17016 
L 233.7876 139.387824 
L 235.1268 140.931648 
L 235.7964 142.214544 
L 236.466 143.084304 
L 238.4748 145.171728 
L 239.1444 145.88928 
L 239.814 146.476368 
L 242.1576 149.172624 
L 242.4924 149.8032 
L 245.1708 152.73864 
L 248.184 156.609072 
L 250.1928 159.327072 
L 254.2104 163.3932 
L 256.2192 165.78504 
L 256.554 166.480848 
L 257.5584 167.41584 
L 258.228 168.155136 
L 258.5628 168.524784 
L 258.8976 168.72048 
L 261.9108 172.112544 
L 263.25 173.61288 
L 263.9196 174.439152 
L 264.5892 174.939264 
L 265.2588 175.635072 
L 266.2632 176.504832 
L 266.598 177.048432 
L 267.2676 177.570288 
L 267.9372 178.39656 
L 269.946 179.853408 
L 270.6156 180.67968 
L 271.62 181.745136 
L 274.6332 184.354416 
L 276.3072 186.159168 
L 276.9768 186.854976 
L 277.6464 187.659504 
L 278.9856 188.681472 
L 279.3204 188.790192 
L 280.3248 189.616464 
L 281.3292 190.334016 
L 283.0032 191.812608 
L 283.6728 192.269232 
L 284.0076 192.595392 
L 284.3424 193.18248 
L 286.0164 194.81328 
L 287.6904 196.139664 
L 289.3644 197.357328 
L 290.7036 198.574992 
L 291.0384 198.792432 
L 291.3732 199.292544 
L 291.708 199.444752 
L 292.0428 199.836144 
L 292.7124 200.314512 
L 297.3996 203.902272 
L 298.0692 204.27192 
L 298.404 204.619824 
L 298.7388 204.750288 
L 301.4172 206.924688 
L 302.7564 207.903168 
L 303.0912 208.272816 
L 303.7608 208.555488 
L 304.4304 209.033856 
L 305.1 209.425248 
L 307.1088 210.90384 
L 307.7784 211.273488 
L 308.448 211.7736 
L 308.7828 211.860576 
L 309.4524 212.20848 
L 310.122 212.491152 
L 311.4612 213.18696 
L 312.4656 213.752304 
L 313.1352 214.078464 
L 313.8048 214.404624 
L 315.8136 215.209152 
L 316.4832 215.709264 
L 317.8224 216.513792 
L 319.4964 217.383552 
L 320.166 217.492272 
L 321.1704 217.905408 
L 321.5052 218.144592 
L 321.84 218.209824 
L 322.5096 218.535984 
L 323.1792 218.796912 
L 323.8488 219.297024 
L 325.188 219.949344 
L 325.5228 220.188528 
L 325.8576 220.275504 
L 326.5272 220.666896 
L 328.536 221.66712 
L 329.5404 222.21072 
L 330.5448 222.623856 
L 331.5492 222.884784 
L 332.5536 223.276176 
L 332.8884 223.363152 
L 333.2232 223.62408 
L 335.9016 224.406864 
L 339.5844 225.928944 
L 341.5932 227.21184 
L 343.2672 227.668464 
L 343.602 227.885904 
L 344.2716 228.059856 
L 344.9412 228.386016 
L 345.6108 228.581712 
L 346.2804 228.95136 
L 346.95 229.103568 
L 353.3112 231.495408 
L 354.9852 232.017264 
L 355.9896 232.365168 
L 356.6592 232.560864 
L 358.3332 232.952256 
L 359.3376 233.321904 
L 362.016 234.126432 
L 363.0204 234.300384 
L 363.69 234.539568 
L 365.364 234.909216 
L 366.3684 235.061424 
L 367.038 235.235376 
L 368.712 235.626768 
L 369.0468 235.626768 
L 369.7164 235.778976 
L 370.7208 235.90944 
L 372.3948 236.366064 
L 376.4124 237.21408 
L 377.082 237.43152 
L 388.8 239.671152 
L 388.8 239.671152 
" style="fill:none;stroke:#2ca02c;stroke-linecap:square;stroke-width:1.5;"/>
   </g>
   <g id="patch_3">
    <path d="M 54 252 
L 54 34.56 
" style="fill:none;stroke:#000000;stroke-linecap:square;stroke-linejoin:miter;stroke-width:0.8;"/>
   </g>
   <g id="patch_4">
    <path d="M 388.8 252 
L 388.8 34.56 
" style="fill:none;stroke:#000000;stroke-linecap:square;stroke-linejoin:miter;stroke-width:0.8;"/>
   </g>
   <g id="patch_5">
    <path d="M 54 252 
L 388.8 252 
" style="fill:none;stroke:#000000;stroke-linecap:square;stroke-linejoin:miter;stroke-width:0.8;"/>
   </g>
   <g id="patch_6">
    <path d="M 54 34.56 
L 388.8 34.56 
" style="fill:none;stroke:#000000;stroke-linecap:square;stroke-linejoin:miter;stroke-width:0.8;"/>
   </g>
   <g id="text_18">
    <!-- FGM -->
    <g transform="translate(208.123125 28.56)scale(0.12 -0.12)">
     <defs>
      <path d="M 9.8125 72.90625 
L 51.703125 72.90625 
L 51.703125 64.59375 
L 19.671875 64.59375 
L 19.671875 43.109375 
L 48.578125 43.109375 
L 48.578125 34.8125 
L 19.671875 34.8125 
L 19.671875 0 
L 9.8125 0 
z
" id="DejaVuSans-70"/>
      <path d="M 59.515625 10.40625 
L 59.515625 29.984375 
L 43.40625 29.984375 
L 43.40625 38.09375 
L 69.28125 38.09375 
L 69.28125 6.78125 
Q 63.578125 2.734375 56.6875 0.65625 
Q 49.8125 -1.421875 42 -1.421875 
Q 24.90625 -1.421875 15.25 8.5625 
Q 5.609375 18.5625 5.609375 36.375 
Q 5.609375 54.25 15.25 64.234375 
Q 24.90625 74.21875 42 74.21875 
Q 49.125 74.21875 55.546875 72.453125 
Q 61.96875 70.703125 67.390625 67.28125 
L 67.390625 56.78125 
Q 61.921875 61.421875 55.765625 63.765625 
Q 49.609375 66.109375 42.828125 66.109375 
Q 29.4375 66.109375 22.71875 58.640625 
Q 16.015625 51.171875 16.015625 36.375 
Q 16.015625 21.625 22.71875 14.15625 
Q 29.4375 6.6875 42.828125 6.6875 
Q 48.046875 6.6875 52.140625 7.59375 
Q 56.25 8.5 59.515625 10.40625 
z
" id="DejaVuSans-71"/>
      <path d="M 9.8125 72.90625 
L 24.515625 72.90625 
L 43.109375 23.296875 
L 61.8125 72.90625 
L 76.515625 72.90625 
L 76.515625 0 
L 66.890625 0 
L 66.890625 64.015625 
L 48.09375 14.015625 
L 38.1875 14.015625 
L 19.390625 64.015625 
L 19.390625 0 
L 9.8125 0 
z
" id="DejaVuSans-77"/>
     </defs>
     <use xlink:href="#DejaVuSans-70"/>
     <use x="57.519531" xlink:href="#DejaVuSans-71"/>
     <use x="135.009766" xlink:href="#DejaVuSans-77"/>
    </g>
   </g>
   <g id="legend_1">
    <g id="patch_7">
     <path d="M 270.240625 86.594375 
L 381.8 86.594375 
Q 383.8 86.594375 383.8 84.594375 
L 383.8 41.56 
Q 383.8 39.56 381.8 39.56 
L 270.240625 39.56 
Q 268.240625 39.56 268.240625 41.56 
L 268.240625 84.594375 
Q 268.240625 86.594375 270.240625 86.594375 
z
" style="fill:#ffffff;opacity:0.8;stroke:#cccccc;stroke-linejoin:miter;"/>
    </g>
    <g id="line2d_19">
     <path d="M 272.240625 47.658438 
L 292.240625 47.658438 
" style="fill:none;stroke:#1f77b4;stroke-linecap:square;stroke-width:1.5;"/>
    </g>
    <g id="line2d_20"/>
    <g id="text_19">
     <!-- c2  3.43/90% -->
     <g transform="translate(300.240625 51.158438)scale(0.1 -0.1)">
      <defs>
       <path id="DejaVuSans-32"/>
       <path d="M 25.390625 72.90625 
L 33.6875 72.90625 
L 8.296875 -9.28125 
L 0 -9.28125 
z
" id="DejaVuSans-47"/>
       <path d="M 10.984375 1.515625 
L 10.984375 10.5 
Q 14.703125 8.734375 18.5 7.8125 
Q 22.3125 6.890625 25.984375 6.890625 
Q 35.75 6.890625 40.890625 13.453125 
Q 46.046875 20.015625 46.78125 33.40625 
Q 43.953125 29.203125 39.59375 26.953125 
Q 35.25 24.703125 29.984375 24.703125 
Q 19.046875 24.703125 12.671875 31.3125 
Q 6.296875 37.9375 6.296875 49.421875 
Q 6.296875 60.640625 12.9375 67.421875 
Q 19.578125 74.21875 30.609375 74.21875 
Q 43.265625 74.21875 49.921875 64.515625 
Q 56.59375 54.828125 56.59375 36.375 
Q 56.59375 19.140625 48.40625 8.859375 
Q 40.234375 -1.421875 26.421875 -1.421875 
Q 22.703125 -1.421875 18.890625 -0.6875 
Q 15.09375 0.046875 10.984375 1.515625 
z
M 30.609375 32.421875 
Q 37.25 32.421875 41.125 36.953125 
Q 45.015625 41.5 45.015625 49.421875 
Q 45.015625 57.28125 41.125 61.84375 
Q 37.25 66.40625 30.609375 66.40625 
Q 23.96875 66.40625 20.09375 61.84375 
Q 16.21875 57.28125 16.21875 49.421875 
Q 16.21875 41.5 20.09375 36.953125 
Q 23.96875 32.421875 30.609375 32.421875 
z
" id="DejaVuSans-57"/>
       <path d="M 72.703125 32.078125 
Q 68.453125 32.078125 66.03125 28.46875 
Q 63.625 24.859375 63.625 18.40625 
Q 63.625 12.0625 66.03125 8.421875 
Q 68.453125 4.78125 72.703125 4.78125 
Q 76.859375 4.78125 79.265625 8.421875 
Q 81.6875 12.0625 81.6875 18.40625 
Q 81.6875 24.8125 79.265625 28.4375 
Q 76.859375 32.078125 72.703125 32.078125 
z
M 72.703125 38.28125 
Q 80.421875 38.28125 84.953125 32.90625 
Q 89.5 27.546875 89.5 18.40625 
Q 89.5 9.28125 84.9375 3.921875 
Q 80.375 -1.421875 72.703125 -1.421875 
Q 64.890625 -1.421875 60.34375 3.921875 
Q 55.8125 9.28125 55.8125 18.40625 
Q 55.8125 27.59375 60.375 32.9375 
Q 64.9375 38.28125 72.703125 38.28125 
z
M 22.3125 68.015625 
Q 18.109375 68.015625 15.6875 64.375 
Q 13.28125 60.75 13.28125 54.390625 
Q 13.28125 47.953125 15.671875 44.328125 
Q 18.0625 40.71875 22.3125 40.71875 
Q 26.5625 40.71875 28.96875 44.328125 
Q 31.390625 47.953125 31.390625 54.390625 
Q 31.390625 60.6875 28.953125 64.34375 
Q 26.515625 68.015625 22.3125 68.015625 
z
M 66.40625 74.21875 
L 74.21875 74.21875 
L 28.609375 -1.421875 
L 20.796875 -1.421875 
z
M 22.3125 74.21875 
Q 30.03125 74.21875 34.609375 68.875 
Q 39.203125 63.53125 39.203125 54.390625 
Q 39.203125 45.171875 34.640625 39.84375 
Q 30.078125 34.515625 22.3125 34.515625 
Q 14.546875 34.515625 10.03125 39.859375 
Q 5.515625 45.21875 5.515625 54.390625 
Q 5.515625 63.484375 10.046875 68.84375 
Q 14.59375 74.21875 22.3125 74.21875 
z
" id="DejaVuSans-37"/>
      </defs>
      <use xlink:href="#DejaVuSans-99"/>
      <use x="54.980469" xlink:href="#DejaVuSans-50"/>
      <use x="118.603516" xlink:href="#DejaVuSans-32"/>
      <use x="150.390625" xlink:href="#DejaVuSans-32"/>
      <use x="182.177734" xlink:href="#DejaVuSans-51"/>
      <use x="245.800781" xlink:href="#DejaVuSans-46"/>
      <use x="277.587891" xlink:href="#DejaVuSans-52"/>
      <use x="341.210938" xlink:href="#DejaVuSans-51"/>
      <use x="404.833984" xlink:href="#DejaVuSans-47"/>
      <use x="438.525391" xlink:href="#DejaVuSans-57"/>
      <use x="502.148438" xlink:href="#DejaVuSans-48"/>
      <use x="565.771484" xlink:href="#DejaVuSans-37"/>
     </g>
    </g>
    <g id="line2d_21">
     <path d="M 272.240625 62.336563 
L 292.240625 62.336563 
" style="fill:none;stroke:#ff7f0e;stroke-linecap:square;stroke-width:1.5;"/>
    </g>
    <g id="line2d_22"/>
    <g id="text_20">
     <!-- c3  2.83/83% -->
     <g transform="translate(300.240625 65.836563)scale(0.1 -0.1)">
      <use xlink:href="#DejaVuSans-99"/>
      <use x="54.980469" xlink:href="#DejaVuSans-51"/>
      <use x="118.603516" xlink:href="#DejaVuSans-32"/>
      <use x="150.390625" xlink:href="#DejaVuSans-32"/>
      <use x="182.177734" xlink:href="#DejaVuSans-50"/>
      <use x="245.800781" xlink:href="#DejaVuSans-46"/>
      <use x="277.587891" xlink:href="#DejaVuSans-56"/>
      <use x="341.210938" xlink:href="#DejaVuSans-51"/>
      <use x="404.833984" xlink:href="#DejaVuSans-47"/>
      <use x="438.525391" xlink:href="#DejaVuSans-56"/>
      <use x="502.148438" xlink:href="#DejaVuSans-51"/>
      <use x="565.771484" xlink:href="#DejaVuSans-37"/>
     </g>
    </g>
    <g id="line2d_23">
     <path d="M 272.240625 77.014688 
L 292.240625 77.014688 
" style="fill:none;stroke:#2ca02c;stroke-linecap:square;stroke-width:1.5;"/>
    </g>
    <g id="line2d_24"/>
    <g id="text_21">
     <!-- lenet  2.18/77% -->
     <g transform="translate(300.240625 80.514688)scale(0.1 -0.1)">
      <defs>
       <path d="M 8.203125 72.90625 
L 55.078125 72.90625 
L 55.078125 68.703125 
L 28.609375 0 
L 18.3125 0 
L 43.21875 64.59375 
L 8.203125 64.59375 
z
" id="DejaVuSans-55"/>
      </defs>
      <use xlink:href="#DejaVuSans-108"/>
      <use x="27.783203" xlink:href="#DejaVuSans-101"/>
      <use x="89.306641" xlink:href="#DejaVuSans-110"/>
      <use x="152.685547" xlink:href="#DejaVuSans-101"/>
      <use x="214.208984" xlink:href="#DejaVuSans-116"/>
      <use x="253.417969" xlink:href="#DejaVuSans-32"/>
      <use x="285.205078" xlink:href="#DejaVuSans-32"/>
      <use x="316.992188" xlink:href="#DejaVuSans-50"/>
      <use x="380.615234" xlink:href="#DejaVuSans-46"/>
      <use x="412.402344" xlink:href="#DejaVuSans-49"/>
      <use x="476.025391" xlink:href="#DejaVuSans-56"/>
      <use x="539.648438" xlink:href="#DejaVuSans-47"/>
      <use x="573.339844" xlink:href="#DejaVuSans-55"/>
      <use x="636.962891" xlink:href="#DejaVuSans-55"/>
      <use x="700.585938" xlink:href="#DejaVuSans-37"/>
     </g>
    </g>
   </g>
  </g>
 </g>
 <defs>
  <clipPath id="p0b5b71c029">
   <rect height="217.44" width="334.8" x="54" y="34.56"/>
  </clipPath>
 </defs>
</svg>
