<?xml version="1.0" encoding="utf-8" standalone="no"?>
<!DOCTYPE svg PUBLIC "-//W3C//DTD SVG 1.1//EN"
  "http://www.w3.org/Graphics/SVG/1.1/DTD/svg11.dtd">
<!-- Created with matplotlib (https://matplotlib.org/) -->
<svg height="288pt" version="1.1" viewBox="0 0 432 288" width="432pt" xmlns="http://www.w3.org/2000/svg" xmlns:xlink="http://www.w3.org/1999/xlink">
 <metadata>
  <rdf:RDF xmlns:cc="http://creativecommons.org/ns#" xmlns:dc="http://purl.org/dc/elements/1.1/" xmlns:rdf="http://www.w3.org/1999/02/22-rdf-syntax-ns#">
   <cc:Work>
    <dc:type rdf:resource="http://purl.org/dc/dcmitype/StillImage"/>
    <dc:date>2020-10-18T18:38:31.704614</dc:date>
    <dc:format>image/svg+xml</dc:format>
    <dc:creator>
     <cc:Agent>
      <dc:title>Matplotlib v3.3.2, https://matplotlib.org/</dc:title>
     </cc:Agent>
    </dc:creator>
   </cc:Work>
  </rdf:RDF>
 </metadata>
 <defs>
  <style type="text/css">*{stroke-linecap:butt;stroke-linejoin:round;}</style>
 </defs>
 <g id="figure_1">
  <g id="patch_1">
   <path d="M 0 288 
L 432 288 
L 432 0 
L 0 0 
z
" style="fill:#ffffff;"/>
  </g>
  <g id="axes_1">
   <g id="patch_2">
    <path d="M 54 252 
L 388.8 252 
L 388.8 34.56 
L 54 34.56 
z
" style="fill:#ffffff;"/>
   </g>
   <g id="matplotlib.axis_1">
    <g id="xtick_1">
     <g id="line2d_1">
      <defs>
       <path d="M 0 0 
L 0 3.5 
" id="mcfb9e40774" style="stroke:#000000;stroke-width:0.8;"/>
      </defs>
      <g>
       <use style="stroke:#000000;stroke-width:0.8;" x="54" xlink:href="#mcfb9e40774" y="252"/>
      </g>
     </g>
     <g id="text_1">
      <!-- 0.0 -->
      <g transform="translate(46.048437 266.598437)scale(0.1 -0.1)">
       <defs>
        <path d="M 31.78125 66.40625 
Q 24.171875 66.40625 20.328125 58.90625 
Q 16.5 51.421875 16.5 36.375 
Q 16.5 21.390625 20.328125 13.890625 
Q 24.171875 6.390625 31.78125 6.390625 
Q 39.453125 6.390625 43.28125 13.890625 
Q 47.125 21.390625 47.125 36.375 
Q 47.125 51.421875 43.28125 58.90625 
Q 39.453125 66.40625 31.78125 66.40625 
z
M 31.78125 74.21875 
Q 44.046875 74.21875 50.515625 64.515625 
Q 56.984375 54.828125 56.984375 36.375 
Q 56.984375 17.96875 50.515625 8.265625 
Q 44.046875 -1.421875 31.78125 -1.421875 
Q 19.53125 -1.421875 13.0625 8.265625 
Q 6.59375 17.96875 6.59375 36.375 
Q 6.59375 54.828125 13.0625 64.515625 
Q 19.53125 74.21875 31.78125 74.21875 
z
" id="DejaVuSans-48"/>
        <path d="M 10.6875 12.40625 
L 21 12.40625 
L 21 0 
L 10.6875 0 
z
" id="DejaVuSans-46"/>
       </defs>
       <use xlink:href="#DejaVuSans-48"/>
       <use x="63.623047" xlink:href="#DejaVuSans-46"/>
       <use x="95.410156" xlink:href="#DejaVuSans-48"/>
      </g>
     </g>
    </g>
    <g id="xtick_2">
     <g id="line2d_2">
      <g>
       <use style="stroke:#000000;stroke-width:0.8;" x="120.96" xlink:href="#mcfb9e40774" y="252"/>
      </g>
     </g>
     <g id="text_2">
      <!-- 0.1 -->
      <g transform="translate(113.008438 266.598437)scale(0.1 -0.1)">
       <defs>
        <path d="M 12.40625 8.296875 
L 28.515625 8.296875 
L 28.515625 63.921875 
L 10.984375 60.40625 
L 10.984375 69.390625 
L 28.421875 72.90625 
L 38.28125 72.90625 
L 38.28125 8.296875 
L 54.390625 8.296875 
L 54.390625 0 
L 12.40625 0 
z
" id="DejaVuSans-49"/>
       </defs>
       <use xlink:href="#DejaVuSans-48"/>
       <use x="63.623047" xlink:href="#DejaVuSans-46"/>
       <use x="95.410156" xlink:href="#DejaVuSans-49"/>
      </g>
     </g>
    </g>
    <g id="xtick_3">
     <g id="line2d_3">
      <g>
       <use style="stroke:#000000;stroke-width:0.8;" x="187.92" xlink:href="#mcfb9e40774" y="252"/>
      </g>
     </g>
     <g id="text_3">
      <!-- 0.2 -->
      <g transform="translate(179.968438 266.598437)scale(0.1 -0.1)">
       <defs>
        <path d="M 19.1875 8.296875 
L 53.609375 8.296875 
L 53.609375 0 
L 7.328125 0 
L 7.328125 8.296875 
Q 12.9375 14.109375 22.625 23.890625 
Q 32.328125 33.6875 34.8125 36.53125 
Q 39.546875 41.84375 41.421875 45.53125 
Q 43.3125 49.21875 43.3125 52.78125 
Q 43.3125 58.59375 39.234375 62.25 
Q 35.15625 65.921875 28.609375 65.921875 
Q 23.96875 65.921875 18.8125 64.3125 
Q 13.671875 62.703125 7.8125 59.421875 
L 7.8125 69.390625 
Q 13.765625 71.78125 18.9375 73 
Q 24.125 74.21875 28.421875 74.21875 
Q 39.75 74.21875 46.484375 68.546875 
Q 53.21875 62.890625 53.21875 53.421875 
Q 53.21875 48.921875 51.53125 44.890625 
Q 49.859375 40.875 45.40625 35.40625 
Q 44.1875 33.984375 37.640625 27.21875 
Q 31.109375 20.453125 19.1875 8.296875 
z
" id="DejaVuSans-50"/>
       </defs>
       <use xlink:href="#DejaVuSans-48"/>
       <use x="63.623047" xlink:href="#DejaVuSans-46"/>
       <use x="95.410156" xlink:href="#DejaVuSans-50"/>
      </g>
     </g>
    </g>
    <g id="xtick_4">
     <g id="line2d_4">
      <g>
       <use style="stroke:#000000;stroke-width:0.8;" x="254.88" xlink:href="#mcfb9e40774" y="252"/>
      </g>
     </g>
     <g id="text_4">
      <!-- 0.3 -->
      <g transform="translate(246.928438 266.598437)scale(0.1 -0.1)">
       <defs>
        <path d="M 40.578125 39.3125 
Q 47.65625 37.796875 51.625 33 
Q 55.609375 28.21875 55.609375 21.1875 
Q 55.609375 10.40625 48.1875 4.484375 
Q 40.765625 -1.421875 27.09375 -1.421875 
Q 22.515625 -1.421875 17.65625 -0.515625 
Q 12.796875 0.390625 7.625 2.203125 
L 7.625 11.71875 
Q 11.71875 9.328125 16.59375 8.109375 
Q 21.484375 6.890625 26.8125 6.890625 
Q 36.078125 6.890625 40.9375 10.546875 
Q 45.796875 14.203125 45.796875 21.1875 
Q 45.796875 27.640625 41.28125 31.265625 
Q 36.765625 34.90625 28.71875 34.90625 
L 20.21875 34.90625 
L 20.21875 43.015625 
L 29.109375 43.015625 
Q 36.375 43.015625 40.234375 45.921875 
Q 44.09375 48.828125 44.09375 54.296875 
Q 44.09375 59.90625 40.109375 62.90625 
Q 36.140625 65.921875 28.71875 65.921875 
Q 24.65625 65.921875 20.015625 65.03125 
Q 15.375 64.15625 9.8125 62.3125 
L 9.8125 71.09375 
Q 15.4375 72.65625 20.34375 73.4375 
Q 25.25 74.21875 29.59375 74.21875 
Q 40.828125 74.21875 47.359375 69.109375 
Q 53.90625 64.015625 53.90625 55.328125 
Q 53.90625 49.265625 50.4375 45.09375 
Q 46.96875 40.921875 40.578125 39.3125 
z
" id="DejaVuSans-51"/>
       </defs>
       <use xlink:href="#DejaVuSans-48"/>
       <use x="63.623047" xlink:href="#DejaVuSans-46"/>
       <use x="95.410156" xlink:href="#DejaVuSans-51"/>
      </g>
     </g>
    </g>
    <g id="xtick_5">
     <g id="line2d_5">
      <g>
       <use style="stroke:#000000;stroke-width:0.8;" x="321.84" xlink:href="#mcfb9e40774" y="252"/>
      </g>
     </g>
     <g id="text_5">
      <!-- 0.4 -->
      <g transform="translate(313.888438 266.598437)scale(0.1 -0.1)">
       <defs>
        <path d="M 37.796875 64.3125 
L 12.890625 25.390625 
L 37.796875 25.390625 
z
M 35.203125 72.90625 
L 47.609375 72.90625 
L 47.609375 25.390625 
L 58.015625 25.390625 
L 58.015625 17.1875 
L 47.609375 17.1875 
L 47.609375 0 
L 37.796875 0 
L 37.796875 17.1875 
L 4.890625 17.1875 
L 4.890625 26.703125 
z
" id="DejaVuSans-52"/>
       </defs>
       <use xlink:href="#DejaVuSans-48"/>
       <use x="63.623047" xlink:href="#DejaVuSans-46"/>
       <use x="95.410156" xlink:href="#DejaVuSans-52"/>
      </g>
     </g>
    </g>
    <g id="xtick_6">
     <g id="line2d_6">
      <g>
       <use style="stroke:#000000;stroke-width:0.8;" x="388.8" xlink:href="#mcfb9e40774" y="252"/>
      </g>
     </g>
     <g id="text_6">
      <!-- 0.5 -->
      <g transform="translate(380.848437 266.598437)scale(0.1 -0.1)">
       <defs>
        <path d="M 10.796875 72.90625 
L 49.515625 72.90625 
L 49.515625 64.59375 
L 19.828125 64.59375 
L 19.828125 46.734375 
Q 21.96875 47.46875 24.109375 47.828125 
Q 26.265625 48.1875 28.421875 48.1875 
Q 40.625 48.1875 47.75 41.5 
Q 54.890625 34.8125 54.890625 23.390625 
Q 54.890625 11.625 47.5625 5.09375 
Q 40.234375 -1.421875 26.90625 -1.421875 
Q 22.3125 -1.421875 17.546875 -0.640625 
Q 12.796875 0.140625 7.71875 1.703125 
L 7.71875 11.625 
Q 12.109375 9.234375 16.796875 8.0625 
Q 21.484375 6.890625 26.703125 6.890625 
Q 35.15625 6.890625 40.078125 11.328125 
Q 45.015625 15.765625 45.015625 23.390625 
Q 45.015625 31 40.078125 35.4375 
Q 35.15625 39.890625 26.703125 39.890625 
Q 22.75 39.890625 18.8125 39.015625 
Q 14.890625 38.140625 10.796875 36.28125 
z
" id="DejaVuSans-53"/>
       </defs>
       <use xlink:href="#DejaVuSans-48"/>
       <use x="63.623047" xlink:href="#DejaVuSans-46"/>
       <use x="95.410156" xlink:href="#DejaVuSans-53"/>
      </g>
     </g>
    </g>
    <g id="text_7">
     <!-- linfdistance -->
     <g transform="translate(192.50625 280.276563)scale(0.1 -0.1)">
      <defs>
       <path d="M 9.421875 75.984375 
L 18.40625 75.984375 
L 18.40625 0 
L 9.421875 0 
z
" id="DejaVuSans-108"/>
       <path d="M 9.421875 54.6875 
L 18.40625 54.6875 
L 18.40625 0 
L 9.421875 0 
z
M 9.421875 75.984375 
L 18.40625 75.984375 
L 18.40625 64.59375 
L 9.421875 64.59375 
z
" id="DejaVuSans-105"/>
       <path d="M 54.890625 33.015625 
L 54.890625 0 
L 45.90625 0 
L 45.90625 32.71875 
Q 45.90625 40.484375 42.875 44.328125 
Q 39.84375 48.1875 33.796875 48.1875 
Q 26.515625 48.1875 22.3125 43.546875 
Q 18.109375 38.921875 18.109375 30.90625 
L 18.109375 0 
L 9.078125 0 
L 9.078125 54.6875 
L 18.109375 54.6875 
L 18.109375 46.1875 
Q 21.34375 51.125 25.703125 53.5625 
Q 30.078125 56 35.796875 56 
Q 45.21875 56 50.046875 50.171875 
Q 54.890625 44.34375 54.890625 33.015625 
z
" id="DejaVuSans-110"/>
       <path d="M 37.109375 75.984375 
L 37.109375 68.5 
L 28.515625 68.5 
Q 23.6875 68.5 21.796875 66.546875 
Q 19.921875 64.59375 19.921875 59.515625 
L 19.921875 54.6875 
L 34.71875 54.6875 
L 34.71875 47.703125 
L 19.921875 47.703125 
L 19.921875 0 
L 10.890625 0 
L 10.890625 47.703125 
L 2.296875 47.703125 
L 2.296875 54.6875 
L 10.890625 54.6875 
L 10.890625 58.5 
Q 10.890625 67.625 15.140625 71.796875 
Q 19.390625 75.984375 28.609375 75.984375 
z
" id="DejaVuSans-102"/>
       <path d="M 45.40625 46.390625 
L 45.40625 75.984375 
L 54.390625 75.984375 
L 54.390625 0 
L 45.40625 0 
L 45.40625 8.203125 
Q 42.578125 3.328125 38.25 0.953125 
Q 33.9375 -1.421875 27.875 -1.421875 
Q 17.96875 -1.421875 11.734375 6.484375 
Q 5.515625 14.40625 5.515625 27.296875 
Q 5.515625 40.1875 11.734375 48.09375 
Q 17.96875 56 27.875 56 
Q 33.9375 56 38.25 53.625 
Q 42.578125 51.265625 45.40625 46.390625 
z
M 14.796875 27.296875 
Q 14.796875 17.390625 18.875 11.75 
Q 22.953125 6.109375 30.078125 6.109375 
Q 37.203125 6.109375 41.296875 11.75 
Q 45.40625 17.390625 45.40625 27.296875 
Q 45.40625 37.203125 41.296875 42.84375 
Q 37.203125 48.484375 30.078125 48.484375 
Q 22.953125 48.484375 18.875 42.84375 
Q 14.796875 37.203125 14.796875 27.296875 
z
" id="DejaVuSans-100"/>
       <path d="M 44.28125 53.078125 
L 44.28125 44.578125 
Q 40.484375 46.53125 36.375 47.5 
Q 32.28125 48.484375 27.875 48.484375 
Q 21.1875 48.484375 17.84375 46.4375 
Q 14.5 44.390625 14.5 40.28125 
Q 14.5 37.15625 16.890625 35.375 
Q 19.28125 33.59375 26.515625 31.984375 
L 29.59375 31.296875 
Q 39.15625 29.25 43.1875 25.515625 
Q 47.21875 21.78125 47.21875 15.09375 
Q 47.21875 7.46875 41.1875 3.015625 
Q 35.15625 -1.421875 24.609375 -1.421875 
Q 20.21875 -1.421875 15.453125 -0.5625 
Q 10.6875 0.296875 5.421875 2 
L 5.421875 11.28125 
Q 10.40625 8.6875 15.234375 7.390625 
Q 20.0625 6.109375 24.8125 6.109375 
Q 31.15625 6.109375 34.5625 8.28125 
Q 37.984375 10.453125 37.984375 14.40625 
Q 37.984375 18.0625 35.515625 20.015625 
Q 33.0625 21.96875 24.703125 23.78125 
L 21.578125 24.515625 
Q 13.234375 26.265625 9.515625 29.90625 
Q 5.8125 33.546875 5.8125 39.890625 
Q 5.8125 47.609375 11.28125 51.796875 
Q 16.75 56 26.8125 56 
Q 31.78125 56 36.171875 55.265625 
Q 40.578125 54.546875 44.28125 53.078125 
z
" id="DejaVuSans-115"/>
       <path d="M 18.3125 70.21875 
L 18.3125 54.6875 
L 36.8125 54.6875 
L 36.8125 47.703125 
L 18.3125 47.703125 
L 18.3125 18.015625 
Q 18.3125 11.328125 20.140625 9.421875 
Q 21.96875 7.515625 27.59375 7.515625 
L 36.8125 7.515625 
L 36.8125 0 
L 27.59375 0 
Q 17.1875 0 13.234375 3.875 
Q 9.28125 7.765625 9.28125 18.015625 
L 9.28125 47.703125 
L 2.6875 47.703125 
L 2.6875 54.6875 
L 9.28125 54.6875 
L 9.28125 70.21875 
z
" id="DejaVuSans-116"/>
       <path d="M 34.28125 27.484375 
Q 23.390625 27.484375 19.1875 25 
Q 14.984375 22.515625 14.984375 16.5 
Q 14.984375 11.71875 18.140625 8.90625 
Q 21.296875 6.109375 26.703125 6.109375 
Q 34.1875 6.109375 38.703125 11.40625 
Q 43.21875 16.703125 43.21875 25.484375 
L 43.21875 27.484375 
z
M 52.203125 31.203125 
L 52.203125 0 
L 43.21875 0 
L 43.21875 8.296875 
Q 40.140625 3.328125 35.546875 0.953125 
Q 30.953125 -1.421875 24.3125 -1.421875 
Q 15.921875 -1.421875 10.953125 3.296875 
Q 6 8.015625 6 15.921875 
Q 6 25.140625 12.171875 29.828125 
Q 18.359375 34.515625 30.609375 34.515625 
L 43.21875 34.515625 
L 43.21875 35.40625 
Q 43.21875 41.609375 39.140625 45 
Q 35.0625 48.390625 27.6875 48.390625 
Q 23 48.390625 18.546875 47.265625 
Q 14.109375 46.140625 10.015625 43.890625 
L 10.015625 52.203125 
Q 14.9375 54.109375 19.578125 55.046875 
Q 24.21875 56 28.609375 56 
Q 40.484375 56 46.34375 49.84375 
Q 52.203125 43.703125 52.203125 31.203125 
z
" id="DejaVuSans-97"/>
       <path d="M 48.78125 52.59375 
L 48.78125 44.1875 
Q 44.96875 46.296875 41.140625 47.34375 
Q 37.3125 48.390625 33.40625 48.390625 
Q 24.65625 48.390625 19.8125 42.84375 
Q 14.984375 37.3125 14.984375 27.296875 
Q 14.984375 17.28125 19.8125 11.734375 
Q 24.65625 6.203125 33.40625 6.203125 
Q 37.3125 6.203125 41.140625 7.25 
Q 44.96875 8.296875 48.78125 10.40625 
L 48.78125 2.09375 
Q 45.015625 0.34375 40.984375 -0.53125 
Q 36.96875 -1.421875 32.421875 -1.421875 
Q 20.0625 -1.421875 12.78125 6.34375 
Q 5.515625 14.109375 5.515625 27.296875 
Q 5.515625 40.671875 12.859375 48.328125 
Q 20.21875 56 33.015625 56 
Q 37.15625 56 41.109375 55.140625 
Q 45.0625 54.296875 48.78125 52.59375 
z
" id="DejaVuSans-99"/>
       <path d="M 56.203125 29.59375 
L 56.203125 25.203125 
L 14.890625 25.203125 
Q 15.484375 15.921875 20.484375 11.0625 
Q 25.484375 6.203125 34.421875 6.203125 
Q 39.59375 6.203125 44.453125 7.46875 
Q 49.3125 8.734375 54.109375 11.28125 
L 54.109375 2.78125 
Q 49.265625 0.734375 44.1875 -0.34375 
Q 39.109375 -1.421875 33.890625 -1.421875 
Q 20.796875 -1.421875 13.15625 6.1875 
Q 5.515625 13.8125 5.515625 26.8125 
Q 5.515625 40.234375 12.765625 48.109375 
Q 20.015625 56 32.328125 56 
Q 43.359375 56 49.78125 48.890625 
Q 56.203125 41.796875 56.203125 29.59375 
z
M 47.21875 32.234375 
Q 47.125 39.59375 43.09375 43.984375 
Q 39.0625 48.390625 32.421875 48.390625 
Q 24.90625 48.390625 20.390625 44.140625 
Q 15.875 39.890625 15.1875 32.171875 
z
" id="DejaVuSans-101"/>
      </defs>
      <use xlink:href="#DejaVuSans-108"/>
      <use x="27.783203" xlink:href="#DejaVuSans-105"/>
      <use x="55.566406" xlink:href="#DejaVuSans-110"/>
      <use x="118.945312" xlink:href="#DejaVuSans-102"/>
      <use x="154.150391" xlink:href="#DejaVuSans-100"/>
      <use x="217.626953" xlink:href="#DejaVuSans-105"/>
      <use x="245.410156" xlink:href="#DejaVuSans-115"/>
      <use x="297.509766" xlink:href="#DejaVuSans-116"/>
      <use x="336.71875" xlink:href="#DejaVuSans-97"/>
      <use x="397.998047" xlink:href="#DejaVuSans-110"/>
      <use x="461.376953" xlink:href="#DejaVuSans-99"/>
      <use x="516.357422" xlink:href="#DejaVuSans-101"/>
     </g>
    </g>
   </g>
   <g id="matplotlib.axis_2">
    <g id="ytick_1">
     <g id="line2d_7">
      <defs>
       <path d="M 0 0 
L -3.5 0 
" id="mca7cc8cf43" style="stroke:#000000;stroke-width:0.8;"/>
      </defs>
      <g>
       <use style="stroke:#000000;stroke-width:0.8;" x="54" xlink:href="#mca7cc8cf43" y="252"/>
      </g>
     </g>
     <g id="text_8">
      <!-- 0.0 -->
      <g transform="translate(31.096875 255.799219)scale(0.1 -0.1)">
       <use xlink:href="#DejaVuSans-48"/>
       <use x="63.623047" xlink:href="#DejaVuSans-46"/>
       <use x="95.410156" xlink:href="#DejaVuSans-48"/>
      </g>
     </g>
    </g>
    <g id="ytick_2">
     <g id="line2d_8">
      <g>
       <use style="stroke:#000000;stroke-width:0.8;" x="54" xlink:href="#mca7cc8cf43" y="208.512"/>
      </g>
     </g>
     <g id="text_9">
      <!-- 0.2 -->
      <g transform="translate(31.096875 212.311219)scale(0.1 -0.1)">
       <use xlink:href="#DejaVuSans-48"/>
       <use x="63.623047" xlink:href="#DejaVuSans-46"/>
       <use x="95.410156" xlink:href="#DejaVuSans-50"/>
      </g>
     </g>
    </g>
    <g id="ytick_3">
     <g id="line2d_9">
      <g>
       <use style="stroke:#000000;stroke-width:0.8;" x="54" xlink:href="#mca7cc8cf43" y="165.024"/>
      </g>
     </g>
     <g id="text_10">
      <!-- 0.4 -->
      <g transform="translate(31.096875 168.823219)scale(0.1 -0.1)">
       <use xlink:href="#DejaVuSans-48"/>
       <use x="63.623047" xlink:href="#DejaVuSans-46"/>
       <use x="95.410156" xlink:href="#DejaVuSans-52"/>
      </g>
     </g>
    </g>
    <g id="ytick_4">
     <g id="line2d_10">
      <g>
       <use style="stroke:#000000;stroke-width:0.8;" x="54" xlink:href="#mca7cc8cf43" y="121.536"/>
      </g>
     </g>
     <g id="text_11">
      <!-- 0.6 -->
      <g transform="translate(31.096875 125.335219)scale(0.1 -0.1)">
       <defs>
        <path d="M 33.015625 40.375 
Q 26.375 40.375 22.484375 35.828125 
Q 18.609375 31.296875 18.609375 23.390625 
Q 18.609375 15.53125 22.484375 10.953125 
Q 26.375 6.390625 33.015625 6.390625 
Q 39.65625 6.390625 43.53125 10.953125 
Q 47.40625 15.53125 47.40625 23.390625 
Q 47.40625 31.296875 43.53125 35.828125 
Q 39.65625 40.375 33.015625 40.375 
z
M 52.59375 71.296875 
L 52.59375 62.3125 
Q 48.875 64.0625 45.09375 64.984375 
Q 41.3125 65.921875 37.59375 65.921875 
Q 27.828125 65.921875 22.671875 59.328125 
Q 17.53125 52.734375 16.796875 39.40625 
Q 19.671875 43.65625 24.015625 45.921875 
Q 28.375 48.1875 33.59375 48.1875 
Q 44.578125 48.1875 50.953125 41.515625 
Q 57.328125 34.859375 57.328125 23.390625 
Q 57.328125 12.15625 50.6875 5.359375 
Q 44.046875 -1.421875 33.015625 -1.421875 
Q 20.359375 -1.421875 13.671875 8.265625 
Q 6.984375 17.96875 6.984375 36.375 
Q 6.984375 53.65625 15.1875 63.9375 
Q 23.390625 74.21875 37.203125 74.21875 
Q 40.921875 74.21875 44.703125 73.484375 
Q 48.484375 72.75 52.59375 71.296875 
z
" id="DejaVuSans-54"/>
       </defs>
       <use xlink:href="#DejaVuSans-48"/>
       <use x="63.623047" xlink:href="#DejaVuSans-46"/>
       <use x="95.410156" xlink:href="#DejaVuSans-54"/>
      </g>
     </g>
    </g>
    <g id="ytick_5">
     <g id="line2d_11">
      <g>
       <use style="stroke:#000000;stroke-width:0.8;" x="54" xlink:href="#mca7cc8cf43" y="78.048"/>
      </g>
     </g>
     <g id="text_12">
      <!-- 0.8 -->
      <g transform="translate(31.096875 81.847219)scale(0.1 -0.1)">
       <defs>
        <path d="M 31.78125 34.625 
Q 24.75 34.625 20.71875 30.859375 
Q 16.703125 27.09375 16.703125 20.515625 
Q 16.703125 13.921875 20.71875 10.15625 
Q 24.75 6.390625 31.78125 6.390625 
Q 38.8125 6.390625 42.859375 10.171875 
Q 46.921875 13.96875 46.921875 20.515625 
Q 46.921875 27.09375 42.890625 30.859375 
Q 38.875 34.625 31.78125 34.625 
z
M 21.921875 38.8125 
Q 15.578125 40.375 12.03125 44.71875 
Q 8.5 49.078125 8.5 55.328125 
Q 8.5 64.0625 14.71875 69.140625 
Q 20.953125 74.21875 31.78125 74.21875 
Q 42.671875 74.21875 48.875 69.140625 
Q 55.078125 64.0625 55.078125 55.328125 
Q 55.078125 49.078125 51.53125 44.71875 
Q 48 40.375 41.703125 38.8125 
Q 48.828125 37.15625 52.796875 32.3125 
Q 56.78125 27.484375 56.78125 20.515625 
Q 56.78125 9.90625 50.3125 4.234375 
Q 43.84375 -1.421875 31.78125 -1.421875 
Q 19.734375 -1.421875 13.25 4.234375 
Q 6.78125 9.90625 6.78125 20.515625 
Q 6.78125 27.484375 10.78125 32.3125 
Q 14.796875 37.15625 21.921875 38.8125 
z
M 18.3125 54.390625 
Q 18.3125 48.734375 21.84375 45.5625 
Q 25.390625 42.390625 31.78125 42.390625 
Q 38.140625 42.390625 41.71875 45.5625 
Q 45.3125 48.734375 45.3125 54.390625 
Q 45.3125 60.0625 41.71875 63.234375 
Q 38.140625 66.40625 31.78125 66.40625 
Q 25.390625 66.40625 21.84375 63.234375 
Q 18.3125 60.0625 18.3125 54.390625 
z
" id="DejaVuSans-56"/>
       </defs>
       <use xlink:href="#DejaVuSans-48"/>
       <use x="63.623047" xlink:href="#DejaVuSans-46"/>
       <use x="95.410156" xlink:href="#DejaVuSans-56"/>
      </g>
     </g>
    </g>
    <g id="ytick_6">
     <g id="line2d_12">
      <g>
       <use style="stroke:#000000;stroke-width:0.8;" x="54" xlink:href="#mca7cc8cf43" y="34.56"/>
      </g>
     </g>
     <g id="text_13">
      <!-- 1.0 -->
      <g transform="translate(31.096875 38.359219)scale(0.1 -0.1)">
       <use xlink:href="#DejaVuSans-49"/>
       <use x="63.623047" xlink:href="#DejaVuSans-46"/>
       <use x="95.410156" xlink:href="#DejaVuSans-48"/>
      </g>
     </g>
    </g>
    <g id="text_14">
     <!-- Accuracy -->
     <g transform="translate(25.017187 166.108125)rotate(-90)scale(0.1 -0.1)">
      <defs>
       <path d="M 34.1875 63.1875 
L 20.796875 26.90625 
L 47.609375 26.90625 
z
M 28.609375 72.90625 
L 39.796875 72.90625 
L 67.578125 0 
L 57.328125 0 
L 50.6875 18.703125 
L 17.828125 18.703125 
L 11.1875 0 
L 0.78125 0 
z
" id="DejaVuSans-65"/>
       <path d="M 8.5 21.578125 
L 8.5 54.6875 
L 17.484375 54.6875 
L 17.484375 21.921875 
Q 17.484375 14.15625 20.5 10.265625 
Q 23.53125 6.390625 29.59375 6.390625 
Q 36.859375 6.390625 41.078125 11.03125 
Q 45.3125 15.671875 45.3125 23.6875 
L 45.3125 54.6875 
L 54.296875 54.6875 
L 54.296875 0 
L 45.3125 0 
L 45.3125 8.40625 
Q 42.046875 3.421875 37.71875 1 
Q 33.40625 -1.421875 27.6875 -1.421875 
Q 18.265625 -1.421875 13.375 4.4375 
Q 8.5 10.296875 8.5 21.578125 
z
M 31.109375 56 
z
" id="DejaVuSans-117"/>
       <path d="M 41.109375 46.296875 
Q 39.59375 47.171875 37.8125 47.578125 
Q 36.03125 48 33.890625 48 
Q 26.265625 48 22.1875 43.046875 
Q 18.109375 38.09375 18.109375 28.8125 
L 18.109375 0 
L 9.078125 0 
L 9.078125 54.6875 
L 18.109375 54.6875 
L 18.109375 46.1875 
Q 20.953125 51.171875 25.484375 53.578125 
Q 30.03125 56 36.53125 56 
Q 37.453125 56 38.578125 55.875 
Q 39.703125 55.765625 41.0625 55.515625 
z
" id="DejaVuSans-114"/>
       <path d="M 32.171875 -5.078125 
Q 28.375 -14.84375 24.75 -17.8125 
Q 21.140625 -20.796875 15.09375 -20.796875 
L 7.90625 -20.796875 
L 7.90625 -13.28125 
L 13.1875 -13.28125 
Q 16.890625 -13.28125 18.9375 -11.515625 
Q 21 -9.765625 23.484375 -3.21875 
L 25.09375 0.875 
L 2.984375 54.6875 
L 12.5 54.6875 
L 29.59375 11.921875 
L 46.6875 54.6875 
L 56.203125 54.6875 
z
" id="DejaVuSans-121"/>
      </defs>
      <use xlink:href="#DejaVuSans-65"/>
      <use x="66.658203" xlink:href="#DejaVuSans-99"/>
      <use x="121.638672" xlink:href="#DejaVuSans-99"/>
      <use x="176.619141" xlink:href="#DejaVuSans-117"/>
      <use x="239.998047" xlink:href="#DejaVuSans-114"/>
      <use x="281.111328" xlink:href="#DejaVuSans-97"/>
      <use x="342.390625" xlink:href="#DejaVuSans-99"/>
      <use x="397.371094" xlink:href="#DejaVuSans-121"/>
     </g>
    </g>
   </g>
   <g id="line2d_13">
    <path clip-path="url(#p53e3dac2c2)" d="M 54.3348 35.908128 
L 56.6784 36.277776 
L 59.3568 36.560448 
L 60.3612 36.647424 
L 64.044 36.995328 
L 68.0616 37.408464 
L 69.066 37.517184 
L 76.0968 38.343456 
L 77.1012 38.408688 
L 80.784 39.01752 
L 82.1232 39.213216 
L 82.7928 39.408912 
L 84.4668 39.713328 
L 84.8016 39.865536 
L 85.4712 39.974256 
L 88.4844 40.64832 
L 89.8236 40.97448 
L 91.4976 41.365872 
L 92.1672 41.6268 
L 94.176 41.95296 
L 94.8456 42.105168 
L 96.5196 42.344352 
L 96.8544 42.60528 
L 97.524 42.692256 
L 98.1936 42.953184 
L 102.546 44.192592 
L 104.5548 44.8884 
L 105.2244 45.127584 
L 108.5724 46.323504 
L 109.5768 46.84536 
L 110.916 47.584656 
L 112.2552 48.280464 
L 112.9248 48.671856 
L 113.5944 48.91104 
L 114.264 49.258944 
L 114.9336 49.56336 
L 116.6076 50.346144 
L 117.2772 50.737536 
L 118.2816 51.237648 
L 118.9512 51.650784 
L 121.9644 53.47728 
L 122.9688 53.846928 
L 125.6472 55.695168 
L 126.3168 56.021328 
L 128.6604 57.869568 
L 130.6692 59.34816 
L 131.3388 60.130944 
L 135.3564 63.305568 
L 136.026 64.02312 
L 137.0304 64.936368 
L 139.0392 67.002048 
L 139.374 67.176 
L 142.3872 70.11144 
L 143.0568 70.959456 
L 143.7264 71.807472 
L 144.396 72.307584 
L 144.7308 72.82944 
L 145.7352 73.655712 
L 146.4048 74.481984 
L 147.0744 75.199536 
L 147.744 75.895344 
L 148.4136 76.786848 
L 148.7484 77.113008 
L 149.418 78.048 
L 149.7528 78.330672 
L 150.4224 79.156944 
L 150.7572 79.548336 
L 152.4312 82.157616 
L 153.7704 83.984112 
L 155.4444 86.593392 
L 156.114 87.310944 
L 158.4576 90.616032 
L 158.7924 91.42056 
L 159.7968 92.659968 
L 160.8012 94.334256 
L 163.1448 98.030736 
L 163.8144 98.857008 
L 165.4884 101.444544 
L 166.158 102.879648 
L 166.4928 103.444992 
L 167.1624 104.923584 
L 168.8364 107.72856 
L 169.506 109.0332 
L 170.5104 110.750976 
L 171.8496 112.990608 
L 172.854 114.512688 
L 176.202 120.818448 
L 176.5368 121.42728 
L 176.8716 121.75344 
L 179.2152 125.645616 
L 179.55 126.493632 
L 180.2196 127.62432 
L 183.9024 133.93008 
L 185.5764 136.256688 
L 186.246 137.387376 
L 186.5808 138.27888 
L 187.92 140.257584 
L 188.5896 141.32304 
L 188.9244 141.692688 
L 189.9288 143.127792 
L 197.6292 154.978272 
L 203.3208 162.566928 
L 204.9948 164.523888 
L 205.6644 165.654576 
L 206.6688 166.937472 
L 207.3384 167.785488 
L 207.6732 168.372576 
L 208.6776 169.26408 
L 209.0124 169.851168 
L 209.682 170.394768 
L 210.6864 171.373248 
L 211.6908 172.264752 
L 212.6952 173.330208 
L 213.03 173.873808 
L 213.6996 174.395664 
L 214.0344 174.895776 
L 214.3692 175.13496 
L 215.7084 176.961456 
L 217.3824 179.114112 
L 218.3868 180.070848 
L 219.0564 180.657936 
L 219.726 181.353744 
L 224.0784 185.398128 
L 224.748 186.093936 
L 226.422 187.398576 
L 227.0916 188.203104 
L 228.7656 189.81216 
L 229.1004 190.007856 
L 230.1048 190.877616 
L 233.118 193.117248 
L 234.1224 193.878288 
L 234.4572 194.182704 
L 234.792 194.748048 
L 236.1312 195.965712 
L 236.466 196.313616 
L 237.8052 196.944192 
L 238.4748 197.466048 
L 239.4792 197.922672 
L 239.814 198.031392 
L 240.1488 198.379296 
L 243.8316 200.401488 
L 244.836 201.097296 
L 245.1708 201.162528 
L 246.1752 201.727872 
L 247.8492 202.380192 
L 248.5188 202.64112 
L 250.1928 203.641344 
L 250.5276 203.72832 
L 251.1972 204.032736 
L 253.206 204.728544 
L 253.8756 204.967728 
L 254.88 205.315632 
L 256.2192 205.707024 
L 257.8932 206.489808 
L 260.5716 207.20736 
L 260.9064 207.446544 
L 261.9108 207.75096 
L 266.9328 209.316528 
L 268.272 209.555712 
L 270.6156 210.25152 
L 273.294 210.708144 
L 273.9636 210.860352 
L 274.968 211.077792 
L 275.6376 211.295232 
L 276.3072 211.425696 
L 276.9768 211.55616 
L 280.9944 212.230224 
L 284.0076 212.686848 
L 284.6772 212.795568 
L 285.6816 212.882544 
L 288.0252 213.273936 
L 290.3688 213.774048 
L 291.3732 213.882768 
L 292.7124 214.121952 
L 296.73 214.469856 
L 300.078 215.013456 
L 301.0824 215.100432 
L 302.0868 215.274384 
L 305.7696 215.665776 
L 307.1088 215.774496 
L 309.4524 216.035424 
L 311.4612 216.33984 
L 318.492 216.905184 
L 320.5008 217.187856 
L 321.5052 217.274832 
L 327.1968 217.905408 
L 334.5624 218.492496 
L 342.2628 219.384 
L 352.6416 220.123296 
L 353.3112 220.275504 
L 370.386 221.493168 
L 374.7384 221.971536 
L 376.7472 222.080256 
L 379.4256 222.31944 
L 385.1172 222.797808 
L 386.7912 223.015248 
L 388.8 223.08048 
L 388.8 223.08048 
" style="fill:none;stroke:#1f77b4;stroke-linecap:square;stroke-width:1.5;"/>
   </g>
   <g id="line2d_14">
    <path clip-path="url(#p53e3dac2c2)" d="M 54.3348 35.97336 
L 55.3392 36.060336 
L 56.0088 36.212544 
L 56.6784 36.277776 
L 62.37 37.321488 
L 63.3744 37.430208 
L 65.3832 37.60416 
L 66.7224 37.691136 
L 67.7268 37.952064 
L 72.7488 38.713104 
L 76.4316 39.34368 
L 77.1012 39.387168 
L 77.7708 39.604608 
L 80.1144 40.017744 
L 80.784 40.256928 
L 81.4536 40.343904 
L 82.7928 40.626576 
L 84.132 41.0832 
L 85.806 41.6268 
L 86.1408 41.670288 
L 86.8104 42.105168 
L 89.154 42.800976 
L 89.8236 43.04016 
L 90.828 43.388064 
L 92.1672 44.083872 
L 92.502 44.279568 
L 93.5064 44.583984 
L 94.176 44.931888 
L 94.8456 45.127584 
L 95.85 45.86688 
L 96.5196 46.019088 
L 98.1936 47.128032 
L 98.8632 47.49768 
L 100.2024 48.389184 
L 100.5372 48.519648 
L 104.8896 51.802992 
L 105.2244 51.976944 
L 106.2288 52.93368 
L 107.2332 53.80344 
L 107.9028 54.325296 
L 108.2376 54.89064 
L 110.916 57.021552 
L 111.9204 58.04352 
L 112.59 58.500144 
L 113.2596 59.326416 
L 115.2684 61.435584 
L 115.6032 62.06616 
L 115.938 62.370576 
L 116.6076 63.3708 
L 117.2772 64.762416 
L 119.6208 68.502384 
L 120.2904 69.437376 
L 121.2948 70.915968 
L 121.9644 72.111888 
L 122.634 73.612224 
L 123.6384 75.373488 
L 123.9732 76.221504 
L 124.6428 77.5044 
L 128.6604 84.46248 
L 129.33 85.98456 
L 129.6648 86.549904 
L 130.3344 87.963264 
L 130.6692 88.528608 
L 131.004 89.854992 
L 133.0128 93.529728 
L 133.6824 94.616928 
L 134.352 95.856336 
L 135.6912 98.248176 
L 136.3608 99.57456 
L 138.0348 102.792672 
L 138.7044 104.423472 
L 139.7088 106.184736 
L 140.3784 107.663328 
L 141.048 108.70704 
L 141.7176 109.859472 
L 144.0612 114.14304 
L 144.396 114.599664 
L 144.7308 115.599888 
L 145.4004 116.708832 
L 146.4048 118.948464 
L 147.744 121.31856 
L 148.4136 122.492736 
L 149.0832 123.514704 
L 150.0876 124.971552 
L 150.4224 125.384688 
L 151.7616 127.798272 
L 152.0964 128.080944 
L 152.4312 128.776752 
L 153.4356 130.211856 
L 153.7704 130.88592 
L 154.44 131.820912 
L 155.1096 132.995088 
L 155.4444 133.734384 
L 156.4488 135.212976 
L 157.4532 136.7568 
L 158.7924 139.213872 
L 159.7968 141.018624 
L 160.1316 141.344784 
L 161.136 142.779888 
L 161.4708 143.106048 
L 162.81 144.997776 
L 163.4796 145.693584 
L 167.1624 150.803424 
L 169.1712 153.238752 
L 169.8408 154.130256 
L 170.1756 154.282464 
L 170.8452 155.108736 
L 171.18 155.45664 
L 171.5148 156.021984 
L 171.8496 156.21768 
L 172.1844 156.54384 
L 173.1888 158.218128 
L 174.8628 159.979392 
L 176.202 161.305776 
L 177.876 163.06704 
L 178.2108 163.523664 
L 178.8804 163.9368 
L 180.8892 166.045968 
L 181.224 166.306896 
L 182.2284 167.52456 
L 184.9068 170.155584 
L 186.246 171.155808 
L 186.5808 171.394992 
L 187.5852 172.482192 
L 188.2548 172.938816 
L 188.9244 173.525904 
L 191.9376 175.961232 
L 192.2724 176.156928 
L 193.9464 177.765984 
L 194.616 178.048656 
L 194.9508 178.244352 
L 195.6204 178.787952 
L 196.29 179.331552 
L 196.6248 179.766432 
L 197.2944 180.049104 
L 197.6292 180.331776 
L 198.6336 180.831888 
L 200.3076 181.571184 
L 200.9772 182.31048 
L 203.3208 183.158496 
L 204.66 183.94128 
L 207.0036 184.724064 
L 208.008 185.311152 
L 209.0124 185.6808 
L 210.0168 186.289632 
L 211.356 186.87672 
L 211.6908 186.920208 
L 212.6952 187.550784 
L 214.704 188.420544 
L 215.7084 188.659728 
L 219.0564 189.855648 
L 220.0608 190.225296 
L 221.0652 190.46448 
L 221.7348 190.834128 
L 222.7392 191.1168 
L 223.4088 191.44296 
L 224.748 191.703888 
L 226.0872 192.051792 
L 227.4264 192.356208 
L 229.4352 193.18248 
L 236.8008 195.13944 
L 237.8052 195.552576 
L 238.8096 195.79176 
L 241.1532 196.183152 
L 243.4968 196.683264 
L 255.8844 198.988128 
L 256.8888 199.227312 
L 257.8932 199.37952 
L 260.2368 199.792656 
L 261.576 200.03184 
L 265.2588 200.358 
L 265.9284 200.488464 
L 266.598 200.553696 
L 268.6068 200.836368 
L 269.946 201.097296 
L 270.9504 201.314736 
L 271.9548 201.423456 
L 273.294 201.532176 
L 284.0076 202.815072 
L 287.0208 203.097744 
L 288.0252 203.249952 
L 291.0384 203.554368 
L 292.3776 203.641344 
L 293.7168 203.706576 
L 294.7212 203.858784 
L 302.4216 204.750288 
L 303.426 204.81552 
L 304.0956 204.92424 
L 305.1 205.011216 
L 308.1132 205.293888 
L 308.7828 205.380864 
L 310.4568 205.68528 
L 311.1264 205.794 
L 312.1308 205.90272 
L 313.47 206.076672 
L 319.4964 206.576784 
L 320.5008 206.728992 
L 325.188 207.250848 
L 327.5316 207.359568 
L 334.5624 207.924912 
L 336.2364 208.18584 
L 337.2408 208.272816 
L 342.5976 208.859904 
L 344.6064 209.099088 
L 346.6152 209.251296 
L 347.6196 209.403504 
L 350.9676 209.968848 
L 351.972 210.012336 
L 353.3112 210.25152 
L 354.6504 210.447216 
L 358.3332 210.838608 
L 359.3376 210.90384 
L 362.016 211.316976 
L 366.7032 211.838832 
L 368.0424 211.947552 
L 368.712 212.09976 
L 372.3948 212.42592 
L 376.7472 213.165216 
L 377.7516 213.273936 
L 378.756 213.491376 
L 380.7648 213.665328 
L 381.4344 213.73056 
L 381.7692 213.861024 
L 383.1084 213.969744 
L 384.4476 214.05672 
L 385.452 214.143696 
L 386.4564 214.230672 
L 388.8 214.535088 
L 388.8 214.535088 
" style="fill:none;stroke:#ff7f0e;stroke-linecap:square;stroke-width:1.5;"/>
   </g>
   <g id="line2d_15">
    <path clip-path="url(#p53e3dac2c2)" d="M 54.3348 37.06056 
L 58.0176 37.451952 
L 59.022 37.560672 
L 60.696 37.8216 
L 61.3656 38.017296 
L 66.3876 39.039264 
L 66.7224 39.191472 
L 67.7268 39.278448 
L 68.3964 39.474144 
L 73.4184 40.561344 
L 73.7532 40.800528 
L 74.4228 41.017968 
L 77.1012 41.779008 
L 79.4448 42.344352 
L 81.4536 43.083648 
L 82.458 43.562016 
L 83.4624 43.822944 
L 88.1496 45.736416 
L 90.1584 46.758384 
L 90.828 46.975824 
L 91.4976 47.345472 
L 92.502 47.845584 
L 93.1716 48.171744 
L 93.8412 48.650112 
L 94.176 48.845808 
L 94.5108 49.215456 
L 95.1804 49.715568 
L 97.1892 51.324624 
L 100.2024 53.36856 
L 103.5504 56.260512 
L 104.22 56.912832 
L 104.5548 57.021552 
L 104.8896 57.478176 
L 105.5592 57.9348 
L 106.2288 58.891536 
L 106.8984 59.761296 
L 107.568 60.370128 
L 108.2376 61.065936 
L 108.5724 61.283376 
L 110.5812 63.69696 
L 111.2508 64.544976 
L 111.5856 64.697184 
L 113.9292 67.676112 
L 114.5988 68.719824 
L 115.2684 69.328656 
L 116.2728 70.676784 
L 118.2816 74.047104 
L 121.6296 79.156944 
L 122.2992 80.352864 
L 122.634 80.744256 
L 123.3036 81.918432 
L 123.6384 82.462032 
L 124.308 83.81016 
L 128.9952 92.116368 
L 129.6648 93.573216 
L 130.3344 94.551696 
L 130.6692 95.247504 
L 131.004 96.399936 
L 131.3388 96.900048 
L 132.0084 98.335152 
L 133.0128 100.313856 
L 135.0216 104.836608 
L 135.3564 105.271488 
L 136.026 106.793568 
L 137.0304 108.81576 
L 138.3696 112.012128 
L 139.0392 113.099328 
L 140.0436 115.056288 
L 140.7132 116.578368 
L 141.7176 118.92672 
L 142.3872 120.23136 
L 143.0568 121.796928 
L 143.7264 123.232032 
L 145.4004 127.62432 
L 147.0744 131.364288 
L 148.4136 134.538912 
L 149.7528 137.278656 
L 151.4268 140.735952 
L 152.0964 142.779888 
L 156.114 151.847136 
L 157.1184 154.217232 
L 157.4532 154.847808 
L 160.4664 162.436464 
L 165.4884 173.460672 
L 165.8232 174.634848 
L 167.4972 178.266096 
L 168.8364 181.00584 
L 169.506 182.593152 
L 169.8408 183.354192 
L 170.5104 185.1372 
L 171.5148 187.442064 
L 172.1844 189.203328 
L 172.5192 190.13832 
L 172.854 191.44296 
L 173.8584 193.50864 
L 177.2064 199.662192 
L 178.5456 202.793328 
L 178.8804 203.18472 
L 183.2328 211.251744 
L 183.5676 211.947552 
L 183.9024 212.3172 
L 184.572 213.382656 
L 184.9068 213.62184 
L 186.246 215.622288 
L 186.9156 216.88344 
L 187.92 218.014128 
L 190.5984 221.841072 
L 191.268 222.580368 
L 191.6028 222.86304 
L 191.9376 223.537104 
L 192.6072 224.211168 
L 195.6204 227.624976 
L 199.638 231.190992 
L 200.3076 231.517152 
L 200.9772 232.386912 
L 202.3164 233.387136 
L 203.3208 234.322128 
L 208.3428 238.127328 
L 209.3472 238.496976 
L 210.3516 239.018832 
L 212.3604 240.236496 
L 216.7128 242.10648 
L 218.3868 242.845776 
L 219.0564 243.19368 
L 219.3912 243.237168 
L 220.0608 243.650304 
L 221.7348 244.237392 
L 224.0784 244.759248 
L 225.4176 245.172384 
L 227.0916 245.4768 
L 227.7612 245.69424 
L 229.4352 245.889936 
L 236.8008 247.716432 
L 238.4748 247.912128 
L 239.1444 248.020848 
L 243.8316 248.716656 
L 244.5012 248.84712 
L 246.51 248.934096 
L 247.1796 249.021072 
L 249.5232 249.282 
L 251.1972 249.49944 
L 252.8712 249.629904 
L 253.5408 249.71688 
L 257.2236 250.108272 
L 261.9108 250.216992 
L 266.2632 250.390944 
L 268.6068 250.499664 
L 271.62 250.58664 
L 275.3028 250.69536 
L 279.6552 250.869312 
L 284.3424 250.978032 
L 287.3556 251.065008 
L 295.3908 251.173728 
L 298.7388 251.282448 
L 304.7652 251.391168 
L 307.4436 251.4564 
L 325.8576 251.56512 
L 328.2012 251.608608 
L 341.5932 251.717328 
L 343.602 251.739072 
L 382.4388 251.847792 
L 384.4476 251.869536 
L 388.8 251.869536 
L 388.8 251.869536 
" style="fill:none;stroke:#2ca02c;stroke-linecap:square;stroke-width:1.5;"/>
   </g>
   <g id="patch_3">
    <path d="M 54 252 
L 54 34.56 
" style="fill:none;stroke:#000000;stroke-linecap:square;stroke-linejoin:miter;stroke-width:0.8;"/>
   </g>
   <g id="patch_4">
    <path d="M 388.8 252 
L 388.8 34.56 
" style="fill:none;stroke:#000000;stroke-linecap:square;stroke-linejoin:miter;stroke-width:0.8;"/>
   </g>
   <g id="patch_5">
    <path d="M 54 252 
L 388.8 252 
" style="fill:none;stroke:#000000;stroke-linecap:square;stroke-linejoin:miter;stroke-width:0.8;"/>
   </g>
   <g id="patch_6">
    <path d="M 54 34.56 
L 388.8 34.56 
" style="fill:none;stroke:#000000;stroke-linecap:square;stroke-linejoin:miter;stroke-width:0.8;"/>
   </g>
   <g id="text_15">
    <!-- FGSM -->
    <g transform="translate(204.314063 28.56)scale(0.12 -0.12)">
     <defs>
      <path d="M 9.8125 72.90625 
L 51.703125 72.90625 
L 51.703125 64.59375 
L 19.671875 64.59375 
L 19.671875 43.109375 
L 48.578125 43.109375 
L 48.578125 34.8125 
L 19.671875 34.8125 
L 19.671875 0 
L 9.8125 0 
z
" id="DejaVuSans-70"/>
      <path d="M 59.515625 10.40625 
L 59.515625 29.984375 
L 43.40625 29.984375 
L 43.40625 38.09375 
L 69.28125 38.09375 
L 69.28125 6.78125 
Q 63.578125 2.734375 56.6875 0.65625 
Q 49.8125 -1.421875 42 -1.421875 
Q 24.90625 -1.421875 15.25 8.5625 
Q 5.609375 18.5625 5.609375 36.375 
Q 5.609375 54.25 15.25 64.234375 
Q 24.90625 74.21875 42 74.21875 
Q 49.125 74.21875 55.546875 72.453125 
Q 61.96875 70.703125 67.390625 67.28125 
L 67.390625 56.78125 
Q 61.921875 61.421875 55.765625 63.765625 
Q 49.609375 66.109375 42.828125 66.109375 
Q 29.4375 66.109375 22.71875 58.640625 
Q 16.015625 51.171875 16.015625 36.375 
Q 16.015625 21.625 22.71875 14.15625 
Q 29.4375 6.6875 42.828125 6.6875 
Q 48.046875 6.6875 52.140625 7.59375 
Q 56.25 8.5 59.515625 10.40625 
z
" id="DejaVuSans-71"/>
      <path d="M 53.515625 70.515625 
L 53.515625 60.890625 
Q 47.90625 63.578125 42.921875 64.890625 
Q 37.9375 66.21875 33.296875 66.21875 
Q 25.25 66.21875 20.875 63.09375 
Q 16.5 59.96875 16.5 54.203125 
Q 16.5 49.359375 19.40625 46.890625 
Q 22.3125 44.4375 30.421875 42.921875 
L 36.375 41.703125 
Q 47.40625 39.59375 52.65625 34.296875 
Q 57.90625 29 57.90625 20.125 
Q 57.90625 9.515625 50.796875 4.046875 
Q 43.703125 -1.421875 29.984375 -1.421875 
Q 24.8125 -1.421875 18.96875 -0.25 
Q 13.140625 0.921875 6.890625 3.21875 
L 6.890625 13.375 
Q 12.890625 10.015625 18.65625 8.296875 
Q 24.421875 6.59375 29.984375 6.59375 
Q 38.421875 6.59375 43.015625 9.90625 
Q 47.609375 13.234375 47.609375 19.390625 
Q 47.609375 24.75 44.3125 27.78125 
Q 41.015625 30.8125 33.5 32.328125 
L 27.484375 33.5 
Q 16.453125 35.6875 11.515625 40.375 
Q 6.59375 45.0625 6.59375 53.421875 
Q 6.59375 63.09375 13.40625 68.65625 
Q 20.21875 74.21875 32.171875 74.21875 
Q 37.3125 74.21875 42.625 73.28125 
Q 47.953125 72.359375 53.515625 70.515625 
z
" id="DejaVuSans-83"/>
      <path d="M 9.8125 72.90625 
L 24.515625 72.90625 
L 43.109375 23.296875 
L 61.8125 72.90625 
L 76.515625 72.90625 
L 76.515625 0 
L 66.890625 0 
L 66.890625 64.015625 
L 48.09375 14.015625 
L 38.1875 14.015625 
L 19.390625 64.015625 
L 19.390625 0 
L 9.8125 0 
z
" id="DejaVuSans-77"/>
     </defs>
     <use xlink:href="#DejaVuSans-70"/>
     <use x="57.519531" xlink:href="#DejaVuSans-71"/>
     <use x="135.009766" xlink:href="#DejaVuSans-83"/>
     <use x="198.486328" xlink:href="#DejaVuSans-77"/>
    </g>
   </g>
   <g id="legend_1">
    <g id="patch_7">
     <path d="M 276.603125 86.594375 
L 381.8 86.594375 
Q 383.8 86.594375 383.8 84.594375 
L 383.8 41.56 
Q 383.8 39.56 381.8 39.56 
L 276.603125 39.56 
Q 274.603125 39.56 274.603125 41.56 
L 274.603125 84.594375 
Q 274.603125 86.594375 276.603125 86.594375 
z
" style="fill:#ffffff;opacity:0.8;stroke:#cccccc;stroke-linejoin:miter;"/>
    </g>
    <g id="line2d_16">
     <path d="M 278.603125 47.658438 
L 298.603125 47.658438 
" style="fill:none;stroke:#1f77b4;stroke-linecap:square;stroke-width:1.5;"/>
    </g>
    <g id="line2d_17"/>
    <g id="text_16">
     <!-- c2  0.20/21% -->
     <g transform="translate(306.603125 51.158438)scale(0.1 -0.1)">
      <defs>
       <path id="DejaVuSans-32"/>
       <path d="M 25.390625 72.90625 
L 33.6875 72.90625 
L 8.296875 -9.28125 
L 0 -9.28125 
z
" id="DejaVuSans-47"/>
       <path d="M 72.703125 32.078125 
Q 68.453125 32.078125 66.03125 28.46875 
Q 63.625 24.859375 63.625 18.40625 
Q 63.625 12.0625 66.03125 8.421875 
Q 68.453125 4.78125 72.703125 4.78125 
Q 76.859375 4.78125 79.265625 8.421875 
Q 81.6875 12.0625 81.6875 18.40625 
Q 81.6875 24.8125 79.265625 28.4375 
Q 76.859375 32.078125 72.703125 32.078125 
z
M 72.703125 38.28125 
Q 80.421875 38.28125 84.953125 32.90625 
Q 89.5 27.546875 89.5 18.40625 
Q 89.5 9.28125 84.9375 3.921875 
Q 80.375 -1.421875 72.703125 -1.421875 
Q 64.890625 -1.421875 60.34375 3.921875 
Q 55.8125 9.28125 55.8125 18.40625 
Q 55.8125 27.59375 60.375 32.9375 
Q 64.9375 38.28125 72.703125 38.28125 
z
M 22.3125 68.015625 
Q 18.109375 68.015625 15.6875 64.375 
Q 13.28125 60.75 13.28125 54.390625 
Q 13.28125 47.953125 15.671875 44.328125 
Q 18.0625 40.71875 22.3125 40.71875 
Q 26.5625 40.71875 28.96875 44.328125 
Q 31.390625 47.953125 31.390625 54.390625 
Q 31.390625 60.6875 28.953125 64.34375 
Q 26.515625 68.015625 22.3125 68.015625 
z
M 66.40625 74.21875 
L 74.21875 74.21875 
L 28.609375 -1.421875 
L 20.796875 -1.421875 
z
M 22.3125 74.21875 
Q 30.03125 74.21875 34.609375 68.875 
Q 39.203125 63.53125 39.203125 54.390625 
Q 39.203125 45.171875 34.640625 39.84375 
Q 30.078125 34.515625 22.3125 34.515625 
Q 14.546875 34.515625 10.03125 39.859375 
Q 5.515625 45.21875 5.515625 54.390625 
Q 5.515625 63.484375 10.046875 68.84375 
Q 14.59375 74.21875 22.3125 74.21875 
z
" id="DejaVuSans-37"/>
      </defs>
      <use xlink:href="#DejaVuSans-99"/>
      <use x="54.980469" xlink:href="#DejaVuSans-50"/>
      <use x="118.603516" xlink:href="#DejaVuSans-32"/>
      <use x="150.390625" xlink:href="#DejaVuSans-32"/>
      <use x="182.177734" xlink:href="#DejaVuSans-48"/>
      <use x="245.800781" xlink:href="#DejaVuSans-46"/>
      <use x="277.587891" xlink:href="#DejaVuSans-50"/>
      <use x="341.210938" xlink:href="#DejaVuSans-48"/>
      <use x="404.833984" xlink:href="#DejaVuSans-47"/>
      <use x="438.525391" xlink:href="#DejaVuSans-50"/>
      <use x="502.148438" xlink:href="#DejaVuSans-49"/>
      <use x="565.771484" xlink:href="#DejaVuSans-37"/>
     </g>
    </g>
    <g id="line2d_18">
     <path d="M 278.603125 62.336563 
L 298.603125 62.336563 
" style="fill:none;stroke:#ff7f0e;stroke-linecap:square;stroke-width:1.5;"/>
    </g>
    <g id="line2d_19"/>
    <g id="text_17">
     <!-- c3  0.16/24% -->
     <g transform="translate(306.603125 65.836563)scale(0.1 -0.1)">
      <use xlink:href="#DejaVuSans-99"/>
      <use x="54.980469" xlink:href="#DejaVuSans-51"/>
      <use x="118.603516" xlink:href="#DejaVuSans-32"/>
      <use x="150.390625" xlink:href="#DejaVuSans-32"/>
      <use x="182.177734" xlink:href="#DejaVuSans-48"/>
      <use x="245.800781" xlink:href="#DejaVuSans-46"/>
      <use x="277.587891" xlink:href="#DejaVuSans-49"/>
      <use x="341.210938" xlink:href="#DejaVuSans-54"/>
      <use x="404.833984" xlink:href="#DejaVuSans-47"/>
      <use x="438.525391" xlink:href="#DejaVuSans-50"/>
      <use x="502.148438" xlink:href="#DejaVuSans-52"/>
      <use x="565.771484" xlink:href="#DejaVuSans-37"/>
     </g>
    </g>
    <g id="line2d_20">
     <path d="M 278.603125 77.014688 
L 298.603125 77.014688 
" style="fill:none;stroke:#2ca02c;stroke-linecap:square;stroke-width:1.5;"/>
    </g>
    <g id="line2d_21"/>
    <g id="text_18">
     <!-- lenet  0.15/1% -->
     <g transform="translate(306.603125 80.514688)scale(0.1 -0.1)">
      <use xlink:href="#DejaVuSans-108"/>
      <use x="27.783203" xlink:href="#DejaVuSans-101"/>
      <use x="89.306641" xlink:href="#DejaVuSans-110"/>
      <use x="152.685547" xlink:href="#DejaVuSans-101"/>
      <use x="214.208984" xlink:href="#DejaVuSans-116"/>
      <use x="253.417969" xlink:href="#DejaVuSans-32"/>
      <use x="285.205078" xlink:href="#DejaVuSans-32"/>
      <use x="316.992188" xlink:href="#DejaVuSans-48"/>
      <use x="380.615234" xlink:href="#DejaVuSans-46"/>
      <use x="412.402344" xlink:href="#DejaVuSans-49"/>
      <use x="476.025391" xlink:href="#DejaVuSans-53"/>
      <use x="539.648438" xlink:href="#DejaVuSans-47"/>
      <use x="573.339844" xlink:href="#DejaVuSans-49"/>
      <use x="636.962891" xlink:href="#DejaVuSans-37"/>
     </g>
    </g>
   </g>
  </g>
 </g>
 <defs>
  <clipPath id="p53e3dac2c2">
   <rect height="217.44" width="334.8" x="54" y="34.56"/>
  </clipPath>
 </defs>
</svg>
