<?xml version="1.0" encoding="utf-8" standalone="no"?>
<!DOCTYPE svg PUBLIC "-//W3C//DTD SVG 1.1//EN"
  "http://www.w3.org/Graphics/SVG/1.1/DTD/svg11.dtd">
<!-- Created with matplotlib (https://matplotlib.org/) -->
<svg height="288pt" version="1.1" viewBox="0 0 432 288" width="432pt" xmlns="http://www.w3.org/2000/svg" xmlns:xlink="http://www.w3.org/1999/xlink">
 <metadata>
  <rdf:RDF xmlns:cc="http://creativecommons.org/ns#" xmlns:dc="http://purl.org/dc/elements/1.1/" xmlns:rdf="http://www.w3.org/1999/02/22-rdf-syntax-ns#">
   <cc:Work>
    <dc:type rdf:resource="http://purl.org/dc/dcmitype/StillImage"/>
    <dc:date>2020-10-18T18:38:31.142551</dc:date>
    <dc:format>image/svg+xml</dc:format>
    <dc:creator>
     <cc:Agent>
      <dc:title>Matplotlib v3.3.2, https://matplotlib.org/</dc:title>
     </cc:Agent>
    </dc:creator>
   </cc:Work>
  </rdf:RDF>
 </metadata>
 <defs>
  <style type="text/css">*{stroke-linecap:butt;stroke-linejoin:round;}</style>
 </defs>
 <g id="figure_1">
  <g id="patch_1">
   <path d="M 0 288 
L 432 288 
L 432 0 
L 0 0 
z
" style="fill:#ffffff;"/>
  </g>
  <g id="axes_1">
   <g id="patch_2">
    <path d="M 54 252 
L 388.8 252 
L 388.8 34.56 
L 54 34.56 
z
" style="fill:#ffffff;"/>
   </g>
   <g id="matplotlib.axis_1">
    <g id="xtick_1">
     <g id="line2d_1">
      <defs>
       <path d="M 0 0 
L 0 3.5 
" id="m45d6d0bce9" style="stroke:#000000;stroke-width:0.8;"/>
      </defs>
      <g>
       <use style="stroke:#000000;stroke-width:0.8;" x="54" xlink:href="#m45d6d0bce9" y="252"/>
      </g>
     </g>
     <g id="text_1">
      <!-- 0.0 -->
      <g transform="translate(46.048437 266.598437)scale(0.1 -0.1)">
       <defs>
        <path d="M 31.78125 66.40625 
Q 24.171875 66.40625 20.328125 58.90625 
Q 16.5 51.421875 16.5 36.375 
Q 16.5 21.390625 20.328125 13.890625 
Q 24.171875 6.390625 31.78125 6.390625 
Q 39.453125 6.390625 43.28125 13.890625 
Q 47.125 21.390625 47.125 36.375 
Q 47.125 51.421875 43.28125 58.90625 
Q 39.453125 66.40625 31.78125 66.40625 
z
M 31.78125 74.21875 
Q 44.046875 74.21875 50.515625 64.515625 
Q 56.984375 54.828125 56.984375 36.375 
Q 56.984375 17.96875 50.515625 8.265625 
Q 44.046875 -1.421875 31.78125 -1.421875 
Q 19.53125 -1.421875 13.0625 8.265625 
Q 6.59375 17.96875 6.59375 36.375 
Q 6.59375 54.828125 13.0625 64.515625 
Q 19.53125 74.21875 31.78125 74.21875 
z
" id="DejaVuSans-48"/>
        <path d="M 10.6875 12.40625 
L 21 12.40625 
L 21 0 
L 10.6875 0 
z
" id="DejaVuSans-46"/>
       </defs>
       <use xlink:href="#DejaVuSans-48"/>
       <use x="63.623047" xlink:href="#DejaVuSans-46"/>
       <use x="95.410156" xlink:href="#DejaVuSans-48"/>
      </g>
     </g>
    </g>
    <g id="xtick_2">
     <g id="line2d_2">
      <g>
       <use style="stroke:#000000;stroke-width:0.8;" x="95.85" xlink:href="#m45d6d0bce9" y="252"/>
      </g>
     </g>
     <g id="text_2">
      <!-- 0.5 -->
      <g transform="translate(87.898438 266.598437)scale(0.1 -0.1)">
       <defs>
        <path d="M 10.796875 72.90625 
L 49.515625 72.90625 
L 49.515625 64.59375 
L 19.828125 64.59375 
L 19.828125 46.734375 
Q 21.96875 47.46875 24.109375 47.828125 
Q 26.265625 48.1875 28.421875 48.1875 
Q 40.625 48.1875 47.75 41.5 
Q 54.890625 34.8125 54.890625 23.390625 
Q 54.890625 11.625 47.5625 5.09375 
Q 40.234375 -1.421875 26.90625 -1.421875 
Q 22.3125 -1.421875 17.546875 -0.640625 
Q 12.796875 0.140625 7.71875 1.703125 
L 7.71875 11.625 
Q 12.109375 9.234375 16.796875 8.0625 
Q 21.484375 6.890625 26.703125 6.890625 
Q 35.15625 6.890625 40.078125 11.328125 
Q 45.015625 15.765625 45.015625 23.390625 
Q 45.015625 31 40.078125 35.4375 
Q 35.15625 39.890625 26.703125 39.890625 
Q 22.75 39.890625 18.8125 39.015625 
Q 14.890625 38.140625 10.796875 36.28125 
z
" id="DejaVuSans-53"/>
       </defs>
       <use xlink:href="#DejaVuSans-48"/>
       <use x="63.623047" xlink:href="#DejaVuSans-46"/>
       <use x="95.410156" xlink:href="#DejaVuSans-53"/>
      </g>
     </g>
    </g>
    <g id="xtick_3">
     <g id="line2d_3">
      <g>
       <use style="stroke:#000000;stroke-width:0.8;" x="137.7" xlink:href="#m45d6d0bce9" y="252"/>
      </g>
     </g>
     <g id="text_3">
      <!-- 1.0 -->
      <g transform="translate(129.748437 266.598437)scale(0.1 -0.1)">
       <defs>
        <path d="M 12.40625 8.296875 
L 28.515625 8.296875 
L 28.515625 63.921875 
L 10.984375 60.40625 
L 10.984375 69.390625 
L 28.421875 72.90625 
L 38.28125 72.90625 
L 38.28125 8.296875 
L 54.390625 8.296875 
L 54.390625 0 
L 12.40625 0 
z
" id="DejaVuSans-49"/>
       </defs>
       <use xlink:href="#DejaVuSans-49"/>
       <use x="63.623047" xlink:href="#DejaVuSans-46"/>
       <use x="95.410156" xlink:href="#DejaVuSans-48"/>
      </g>
     </g>
    </g>
    <g id="xtick_4">
     <g id="line2d_4">
      <g>
       <use style="stroke:#000000;stroke-width:0.8;" x="179.55" xlink:href="#m45d6d0bce9" y="252"/>
      </g>
     </g>
     <g id="text_4">
      <!-- 1.5 -->
      <g transform="translate(171.598438 266.598437)scale(0.1 -0.1)">
       <use xlink:href="#DejaVuSans-49"/>
       <use x="63.623047" xlink:href="#DejaVuSans-46"/>
       <use x="95.410156" xlink:href="#DejaVuSans-53"/>
      </g>
     </g>
    </g>
    <g id="xtick_5">
     <g id="line2d_5">
      <g>
       <use style="stroke:#000000;stroke-width:0.8;" x="221.4" xlink:href="#m45d6d0bce9" y="252"/>
      </g>
     </g>
     <g id="text_5">
      <!-- 2.0 -->
      <g transform="translate(213.448438 266.598437)scale(0.1 -0.1)">
       <defs>
        <path d="M 19.1875 8.296875 
L 53.609375 8.296875 
L 53.609375 0 
L 7.328125 0 
L 7.328125 8.296875 
Q 12.9375 14.109375 22.625 23.890625 
Q 32.328125 33.6875 34.8125 36.53125 
Q 39.546875 41.84375 41.421875 45.53125 
Q 43.3125 49.21875 43.3125 52.78125 
Q 43.3125 58.59375 39.234375 62.25 
Q 35.15625 65.921875 28.609375 65.921875 
Q 23.96875 65.921875 18.8125 64.3125 
Q 13.671875 62.703125 7.8125 59.421875 
L 7.8125 69.390625 
Q 13.765625 71.78125 18.9375 73 
Q 24.125 74.21875 28.421875 74.21875 
Q 39.75 74.21875 46.484375 68.546875 
Q 53.21875 62.890625 53.21875 53.421875 
Q 53.21875 48.921875 51.53125 44.890625 
Q 49.859375 40.875 45.40625 35.40625 
Q 44.1875 33.984375 37.640625 27.21875 
Q 31.109375 20.453125 19.1875 8.296875 
z
" id="DejaVuSans-50"/>
       </defs>
       <use xlink:href="#DejaVuSans-50"/>
       <use x="63.623047" xlink:href="#DejaVuSans-46"/>
       <use x="95.410156" xlink:href="#DejaVuSans-48"/>
      </g>
     </g>
    </g>
    <g id="xtick_6">
     <g id="line2d_6">
      <g>
       <use style="stroke:#000000;stroke-width:0.8;" x="263.25" xlink:href="#m45d6d0bce9" y="252"/>
      </g>
     </g>
     <g id="text_6">
      <!-- 2.5 -->
      <g transform="translate(255.298438 266.598437)scale(0.1 -0.1)">
       <use xlink:href="#DejaVuSans-50"/>
       <use x="63.623047" xlink:href="#DejaVuSans-46"/>
       <use x="95.410156" xlink:href="#DejaVuSans-53"/>
      </g>
     </g>
    </g>
    <g id="xtick_7">
     <g id="line2d_7">
      <g>
       <use style="stroke:#000000;stroke-width:0.8;" x="305.1" xlink:href="#m45d6d0bce9" y="252"/>
      </g>
     </g>
     <g id="text_7">
      <!-- 3.0 -->
      <g transform="translate(297.148438 266.598437)scale(0.1 -0.1)">
       <defs>
        <path d="M 40.578125 39.3125 
Q 47.65625 37.796875 51.625 33 
Q 55.609375 28.21875 55.609375 21.1875 
Q 55.609375 10.40625 48.1875 4.484375 
Q 40.765625 -1.421875 27.09375 -1.421875 
Q 22.515625 -1.421875 17.65625 -0.515625 
Q 12.796875 0.390625 7.625 2.203125 
L 7.625 11.71875 
Q 11.71875 9.328125 16.59375 8.109375 
Q 21.484375 6.890625 26.8125 6.890625 
Q 36.078125 6.890625 40.9375 10.546875 
Q 45.796875 14.203125 45.796875 21.1875 
Q 45.796875 27.640625 41.28125 31.265625 
Q 36.765625 34.90625 28.71875 34.90625 
L 20.21875 34.90625 
L 20.21875 43.015625 
L 29.109375 43.015625 
Q 36.375 43.015625 40.234375 45.921875 
Q 44.09375 48.828125 44.09375 54.296875 
Q 44.09375 59.90625 40.109375 62.90625 
Q 36.140625 65.921875 28.71875 65.921875 
Q 24.65625 65.921875 20.015625 65.03125 
Q 15.375 64.15625 9.8125 62.3125 
L 9.8125 71.09375 
Q 15.4375 72.65625 20.34375 73.4375 
Q 25.25 74.21875 29.59375 74.21875 
Q 40.828125 74.21875 47.359375 69.109375 
Q 53.90625 64.015625 53.90625 55.328125 
Q 53.90625 49.265625 50.4375 45.09375 
Q 46.96875 40.921875 40.578125 39.3125 
z
" id="DejaVuSans-51"/>
       </defs>
       <use xlink:href="#DejaVuSans-51"/>
       <use x="63.623047" xlink:href="#DejaVuSans-46"/>
       <use x="95.410156" xlink:href="#DejaVuSans-48"/>
      </g>
     </g>
    </g>
    <g id="xtick_8">
     <g id="line2d_8">
      <g>
       <use style="stroke:#000000;stroke-width:0.8;" x="346.95" xlink:href="#m45d6d0bce9" y="252"/>
      </g>
     </g>
     <g id="text_8">
      <!-- 3.5 -->
      <g transform="translate(338.998437 266.598437)scale(0.1 -0.1)">
       <use xlink:href="#DejaVuSans-51"/>
       <use x="63.623047" xlink:href="#DejaVuSans-46"/>
       <use x="95.410156" xlink:href="#DejaVuSans-53"/>
      </g>
     </g>
    </g>
    <g id="xtick_9">
     <g id="line2d_9">
      <g>
       <use style="stroke:#000000;stroke-width:0.8;" x="388.8" xlink:href="#m45d6d0bce9" y="252"/>
      </g>
     </g>
     <g id="text_9">
      <!-- 4.0 -->
      <g transform="translate(380.848437 266.598437)scale(0.1 -0.1)">
       <defs>
        <path d="M 37.796875 64.3125 
L 12.890625 25.390625 
L 37.796875 25.390625 
z
M 35.203125 72.90625 
L 47.609375 72.90625 
L 47.609375 25.390625 
L 58.015625 25.390625 
L 58.015625 17.1875 
L 47.609375 17.1875 
L 47.609375 0 
L 37.796875 0 
L 37.796875 17.1875 
L 4.890625 17.1875 
L 4.890625 26.703125 
z
" id="DejaVuSans-52"/>
       </defs>
       <use xlink:href="#DejaVuSans-52"/>
       <use x="63.623047" xlink:href="#DejaVuSans-46"/>
       <use x="95.410156" xlink:href="#DejaVuSans-48"/>
      </g>
     </g>
    </g>
    <g id="text_10">
     <!-- l2distance -->
     <g transform="translate(195.642969 280.276563)scale(0.1 -0.1)">
      <defs>
       <path d="M 9.421875 75.984375 
L 18.40625 75.984375 
L 18.40625 0 
L 9.421875 0 
z
" id="DejaVuSans-108"/>
       <path d="M 45.40625 46.390625 
L 45.40625 75.984375 
L 54.390625 75.984375 
L 54.390625 0 
L 45.40625 0 
L 45.40625 8.203125 
Q 42.578125 3.328125 38.25 0.953125 
Q 33.9375 -1.421875 27.875 -1.421875 
Q 17.96875 -1.421875 11.734375 6.484375 
Q 5.515625 14.40625 5.515625 27.296875 
Q 5.515625 40.1875 11.734375 48.09375 
Q 17.96875 56 27.875 56 
Q 33.9375 56 38.25 53.625 
Q 42.578125 51.265625 45.40625 46.390625 
z
M 14.796875 27.296875 
Q 14.796875 17.390625 18.875 11.75 
Q 22.953125 6.109375 30.078125 6.109375 
Q 37.203125 6.109375 41.296875 11.75 
Q 45.40625 17.390625 45.40625 27.296875 
Q 45.40625 37.203125 41.296875 42.84375 
Q 37.203125 48.484375 30.078125 48.484375 
Q 22.953125 48.484375 18.875 42.84375 
Q 14.796875 37.203125 14.796875 27.296875 
z
" id="DejaVuSans-100"/>
       <path d="M 9.421875 54.6875 
L 18.40625 54.6875 
L 18.40625 0 
L 9.421875 0 
z
M 9.421875 75.984375 
L 18.40625 75.984375 
L 18.40625 64.59375 
L 9.421875 64.59375 
z
" id="DejaVuSans-105"/>
       <path d="M 44.28125 53.078125 
L 44.28125 44.578125 
Q 40.484375 46.53125 36.375 47.5 
Q 32.28125 48.484375 27.875 48.484375 
Q 21.1875 48.484375 17.84375 46.4375 
Q 14.5 44.390625 14.5 40.28125 
Q 14.5 37.15625 16.890625 35.375 
Q 19.28125 33.59375 26.515625 31.984375 
L 29.59375 31.296875 
Q 39.15625 29.25 43.1875 25.515625 
Q 47.21875 21.78125 47.21875 15.09375 
Q 47.21875 7.46875 41.1875 3.015625 
Q 35.15625 -1.421875 24.609375 -1.421875 
Q 20.21875 -1.421875 15.453125 -0.5625 
Q 10.6875 0.296875 5.421875 2 
L 5.421875 11.28125 
Q 10.40625 8.6875 15.234375 7.390625 
Q 20.0625 6.109375 24.8125 6.109375 
Q 31.15625 6.109375 34.5625 8.28125 
Q 37.984375 10.453125 37.984375 14.40625 
Q 37.984375 18.0625 35.515625 20.015625 
Q 33.0625 21.96875 24.703125 23.78125 
L 21.578125 24.515625 
Q 13.234375 26.265625 9.515625 29.90625 
Q 5.8125 33.546875 5.8125 39.890625 
Q 5.8125 47.609375 11.28125 51.796875 
Q 16.75 56 26.8125 56 
Q 31.78125 56 36.171875 55.265625 
Q 40.578125 54.546875 44.28125 53.078125 
z
" id="DejaVuSans-115"/>
       <path d="M 18.3125 70.21875 
L 18.3125 54.6875 
L 36.8125 54.6875 
L 36.8125 47.703125 
L 18.3125 47.703125 
L 18.3125 18.015625 
Q 18.3125 11.328125 20.140625 9.421875 
Q 21.96875 7.515625 27.59375 7.515625 
L 36.8125 7.515625 
L 36.8125 0 
L 27.59375 0 
Q 17.1875 0 13.234375 3.875 
Q 9.28125 7.765625 9.28125 18.015625 
L 9.28125 47.703125 
L 2.6875 47.703125 
L 2.6875 54.6875 
L 9.28125 54.6875 
L 9.28125 70.21875 
z
" id="DejaVuSans-116"/>
       <path d="M 34.28125 27.484375 
Q 23.390625 27.484375 19.1875 25 
Q 14.984375 22.515625 14.984375 16.5 
Q 14.984375 11.71875 18.140625 8.90625 
Q 21.296875 6.109375 26.703125 6.109375 
Q 34.1875 6.109375 38.703125 11.40625 
Q 43.21875 16.703125 43.21875 25.484375 
L 43.21875 27.484375 
z
M 52.203125 31.203125 
L 52.203125 0 
L 43.21875 0 
L 43.21875 8.296875 
Q 40.140625 3.328125 35.546875 0.953125 
Q 30.953125 -1.421875 24.3125 -1.421875 
Q 15.921875 -1.421875 10.953125 3.296875 
Q 6 8.015625 6 15.921875 
Q 6 25.140625 12.171875 29.828125 
Q 18.359375 34.515625 30.609375 34.515625 
L 43.21875 34.515625 
L 43.21875 35.40625 
Q 43.21875 41.609375 39.140625 45 
Q 35.0625 48.390625 27.6875 48.390625 
Q 23 48.390625 18.546875 47.265625 
Q 14.109375 46.140625 10.015625 43.890625 
L 10.015625 52.203125 
Q 14.9375 54.109375 19.578125 55.046875 
Q 24.21875 56 28.609375 56 
Q 40.484375 56 46.34375 49.84375 
Q 52.203125 43.703125 52.203125 31.203125 
z
" id="DejaVuSans-97"/>
       <path d="M 54.890625 33.015625 
L 54.890625 0 
L 45.90625 0 
L 45.90625 32.71875 
Q 45.90625 40.484375 42.875 44.328125 
Q 39.84375 48.1875 33.796875 48.1875 
Q 26.515625 48.1875 22.3125 43.546875 
Q 18.109375 38.921875 18.109375 30.90625 
L 18.109375 0 
L 9.078125 0 
L 9.078125 54.6875 
L 18.109375 54.6875 
L 18.109375 46.1875 
Q 21.34375 51.125 25.703125 53.5625 
Q 30.078125 56 35.796875 56 
Q 45.21875 56 50.046875 50.171875 
Q 54.890625 44.34375 54.890625 33.015625 
z
" id="DejaVuSans-110"/>
       <path d="M 48.78125 52.59375 
L 48.78125 44.1875 
Q 44.96875 46.296875 41.140625 47.34375 
Q 37.3125 48.390625 33.40625 48.390625 
Q 24.65625 48.390625 19.8125 42.84375 
Q 14.984375 37.3125 14.984375 27.296875 
Q 14.984375 17.28125 19.8125 11.734375 
Q 24.65625 6.203125 33.40625 6.203125 
Q 37.3125 6.203125 41.140625 7.25 
Q 44.96875 8.296875 48.78125 10.40625 
L 48.78125 2.09375 
Q 45.015625 0.34375 40.984375 -0.53125 
Q 36.96875 -1.421875 32.421875 -1.421875 
Q 20.0625 -1.421875 12.78125 6.34375 
Q 5.515625 14.109375 5.515625 27.296875 
Q 5.515625 40.671875 12.859375 48.328125 
Q 20.21875 56 33.015625 56 
Q 37.15625 56 41.109375 55.140625 
Q 45.0625 54.296875 48.78125 52.59375 
z
" id="DejaVuSans-99"/>
       <path d="M 56.203125 29.59375 
L 56.203125 25.203125 
L 14.890625 25.203125 
Q 15.484375 15.921875 20.484375 11.0625 
Q 25.484375 6.203125 34.421875 6.203125 
Q 39.59375 6.203125 44.453125 7.46875 
Q 49.3125 8.734375 54.109375 11.28125 
L 54.109375 2.78125 
Q 49.265625 0.734375 44.1875 -0.34375 
Q 39.109375 -1.421875 33.890625 -1.421875 
Q 20.796875 -1.421875 13.15625 6.1875 
Q 5.515625 13.8125 5.515625 26.8125 
Q 5.515625 40.234375 12.765625 48.109375 
Q 20.015625 56 32.328125 56 
Q 43.359375 56 49.78125 48.890625 
Q 56.203125 41.796875 56.203125 29.59375 
z
M 47.21875 32.234375 
Q 47.125 39.59375 43.09375 43.984375 
Q 39.0625 48.390625 32.421875 48.390625 
Q 24.90625 48.390625 20.390625 44.140625 
Q 15.875 39.890625 15.1875 32.171875 
z
" id="DejaVuSans-101"/>
      </defs>
      <use xlink:href="#DejaVuSans-108"/>
      <use x="27.783203" xlink:href="#DejaVuSans-50"/>
      <use x="91.40625" xlink:href="#DejaVuSans-100"/>
      <use x="154.882812" xlink:href="#DejaVuSans-105"/>
      <use x="182.666016" xlink:href="#DejaVuSans-115"/>
      <use x="234.765625" xlink:href="#DejaVuSans-116"/>
      <use x="273.974609" xlink:href="#DejaVuSans-97"/>
      <use x="335.253906" xlink:href="#DejaVuSans-110"/>
      <use x="398.632812" xlink:href="#DejaVuSans-99"/>
      <use x="453.613281" xlink:href="#DejaVuSans-101"/>
     </g>
    </g>
   </g>
   <g id="matplotlib.axis_2">
    <g id="ytick_1">
     <g id="line2d_10">
      <defs>
       <path d="M 0 0 
L -3.5 0 
" id="mbad1ab56d0" style="stroke:#000000;stroke-width:0.8;"/>
      </defs>
      <g>
       <use style="stroke:#000000;stroke-width:0.8;" x="54" xlink:href="#mbad1ab56d0" y="252"/>
      </g>
     </g>
     <g id="text_11">
      <!-- 0.0 -->
      <g transform="translate(31.096875 255.799219)scale(0.1 -0.1)">
       <use xlink:href="#DejaVuSans-48"/>
       <use x="63.623047" xlink:href="#DejaVuSans-46"/>
       <use x="95.410156" xlink:href="#DejaVuSans-48"/>
      </g>
     </g>
    </g>
    <g id="ytick_2">
     <g id="line2d_11">
      <g>
       <use style="stroke:#000000;stroke-width:0.8;" x="54" xlink:href="#mbad1ab56d0" y="208.512"/>
      </g>
     </g>
     <g id="text_12">
      <!-- 0.2 -->
      <g transform="translate(31.096875 212.311219)scale(0.1 -0.1)">
       <use xlink:href="#DejaVuSans-48"/>
       <use x="63.623047" xlink:href="#DejaVuSans-46"/>
       <use x="95.410156" xlink:href="#DejaVuSans-50"/>
      </g>
     </g>
    </g>
    <g id="ytick_3">
     <g id="line2d_12">
      <g>
       <use style="stroke:#000000;stroke-width:0.8;" x="54" xlink:href="#mbad1ab56d0" y="165.024"/>
      </g>
     </g>
     <g id="text_13">
      <!-- 0.4 -->
      <g transform="translate(31.096875 168.823219)scale(0.1 -0.1)">
       <use xlink:href="#DejaVuSans-48"/>
       <use x="63.623047" xlink:href="#DejaVuSans-46"/>
       <use x="95.410156" xlink:href="#DejaVuSans-52"/>
      </g>
     </g>
    </g>
    <g id="ytick_4">
     <g id="line2d_13">
      <g>
       <use style="stroke:#000000;stroke-width:0.8;" x="54" xlink:href="#mbad1ab56d0" y="121.536"/>
      </g>
     </g>
     <g id="text_14">
      <!-- 0.6 -->
      <g transform="translate(31.096875 125.335219)scale(0.1 -0.1)">
       <defs>
        <path d="M 33.015625 40.375 
Q 26.375 40.375 22.484375 35.828125 
Q 18.609375 31.296875 18.609375 23.390625 
Q 18.609375 15.53125 22.484375 10.953125 
Q 26.375 6.390625 33.015625 6.390625 
Q 39.65625 6.390625 43.53125 10.953125 
Q 47.40625 15.53125 47.40625 23.390625 
Q 47.40625 31.296875 43.53125 35.828125 
Q 39.65625 40.375 33.015625 40.375 
z
M 52.59375 71.296875 
L 52.59375 62.3125 
Q 48.875 64.0625 45.09375 64.984375 
Q 41.3125 65.921875 37.59375 65.921875 
Q 27.828125 65.921875 22.671875 59.328125 
Q 17.53125 52.734375 16.796875 39.40625 
Q 19.671875 43.65625 24.015625 45.921875 
Q 28.375 48.1875 33.59375 48.1875 
Q 44.578125 48.1875 50.953125 41.515625 
Q 57.328125 34.859375 57.328125 23.390625 
Q 57.328125 12.15625 50.6875 5.359375 
Q 44.046875 -1.421875 33.015625 -1.421875 
Q 20.359375 -1.421875 13.671875 8.265625 
Q 6.984375 17.96875 6.984375 36.375 
Q 6.984375 53.65625 15.1875 63.9375 
Q 23.390625 74.21875 37.203125 74.21875 
Q 40.921875 74.21875 44.703125 73.484375 
Q 48.484375 72.75 52.59375 71.296875 
z
" id="DejaVuSans-54"/>
       </defs>
       <use xlink:href="#DejaVuSans-48"/>
       <use x="63.623047" xlink:href="#DejaVuSans-46"/>
       <use x="95.410156" xlink:href="#DejaVuSans-54"/>
      </g>
     </g>
    </g>
    <g id="ytick_5">
     <g id="line2d_14">
      <g>
       <use style="stroke:#000000;stroke-width:0.8;" x="54" xlink:href="#mbad1ab56d0" y="78.048"/>
      </g>
     </g>
     <g id="text_15">
      <!-- 0.8 -->
      <g transform="translate(31.096875 81.847219)scale(0.1 -0.1)">
       <defs>
        <path d="M 31.78125 34.625 
Q 24.75 34.625 20.71875 30.859375 
Q 16.703125 27.09375 16.703125 20.515625 
Q 16.703125 13.921875 20.71875 10.15625 
Q 24.75 6.390625 31.78125 6.390625 
Q 38.8125 6.390625 42.859375 10.171875 
Q 46.921875 13.96875 46.921875 20.515625 
Q 46.921875 27.09375 42.890625 30.859375 
Q 38.875 34.625 31.78125 34.625 
z
M 21.921875 38.8125 
Q 15.578125 40.375 12.03125 44.71875 
Q 8.5 49.078125 8.5 55.328125 
Q 8.5 64.0625 14.71875 69.140625 
Q 20.953125 74.21875 31.78125 74.21875 
Q 42.671875 74.21875 48.875 69.140625 
Q 55.078125 64.0625 55.078125 55.328125 
Q 55.078125 49.078125 51.53125 44.71875 
Q 48 40.375 41.703125 38.8125 
Q 48.828125 37.15625 52.796875 32.3125 
Q 56.78125 27.484375 56.78125 20.515625 
Q 56.78125 9.90625 50.3125 4.234375 
Q 43.84375 -1.421875 31.78125 -1.421875 
Q 19.734375 -1.421875 13.25 4.234375 
Q 6.78125 9.90625 6.78125 20.515625 
Q 6.78125 27.484375 10.78125 32.3125 
Q 14.796875 37.15625 21.921875 38.8125 
z
M 18.3125 54.390625 
Q 18.3125 48.734375 21.84375 45.5625 
Q 25.390625 42.390625 31.78125 42.390625 
Q 38.140625 42.390625 41.71875 45.5625 
Q 45.3125 48.734375 45.3125 54.390625 
Q 45.3125 60.0625 41.71875 63.234375 
Q 38.140625 66.40625 31.78125 66.40625 
Q 25.390625 66.40625 21.84375 63.234375 
Q 18.3125 60.0625 18.3125 54.390625 
z
" id="DejaVuSans-56"/>
       </defs>
       <use xlink:href="#DejaVuSans-48"/>
       <use x="63.623047" xlink:href="#DejaVuSans-46"/>
       <use x="95.410156" xlink:href="#DejaVuSans-56"/>
      </g>
     </g>
    </g>
    <g id="ytick_6">
     <g id="line2d_15">
      <g>
       <use style="stroke:#000000;stroke-width:0.8;" x="54" xlink:href="#mbad1ab56d0" y="34.56"/>
      </g>
     </g>
     <g id="text_16">
      <!-- 1.0 -->
      <g transform="translate(31.096875 38.359219)scale(0.1 -0.1)">
       <use xlink:href="#DejaVuSans-49"/>
       <use x="63.623047" xlink:href="#DejaVuSans-46"/>
       <use x="95.410156" xlink:href="#DejaVuSans-48"/>
      </g>
     </g>
    </g>
    <g id="text_17">
     <!-- Accuracy -->
     <g transform="translate(25.017187 166.108125)rotate(-90)scale(0.1 -0.1)">
      <defs>
       <path d="M 34.1875 63.1875 
L 20.796875 26.90625 
L 47.609375 26.90625 
z
M 28.609375 72.90625 
L 39.796875 72.90625 
L 67.578125 0 
L 57.328125 0 
L 50.6875 18.703125 
L 17.828125 18.703125 
L 11.1875 0 
L 0.78125 0 
z
" id="DejaVuSans-65"/>
       <path d="M 8.5 21.578125 
L 8.5 54.6875 
L 17.484375 54.6875 
L 17.484375 21.921875 
Q 17.484375 14.15625 20.5 10.265625 
Q 23.53125 6.390625 29.59375 6.390625 
Q 36.859375 6.390625 41.078125 11.03125 
Q 45.3125 15.671875 45.3125 23.6875 
L 45.3125 54.6875 
L 54.296875 54.6875 
L 54.296875 0 
L 45.3125 0 
L 45.3125 8.40625 
Q 42.046875 3.421875 37.71875 1 
Q 33.40625 -1.421875 27.6875 -1.421875 
Q 18.265625 -1.421875 13.375 4.4375 
Q 8.5 10.296875 8.5 21.578125 
z
M 31.109375 56 
z
" id="DejaVuSans-117"/>
       <path d="M 41.109375 46.296875 
Q 39.59375 47.171875 37.8125 47.578125 
Q 36.03125 48 33.890625 48 
Q 26.265625 48 22.1875 43.046875 
Q 18.109375 38.09375 18.109375 28.8125 
L 18.109375 0 
L 9.078125 0 
L 9.078125 54.6875 
L 18.109375 54.6875 
L 18.109375 46.1875 
Q 20.953125 51.171875 25.484375 53.578125 
Q 30.03125 56 36.53125 56 
Q 37.453125 56 38.578125 55.875 
Q 39.703125 55.765625 41.0625 55.515625 
z
" id="DejaVuSans-114"/>
       <path d="M 32.171875 -5.078125 
Q 28.375 -14.84375 24.75 -17.8125 
Q 21.140625 -20.796875 15.09375 -20.796875 
L 7.90625 -20.796875 
L 7.90625 -13.28125 
L 13.1875 -13.28125 
Q 16.890625 -13.28125 18.9375 -11.515625 
Q 21 -9.765625 23.484375 -3.21875 
L 25.09375 0.875 
L 2.984375 54.6875 
L 12.5 54.6875 
L 29.59375 11.921875 
L 46.6875 54.6875 
L 56.203125 54.6875 
z
" id="DejaVuSans-121"/>
      </defs>
      <use xlink:href="#DejaVuSans-65"/>
      <use x="66.658203" xlink:href="#DejaVuSans-99"/>
      <use x="121.638672" xlink:href="#DejaVuSans-99"/>
      <use x="176.619141" xlink:href="#DejaVuSans-117"/>
      <use x="239.998047" xlink:href="#DejaVuSans-114"/>
      <use x="281.111328" xlink:href="#DejaVuSans-97"/>
      <use x="342.390625" xlink:href="#DejaVuSans-99"/>
      <use x="397.371094" xlink:href="#DejaVuSans-121"/>
     </g>
    </g>
   </g>
   <g id="line2d_16">
    <path clip-path="url(#pceaac39584)" d="M 54.3348 35.951616 
L 55.3392 36.103824 
L 56.3436 36.1908 
L 61.3656 36.603936 
L 62.37 36.690912 
L 64.044 36.799632 
L 65.3832 36.908352 
L 69.7356 37.278 
L 70.74 37.364976 
L 72.7488 37.60416 
L 75.762 37.886832 
L 78.4404 38.169504 
L 80.1144 38.408688 
L 81.1188 38.517408 
L 82.7928 38.756592 
L 84.4668 38.974032 
L 90.4932 40.256928 
L 91.4976 40.43088 
L 92.1672 40.5396 
L 96.5196 41.496336 
L 97.524 41.670288 
L 98.8632 41.909472 
L 101.5416 42.670512 
L 103.2156 43.083648 
L 106.2288 44.410032 
L 107.2332 44.649216 
L 107.9028 44.8884 
L 108.9072 45.127584 
L 110.2464 45.627696 
L 111.2508 46.019088 
L 111.9204 46.41048 
L 112.59 46.693152 
L 113.5944 47.367216 
L 114.5988 47.845584 
L 115.2684 48.171744 
L 115.938 48.47616 
L 116.6076 48.758832 
L 116.9424 49.063248 
L 117.2772 49.150224 
L 117.9468 49.585104 
L 118.9512 49.954752 
L 121.2948 51.259392 
L 121.9644 51.672528 
L 122.9688 52.085664 
L 124.308 53.085888 
L 127.9908 55.347264 
L 129.33 55.97784 
L 131.004 57.217248 
L 132.3432 57.9348 
L 134.0172 59.435136 
L 134.6868 59.870016 
L 135.3564 60.609312 
L 137.7 62.979408 
L 138.0348 63.436032 
L 138.3696 63.609984 
L 140.3784 65.479968 
L 140.7132 65.893104 
L 141.7176 66.458448 
L 142.3872 67.110768 
L 143.0568 67.589136 
L 146.07 70.568064 
L 146.7396 71.394336 
L 149.418 73.938384 
L 150.0876 74.525472 
L 150.7572 75.177792 
L 152.0964 76.982544 
L 152.766 77.72184 
L 153.1008 77.961024 
L 154.1052 79.78752 
L 155.1096 81.244368 
L 157.4532 84.092832 
L 158.4576 85.832352 
L 158.7924 87.245712 
L 159.7968 88.767792 
L 160.1316 89.180928 
L 160.8012 89.746272 
L 161.136 90.072432 
L 161.4708 90.594288 
L 162.4752 91.464048 
L 163.1448 92.442528 
L 163.8144 93.007872 
L 164.484 94.203792 
L 165.1536 94.812624 
L 167.4972 98.617824 
L 168.1668 99.792 
L 168.8364 100.857456 
L 169.8408 102.61872 
L 171.8496 105.162768 
L 172.1844 105.706368 
L 172.5192 105.967296 
L 174.8628 109.424592 
L 176.202 111.251088 
L 176.5368 111.620736 
L 179.2152 117.252432 
L 179.8848 120.579264 
L 180.5544 121.64472 
L 182.5632 125.058528 
L 182.898 125.362944 
L 183.5676 126.580608 
L 184.572 127.73304 
L 185.5764 129.79872 
L 186.246 130.646736 
L 186.5808 131.342544 
L 187.5852 132.712416 
L 188.2548 133.734384 
L 189.2592 135.01728 
L 189.9288 136.300176 
L 190.2636 137.387376 
L 190.9332 138.518064 
L 191.9376 139.735728 
L 192.6072 140.366304 
L 193.2768 141.453504 
L 194.616 143.28 
L 194.9508 143.562672 
L 195.9552 145.497888 
L 196.6248 146.367648 
L 196.9596 146.86776 
L 197.2944 147.0852 
L 198.6336 149.085648 
L 198.9684 149.47704 
L 199.638 150.542496 
L 200.3076 151.281792 
L 200.6424 153.673632 
L 201.9816 156.065472 
L 202.986 157.370112 
L 203.3208 158.06592 
L 203.6556 158.435568 
L 204.3252 158.82696 
L 205.6644 160.327296 
L 205.9992 161.197056 
L 209.0124 164.219472 
L 209.3472 164.502144 
L 210.0168 165.328416 
L 210.6864 166.089456 
L 211.0212 166.676544 
L 211.356 167.63328 
L 213.03 169.785936 
L 213.6996 170.416512 
L 214.704 171.699408 
L 215.0388 172.177776 
L 215.7084 172.786608 
L 216.378 173.982528 
L 217.0476 174.526128 
L 217.3824 175.221936 
L 218.7216 176.396112 
L 219.3912 177.374592 
L 220.3956 178.614 
L 220.7304 179.04888 
L 221.0652 179.722944 
L 221.4 181.375488 
L 221.7348 183.767328 
L 222.4044 184.81104 
L 222.7392 185.02848 
L 223.074 185.615568 
L 223.7436 186.137424 
L 224.0784 186.33312 
L 224.4132 186.963696 
L 225.4176 187.659504 
L 225.7524 188.07264 
L 226.422 188.594496 
L 226.7568 188.877168 
L 227.0916 189.681696 
L 229.77 191.55168 
L 230.4396 191.856096 
L 231.7788 192.7476 
L 232.1136 193.356432 
L 234.792 195.204672 
L 235.1268 195.35688 
L 235.4616 195.726528 
L 236.466 196.313616 
L 237.8052 197.31384 
L 238.4748 197.574768 
L 239.1444 198.096624 
L 239.814 198.357552 
L 241.1532 199.118592 
L 241.8228 199.575216 
L 242.1576 199.8144 
L 242.4924 200.510208 
L 243.162 200.923344 
L 244.1664 201.488688 
L 247.5144 203.076 
L 248.184 203.576112 
L 249.1884 204.010992 
L 250.5276 204.59808 
L 252.2016 205.011216 
L 252.8712 205.337376 
L 253.5408 205.837488 
L 255.5496 206.728992 
L 256.554 207.229104 
L 257.2236 207.403056 
L 257.5584 207.403056 
L 259.2324 208.07712 
L 262.9152 209.294784 
L 263.25 209.642688 
L 263.5848 210.664656 
L 264.2544 211.186512 
L 264.5892 211.316976 
L 264.924 211.577904 
L 265.5936 211.751856 
L 265.9284 211.947552 
L 266.2632 212.295456 
L 266.9328 212.512896 
L 271.62 214.252416 
L 273.6288 214.578576 
L 273.9636 214.948224 
L 276.3072 215.600544 
L 276.9768 215.817984 
L 277.6464 216.035424 
L 280.9944 216.796464 
L 283.6728 217.42704 
L 284.0076 217.53576 
L 284.3424 217.97064 
L 285.012 218.340288 
L 286.686 218.666448 
L 287.3556 219.05784 
L 289.0296 219.405744 
L 291.3732 219.731904 
L 291.708 219.884112 
L 292.3776 219.992832 
L 294.7212 220.36248 
L 295.7256 220.645152 
L 297.0648 220.840848 
L 299.4084 221.384448 
L 301.4172 221.623632 
L 303.426 222.167232 
L 304.4304 222.384672 
L 304.7652 222.384672 
L 305.1 222.558624 
L 305.4348 223.667568 
L 307.1088 224.624304 
L 309.1176 225.102672 
L 309.7872 225.25488 
L 310.4568 225.298368 
L 310.7916 225.559296 
L 314.8092 226.23336 
L 315.4788 226.298592 
L 316.1484 226.4508 
L 317.4876 226.646496 
L 318.1572 226.755216 
L 319.4964 226.88568 
L 320.166 227.059632 
L 321.5052 227.168352 
L 324.8532 227.494512 
L 325.8576 227.494512 
L 326.5272 227.690208 
L 327.8664 227.885904 
L 329.5404 228.212064 
L 330.5448 228.29904 
L 332.8884 228.51648 
L 334.2276 228.603456 
L 338.2452 229.016592 
L 346.2804 229.60368 
L 346.95 229.755888 
L 347.2848 230.03856 
L 348.624 230.277744 
L 349.6284 230.321232 
L 350.9676 230.560416 
L 356.994 231.256224 
L 357.9984 231.364944 
L 367.7076 232.082496 
L 368.3772 232.234704 
L 371.0556 232.495632 
L 372.3948 232.604352 
L 379.0908 233.126208 
L 379.7604 233.278416 
L 381.7692 233.343648 
L 382.7736 233.430624 
L 384.7824 233.539344 
L 386.7912 233.691552 
L 388.4652 233.865504 
L 388.8 233.995968 
L 388.8 233.995968 
" style="fill:none;stroke:#1f77b4;stroke-linecap:square;stroke-width:1.5;"/>
   </g>
   <g id="line2d_17">
    <path clip-path="url(#pceaac39584)" d="M 54.3348 35.951616 
L 58.0176 36.29952 
L 59.6916 36.51696 
L 60.3612 36.582192 
L 63.0396 37.017072 
L 66.0528 37.321488 
L 67.0572 37.451952 
L 68.3964 37.560672 
L 80.1144 38.974032 
L 81.1188 39.061008 
L 82.7928 39.539376 
L 85.806 40.017744 
L 86.4756 40.191696 
L 87.8148 40.387392 
L 88.4844 40.561344 
L 90.4932 41.039712 
L 91.8324 41.431104 
L 92.502 41.561568 
L 95.1804 42.38784 
L 95.5152 42.409584 
L 95.85 42.561792 
L 96.5196 42.714 
L 97.524 43.105392 
L 97.8588 43.431552 
L 98.5284 43.540272 
L 100.2024 44.083872 
L 100.872 44.366544 
L 101.8764 44.757936 
L 102.8808 45.366768 
L 104.8896 46.106064 
L 105.2244 46.388736 
L 105.894 46.584432 
L 106.2288 46.95408 
L 106.8984 47.236752 
L 107.568 47.671632 
L 109.242 48.519648 
L 111.2508 49.759056 
L 111.9204 50.259168 
L 112.59 50.54184 
L 113.2596 51.041952 
L 114.5988 51.650784 
L 115.2684 51.868224 
L 115.938 52.564032 
L 118.2816 54.56448 
L 118.6164 54.716688 
L 119.6208 55.499472 
L 121.2948 56.804112 
L 121.6296 57.043296 
L 123.3036 59.000256 
L 123.6384 59.304672 
L 124.6428 60.565824 
L 124.9776 60.805008 
L 126.3168 62.305344 
L 126.9864 63.15336 
L 127.3212 63.936144 
L 128.6604 65.32776 
L 128.9952 65.588688 
L 129.9996 66.828096 
L 130.3344 67.023792 
L 130.6692 67.39344 
L 131.3388 68.545872 
L 132.3432 69.698304 
L 133.0128 70.720272 
L 135.0216 73.6992 
L 135.6912 75.025584 
L 136.6956 76.63464 
L 137.3652 77.765328 
L 138.0348 79.722288 
L 142.0524 86.115024 
L 143.7264 88.202448 
L 144.396 89.180928 
L 145.0656 90.44208 
L 146.7396 92.594736 
L 147.0744 92.877408 
L 148.0788 94.57344 
L 148.7484 95.812848 
L 149.418 96.595632 
L 150.0876 97.83504 
L 150.7572 98.530848 
L 151.7616 100.096416 
L 152.4312 100.98792 
L 152.766 101.379312 
L 153.7704 103.075344 
L 154.44 103.771152 
L 157.1184 107.750304 
L 158.4576 109.859472 
L 158.7924 111.229344 
L 163.8144 118.339632 
L 164.1492 119.078928 
L 166.4928 121.97088 
L 167.1624 123.123312 
L 167.4972 123.449472 
L 168.5016 125.036784 
L 168.8364 125.493408 
L 169.506 126.885024 
L 171.18 128.994192 
L 171.5148 129.233376 
L 173.5236 132.19056 
L 174.1932 132.908112 
L 174.528 133.690896 
L 175.5324 134.756352 
L 177.876 138.257136 
L 178.5456 139.235616 
L 179.2152 140.648976 
L 179.8848 143.432208 
L 180.8892 145.215216 
L 181.224 145.845792 
L 182.2284 147.041712 
L 182.5632 147.73752 
L 182.898 148.020192 
L 183.2328 148.520304 
L 183.5676 148.650768 
L 186.5808 152.5212 
L 186.9156 152.716896 
L 188.2548 154.217232 
L 188.9244 155.02176 
L 189.594 155.587104 
L 189.9288 155.956752 
L 190.2636 156.87 
L 190.9332 157.761504 
L 191.268 157.9572 
L 191.6028 158.544288 
L 192.2724 159.109632 
L 192.942 159.892416 
L 193.6116 160.370784 
L 194.2812 161.044848 
L 194.616 161.262288 
L 195.2856 162.284256 
L 195.9552 163.197504 
L 196.6248 163.741104 
L 197.2944 164.632608 
L 197.6292 164.871792 
L 198.2988 165.611088 
L 198.6336 165.915504 
L 200.3076 168.133392 
L 200.6424 169.546752 
L 201.9816 171.286272 
L 202.3164 171.503712 
L 204.3252 173.808576 
L 205.3296 174.569616 
L 205.6644 174.874032 
L 205.9992 175.3524 
L 206.6688 175.830768 
L 207.0036 175.917744 
L 208.008 176.830992 
L 208.3428 177.265872 
L 209.0124 177.700752 
L 209.682 178.244352 
L 210.6864 179.1576 
L 211.356 180.483984 
L 211.6908 180.766656 
L 212.0256 181.201536 
L 213.3648 182.20176 
L 214.0344 182.919312 
L 215.7084 184.223952 
L 216.0432 184.528368 
L 216.378 185.02848 
L 218.3868 186.528816 
L 218.7216 186.702768 
L 219.0564 187.20288 
L 220.0608 188.137872 
L 221.0652 189.15984 
L 221.4 190.507968 
L 221.7348 193.095504 
L 222.4044 194.095728 
L 222.7392 194.334912 
L 223.074 194.943744 
L 223.7436 195.35688 
L 224.0784 195.422112 
L 224.748 195.965712 
L 226.7568 196.813728 
L 227.0916 197.379072 
L 228.7656 198.161856 
L 229.1004 198.227088 
L 229.4352 198.50976 
L 230.1048 198.683712 
L 231.7788 199.292544 
L 232.1136 199.770912 
L 233.118 200.358 
L 233.7876 200.662416 
L 234.4572 200.836368 
L 236.466 201.684384 
L 237.1356 201.923568 
L 238.14 202.401936 
L 238.8096 202.554144 
L 240.4836 203.358672 
L 241.1532 203.554368 
L 242.1576 203.815296 
L 242.4924 204.424128 
L 242.8272 204.7068 
L 243.4968 204.880752 
L 244.1664 205.2504 
L 244.836 205.315632 
L 245.5056 205.641792 
L 245.8404 205.772256 
L 246.1752 205.772256 
L 247.1796 206.054928 
L 247.5144 206.054928 
L 247.8492 206.402832 
L 249.1884 206.837712 
L 251.1972 207.577008 
L 251.532 207.620496 
L 252.2016 207.9684 
L 252.8712 208.098864 
L 253.206 208.425024 
L 253.8756 208.533744 
L 258.8976 209.751408 
L 260.9064 209.947104 
L 263.25 210.621168 
L 263.5848 211.403952 
L 264.2544 211.860576 
L 264.5892 211.969296 
L 264.924 212.251968 
L 266.2632 212.708592 
L 267.6024 213.121728 
L 268.6068 213.317424 
L 269.6112 213.752304 
L 272.9592 214.317648 
L 273.6288 214.339392 
L 273.9636 214.60032 
L 274.968 214.81776 
L 282.3336 216.144144 
L 283.0032 216.252864 
L 284.0076 216.405072 
L 284.3424 216.839952 
L 285.6816 217.253088 
L 286.686 217.470528 
L 287.6904 217.622736 
L 289.0296 217.796688 
L 290.3688 218.07936 
L 292.3776 218.144592 
L 293.0472 218.253312 
L 294.0516 218.340288 
L 294.7212 218.492496 
L 295.3908 218.709936 
L 297.0648 218.8404 
L 297.7344 218.905632 
L 299.0736 219.101328 
L 300.4128 219.16656 
L 301.4172 219.340512 
L 303.0912 219.557952 
L 305.1 219.884112 
L 305.4348 220.645152 
L 306.774 221.319216 
L 307.7784 221.44968 
L 308.1132 221.710608 
L 310.4568 221.949792 
L 311.4612 222.21072 
L 316.818 222.993504 
L 317.8224 223.167456 
L 319.4964 223.276176 
L 320.5008 223.51536 
L 323.514 223.819776 
L 323.8488 223.95024 
L 325.8576 224.05896 
L 326.862 224.428608 
L 327.8664 224.49384 
L 329.2056 224.754768 
L 334.8972 225.385344 
L 336.2364 225.494064 
L 337.9104 225.711504 
L 338.58 225.776736 
L 340.254 225.885456 
L 341.2584 225.972432 
L 341.928 226.037664 
L 343.9368 226.320336 
L 345.6108 226.429056 
L 346.95 226.603008 
L 347.2848 226.842192 
L 347.9544 226.950912 
L 356.3244 227.951136 
L 357.6636 228.059856 
L 357.9984 228.19032 
L 359.3376 228.277296 
L 361.3464 228.429504 
L 385.7868 229.908096 
L 387.126 229.995072 
L 388.8 230.190768 
L 388.8 230.190768 
" style="fill:none;stroke:#ff7f0e;stroke-linecap:square;stroke-width:1.5;"/>
   </g>
   <g id="line2d_18">
    <path clip-path="url(#pceaac39584)" d="M 54.3348 37.017072 
L 56.3436 37.299744 
L 57.6828 37.38672 
L 60.696 37.49544 
L 62.0352 37.756368 
L 63.7092 37.973808 
L 67.392 38.3652 
L 68.3964 38.47392 
L 74.4228 39.539376 
L 75.762 39.800304 
L 76.7664 39.974256 
L 78.7752 40.343904 
L 82.7928 41.278896 
L 85.4712 41.713776 
L 88.1496 42.49656 
L 89.154 42.800976 
L 90.1584 43.14888 
L 90.828 43.344576 
L 92.502 43.670736 
L 95.5152 44.540496 
L 97.8588 45.366768 
L 98.5284 45.497232 
L 98.8632 45.75816 
L 99.5328 45.953856 
L 100.2024 46.323504 
L 103.8852 47.649888 
L 105.5592 48.193488 
L 106.5636 48.628368 
L 107.2332 49.084992 
L 108.2376 49.585104 
L 112.59 52.194384 
L 113.2596 52.629264 
L 113.9292 52.93368 
L 114.9336 53.69472 
L 117.2772 54.955872 
L 118.2816 55.7604 
L 118.6164 55.912608 
L 119.286 56.390976 
L 120.96 57.586896 
L 124.6428 61.109424 
L 125.3124 61.587792 
L 125.982 62.131392 
L 126.9864 62.761968 
L 127.3212 63.04464 
L 127.656 63.47952 
L 127.9908 63.631728 
L 128.6604 64.327536 
L 129.33 65.240784 
L 129.9996 65.76264 
L 130.3344 66.19752 
L 130.6692 66.436704 
L 131.3388 67.262976 
L 134.352 70.459344 
L 134.6868 70.9812 
L 136.026 72.17712 
L 137.0304 73.568736 
L 137.3652 73.894896 
L 137.7 74.634192 
L 138.0348 74.960352 
L 138.3696 75.482208 
L 139.0392 76.069296 
L 140.3784 77.917536 
L 141.048 78.613344 
L 143.7264 82.157616 
L 144.396 82.918656 
L 145.0656 84.266784 
L 146.4048 86.593392 
L 148.0788 89.13744 
L 151.092 93.942864 
L 152.0964 96.182496 
L 152.4312 96.486912 
L 153.4356 98.074224 
L 154.1052 99.052704 
L 155.4444 101.248848 
L 155.7792 101.596752 
L 158.7924 106.75008 
L 159.1272 107.663328 
L 159.462 108.16344 
L 159.7968 109.011456 
L 160.4664 110.163888 
L 162.1404 113.860368 
L 162.81 115.208496 
L 164.8188 119.078928 
L 165.8232 121.64472 
L 166.158 122.6232 
L 170.5104 130.55976 
L 171.5148 133.125552 
L 172.5192 135.039024 
L 173.1888 136.86552 
L 173.5236 137.496096 
L 174.1932 138.952944 
L 176.202 142.801632 
L 177.876 146.889504 
L 178.8804 149.107392 
L 179.8848 151.999344 
L 181.224 154.739088 
L 181.5588 155.217456 
L 183.5676 159.501024 
L 183.9024 160.066368 
L 184.572 161.588448 
L 187.92 169.677216 
L 188.5896 171.068832 
L 189.594 173.264976 
L 189.9288 173.83032 
L 190.5984 175.395888 
L 191.268 176.635296 
L 192.942 179.80992 
L 193.2768 180.331776 
L 193.9464 181.853856 
L 194.9508 183.354192 
L 195.6204 184.832784 
L 197.2944 187.659504 
L 197.964 189.138096 
L 201.9816 196.487568 
L 203.3208 198.270576 
L 203.9904 199.683936 
L 204.9948 200.988576 
L 206.334 203.228208 
L 207.3384 204.59808 
L 207.6732 205.380864 
L 208.3428 206.22888 
L 208.6776 206.511552 
L 209.3472 207.446544 
L 210.3516 208.83816 
L 213.6996 213.230448 
L 214.3692 213.882768 
L 214.704 214.60032 
L 215.3736 215.535312 
L 218.3868 219.253536 
L 219.0564 219.71016 
L 220.7304 221.601888 
L 221.4 222.167232 
L 223.7436 223.95024 
L 224.4132 224.559072 
L 225.0828 225.14616 
L 225.4176 225.298368 
L 226.7568 226.646496 
L 227.4264 227.168352 
L 227.7612 227.385792 
L 228.4308 228.233808 
L 230.1048 229.973328 
L 231.1092 230.495184 
L 231.7788 231.104016 
L 233.118 232.386912 
L 233.7876 232.626096 
L 234.4572 233.104464 
L 235.1268 233.495856 
L 236.1312 234.409104 
L 241.488 237.779424 
L 242.1576 238.236048 
L 242.8272 238.73616 
L 243.4968 239.105808 
L 243.8316 239.192784 
L 245.1708 239.997312 
L 245.5056 240.106032 
L 246.1752 240.519168 
L 247.1796 240.997536 
L 248.5188 241.519392 
L 249.5232 242.062992 
L 250.8624 242.563104 
L 257.8932 245.215872 
L 259.902 245.715984 
L 260.5716 245.91168 
L 261.2412 246.085632 
L 262.5804 246.542256 
L 263.25 246.824928 
L 263.9196 247.020624 
L 265.2588 247.346784 
L 265.9284 247.368528 
L 267.2676 247.738176 
L 267.9372 247.825152 
L 270.2808 248.477472 
L 271.2852 248.62968 
L 272.9592 248.890608 
L 273.6288 248.95584 
L 274.968 249.216768 
L 280.3248 249.803856 
L 281.664 249.890832 
L 282.3336 249.956064 
L 284.0076 250.064784 
L 285.3468 250.130016 
L 289.6992 250.456176 
L 290.3688 250.564896 
L 306.774 251.521632 
L 310.122 251.630352 
L 313.47 251.739072 
L 318.8268 251.847792 
L 321.1704 251.89128 
L 388.8 252 
L 388.8 252 
" style="fill:none;stroke:#2ca02c;stroke-linecap:square;stroke-width:1.5;"/>
   </g>
   <g id="patch_3">
    <path d="M 54 252 
L 54 34.56 
" style="fill:none;stroke:#000000;stroke-linecap:square;stroke-linejoin:miter;stroke-width:0.8;"/>
   </g>
   <g id="patch_4">
    <path d="M 388.8 252 
L 388.8 34.56 
" style="fill:none;stroke:#000000;stroke-linecap:square;stroke-linejoin:miter;stroke-width:0.8;"/>
   </g>
   <g id="patch_5">
    <path d="M 54 252 
L 388.8 252 
" style="fill:none;stroke:#000000;stroke-linecap:square;stroke-linejoin:miter;stroke-width:0.8;"/>
   </g>
   <g id="patch_6">
    <path d="M 54 34.56 
L 388.8 34.56 
" style="fill:none;stroke:#000000;stroke-linecap:square;stroke-linejoin:miter;stroke-width:0.8;"/>
   </g>
   <g id="text_18">
    <!-- L2 BIM -->
    <g transform="translate(201.269063 28.56)scale(0.12 -0.12)">
     <defs>
      <path d="M 9.8125 72.90625 
L 19.671875 72.90625 
L 19.671875 8.296875 
L 55.171875 8.296875 
L 55.171875 0 
L 9.8125 0 
z
" id="DejaVuSans-76"/>
      <path id="DejaVuSans-32"/>
      <path d="M 19.671875 34.8125 
L 19.671875 8.109375 
L 35.5 8.109375 
Q 43.453125 8.109375 47.28125 11.40625 
Q 51.125 14.703125 51.125 21.484375 
Q 51.125 28.328125 47.28125 31.5625 
Q 43.453125 34.8125 35.5 34.8125 
z
M 19.671875 64.796875 
L 19.671875 42.828125 
L 34.28125 42.828125 
Q 41.5 42.828125 45.03125 45.53125 
Q 48.578125 48.25 48.578125 53.8125 
Q 48.578125 59.328125 45.03125 62.0625 
Q 41.5 64.796875 34.28125 64.796875 
z
M 9.8125 72.90625 
L 35.015625 72.90625 
Q 46.296875 72.90625 52.390625 68.21875 
Q 58.5 63.53125 58.5 54.890625 
Q 58.5 48.1875 55.375 44.234375 
Q 52.25 40.28125 46.1875 39.3125 
Q 53.46875 37.75 57.5 32.78125 
Q 61.53125 27.828125 61.53125 20.40625 
Q 61.53125 10.640625 54.890625 5.3125 
Q 48.25 0 35.984375 0 
L 9.8125 0 
z
" id="DejaVuSans-66"/>
      <path d="M 9.8125 72.90625 
L 19.671875 72.90625 
L 19.671875 0 
L 9.8125 0 
z
" id="DejaVuSans-73"/>
      <path d="M 9.8125 72.90625 
L 24.515625 72.90625 
L 43.109375 23.296875 
L 61.8125 72.90625 
L 76.515625 72.90625 
L 76.515625 0 
L 66.890625 0 
L 66.890625 64.015625 
L 48.09375 14.015625 
L 38.1875 14.015625 
L 19.390625 64.015625 
L 19.390625 0 
L 9.8125 0 
z
" id="DejaVuSans-77"/>
     </defs>
     <use xlink:href="#DejaVuSans-76"/>
     <use x="55.712891" xlink:href="#DejaVuSans-50"/>
     <use x="119.335938" xlink:href="#DejaVuSans-32"/>
     <use x="151.123047" xlink:href="#DejaVuSans-66"/>
     <use x="219.726562" xlink:href="#DejaVuSans-73"/>
     <use x="249.21875" xlink:href="#DejaVuSans-77"/>
    </g>
   </g>
   <g id="legend_1">
    <g id="patch_7">
     <path d="M 270.240625 86.594375 
L 381.8 86.594375 
Q 383.8 86.594375 383.8 84.594375 
L 383.8 41.56 
Q 383.8 39.56 381.8 39.56 
L 270.240625 39.56 
Q 268.240625 39.56 268.240625 41.56 
L 268.240625 84.594375 
Q 268.240625 86.594375 270.240625 86.594375 
z
" style="fill:#ffffff;opacity:0.8;stroke:#cccccc;stroke-linejoin:miter;"/>
    </g>
    <g id="line2d_19">
     <path d="M 272.240625 47.658438 
L 292.240625 47.658438 
" style="fill:none;stroke:#1f77b4;stroke-linecap:square;stroke-width:1.5;"/>
    </g>
    <g id="line2d_20"/>
    <g id="text_19">
     <!-- c2  1.68/61% -->
     <g transform="translate(300.240625 51.158438)scale(0.1 -0.1)">
      <defs>
       <path d="M 25.390625 72.90625 
L 33.6875 72.90625 
L 8.296875 -9.28125 
L 0 -9.28125 
z
" id="DejaVuSans-47"/>
       <path d="M 72.703125 32.078125 
Q 68.453125 32.078125 66.03125 28.46875 
Q 63.625 24.859375 63.625 18.40625 
Q 63.625 12.0625 66.03125 8.421875 
Q 68.453125 4.78125 72.703125 4.78125 
Q 76.859375 4.78125 79.265625 8.421875 
Q 81.6875 12.0625 81.6875 18.40625 
Q 81.6875 24.8125 79.265625 28.4375 
Q 76.859375 32.078125 72.703125 32.078125 
z
M 72.703125 38.28125 
Q 80.421875 38.28125 84.953125 32.90625 
Q 89.5 27.546875 89.5 18.40625 
Q 89.5 9.28125 84.9375 3.921875 
Q 80.375 -1.421875 72.703125 -1.421875 
Q 64.890625 -1.421875 60.34375 3.921875 
Q 55.8125 9.28125 55.8125 18.40625 
Q 55.8125 27.59375 60.375 32.9375 
Q 64.9375 38.28125 72.703125 38.28125 
z
M 22.3125 68.015625 
Q 18.109375 68.015625 15.6875 64.375 
Q 13.28125 60.75 13.28125 54.390625 
Q 13.28125 47.953125 15.671875 44.328125 
Q 18.0625 40.71875 22.3125 40.71875 
Q 26.5625 40.71875 28.96875 44.328125 
Q 31.390625 47.953125 31.390625 54.390625 
Q 31.390625 60.6875 28.953125 64.34375 
Q 26.515625 68.015625 22.3125 68.015625 
z
M 66.40625 74.21875 
L 74.21875 74.21875 
L 28.609375 -1.421875 
L 20.796875 -1.421875 
z
M 22.3125 74.21875 
Q 30.03125 74.21875 34.609375 68.875 
Q 39.203125 63.53125 39.203125 54.390625 
Q 39.203125 45.171875 34.640625 39.84375 
Q 30.078125 34.515625 22.3125 34.515625 
Q 14.546875 34.515625 10.03125 39.859375 
Q 5.515625 45.21875 5.515625 54.390625 
Q 5.515625 63.484375 10.046875 68.84375 
Q 14.59375 74.21875 22.3125 74.21875 
z
" id="DejaVuSans-37"/>
      </defs>
      <use xlink:href="#DejaVuSans-99"/>
      <use x="54.980469" xlink:href="#DejaVuSans-50"/>
      <use x="118.603516" xlink:href="#DejaVuSans-32"/>
      <use x="150.390625" xlink:href="#DejaVuSans-32"/>
      <use x="182.177734" xlink:href="#DejaVuSans-49"/>
      <use x="245.800781" xlink:href="#DejaVuSans-46"/>
      <use x="277.587891" xlink:href="#DejaVuSans-54"/>
      <use x="341.210938" xlink:href="#DejaVuSans-56"/>
      <use x="404.833984" xlink:href="#DejaVuSans-47"/>
      <use x="438.525391" xlink:href="#DejaVuSans-54"/>
      <use x="502.148438" xlink:href="#DejaVuSans-49"/>
      <use x="565.771484" xlink:href="#DejaVuSans-37"/>
     </g>
    </g>
    <g id="line2d_21">
     <path d="M 272.240625 62.336563 
L 292.240625 62.336563 
" style="fill:none;stroke:#ff7f0e;stroke-linecap:square;stroke-width:1.5;"/>
    </g>
    <g id="line2d_22"/>
    <g id="text_20">
     <!-- c3  1.50/51% -->
     <g transform="translate(300.240625 65.836563)scale(0.1 -0.1)">
      <use xlink:href="#DejaVuSans-99"/>
      <use x="54.980469" xlink:href="#DejaVuSans-51"/>
      <use x="118.603516" xlink:href="#DejaVuSans-32"/>
      <use x="150.390625" xlink:href="#DejaVuSans-32"/>
      <use x="182.177734" xlink:href="#DejaVuSans-49"/>
      <use x="245.800781" xlink:href="#DejaVuSans-46"/>
      <use x="277.587891" xlink:href="#DejaVuSans-53"/>
      <use x="341.210938" xlink:href="#DejaVuSans-48"/>
      <use x="404.833984" xlink:href="#DejaVuSans-47"/>
      <use x="438.525391" xlink:href="#DejaVuSans-53"/>
      <use x="502.148438" xlink:href="#DejaVuSans-49"/>
      <use x="565.771484" xlink:href="#DejaVuSans-37"/>
     </g>
    </g>
    <g id="line2d_23">
     <path d="M 272.240625 77.014688 
L 292.240625 77.014688 
" style="fill:none;stroke:#2ca02c;stroke-linecap:square;stroke-width:1.5;"/>
    </g>
    <g id="line2d_24"/>
    <g id="text_21">
     <!-- lenet  1.46/46% -->
     <g transform="translate(300.240625 80.514688)scale(0.1 -0.1)">
      <use xlink:href="#DejaVuSans-108"/>
      <use x="27.783203" xlink:href="#DejaVuSans-101"/>
      <use x="89.306641" xlink:href="#DejaVuSans-110"/>
      <use x="152.685547" xlink:href="#DejaVuSans-101"/>
      <use x="214.208984" xlink:href="#DejaVuSans-116"/>
      <use x="253.417969" xlink:href="#DejaVuSans-32"/>
      <use x="285.205078" xlink:href="#DejaVuSans-32"/>
      <use x="316.992188" xlink:href="#DejaVuSans-49"/>
      <use x="380.615234" xlink:href="#DejaVuSans-46"/>
      <use x="412.402344" xlink:href="#DejaVuSans-52"/>
      <use x="476.025391" xlink:href="#DejaVuSans-54"/>
      <use x="539.648438" xlink:href="#DejaVuSans-47"/>
      <use x="573.339844" xlink:href="#DejaVuSans-52"/>
      <use x="636.962891" xlink:href="#DejaVuSans-54"/>
      <use x="700.585938" xlink:href="#DejaVuSans-37"/>
     </g>
    </g>
   </g>
  </g>
 </g>
 <defs>
  <clipPath id="pceaac39584">
   <rect height="217.44" width="334.8" x="54" y="34.56"/>
  </clipPath>
 </defs>
</svg>
