<?xml version="1.0" encoding="utf-8" standalone="no"?>
<!DOCTYPE svg PUBLIC "-//W3C//DTD SVG 1.1//EN"
  "http://www.w3.org/Graphics/SVG/1.1/DTD/svg11.dtd">
<!-- Created with matplotlib (https://matplotlib.org/) -->
<svg height="288pt" version="1.1" viewBox="0 0 432 288" width="432pt" xmlns="http://www.w3.org/2000/svg" xmlns:xlink="http://www.w3.org/1999/xlink">
 <metadata>
  <rdf:RDF xmlns:cc="http://creativecommons.org/ns#" xmlns:dc="http://purl.org/dc/elements/1.1/" xmlns:rdf="http://www.w3.org/1999/02/22-rdf-syntax-ns#">
   <cc:Work>
    <dc:type rdf:resource="http://purl.org/dc/dcmitype/StillImage"/>
    <dc:date>2020-10-18T18:38:31.466040</dc:date>
    <dc:format>image/svg+xml</dc:format>
    <dc:creator>
     <cc:Agent>
      <dc:title>Matplotlib v3.3.2, https://matplotlib.org/</dc:title>
     </cc:Agent>
    </dc:creator>
   </cc:Work>
  </rdf:RDF>
 </metadata>
 <defs>
  <style type="text/css">*{stroke-linecap:butt;stroke-linejoin:round;}</style>
 </defs>
 <g id="figure_1">
  <g id="patch_1">
   <path d="M 0 288 
L 432 288 
L 432 0 
L 0 0 
z
" style="fill:#ffffff;"/>
  </g>
  <g id="axes_1">
   <g id="patch_2">
    <path d="M 54 252 
L 388.8 252 
L 388.8 34.56 
L 54 34.56 
z
" style="fill:#ffffff;"/>
   </g>
   <g id="matplotlib.axis_1">
    <g id="xtick_1">
     <g id="line2d_1">
      <defs>
       <path d="M 0 0 
L 0 3.5 
" id="ma4e4e46856" style="stroke:#000000;stroke-width:0.8;"/>
      </defs>
      <g>
       <use style="stroke:#000000;stroke-width:0.8;" x="54" xlink:href="#ma4e4e46856" y="252"/>
      </g>
     </g>
     <g id="text_1">
      <!-- 0.0 -->
      <g transform="translate(46.048437 266.598437)scale(0.1 -0.1)">
       <defs>
        <path d="M 31.78125 66.40625 
Q 24.171875 66.40625 20.328125 58.90625 
Q 16.5 51.421875 16.5 36.375 
Q 16.5 21.390625 20.328125 13.890625 
Q 24.171875 6.390625 31.78125 6.390625 
Q 39.453125 6.390625 43.28125 13.890625 
Q 47.125 21.390625 47.125 36.375 
Q 47.125 51.421875 43.28125 58.90625 
Q 39.453125 66.40625 31.78125 66.40625 
z
M 31.78125 74.21875 
Q 44.046875 74.21875 50.515625 64.515625 
Q 56.984375 54.828125 56.984375 36.375 
Q 56.984375 17.96875 50.515625 8.265625 
Q 44.046875 -1.421875 31.78125 -1.421875 
Q 19.53125 -1.421875 13.0625 8.265625 
Q 6.59375 17.96875 6.59375 36.375 
Q 6.59375 54.828125 13.0625 64.515625 
Q 19.53125 74.21875 31.78125 74.21875 
z
" id="DejaVuSans-48"/>
        <path d="M 10.6875 12.40625 
L 21 12.40625 
L 21 0 
L 10.6875 0 
z
" id="DejaVuSans-46"/>
       </defs>
       <use xlink:href="#DejaVuSans-48"/>
       <use x="63.623047" xlink:href="#DejaVuSans-46"/>
       <use x="95.410156" xlink:href="#DejaVuSans-48"/>
      </g>
     </g>
    </g>
    <g id="xtick_2">
     <g id="line2d_2">
      <g>
       <use style="stroke:#000000;stroke-width:0.8;" x="120.96" xlink:href="#ma4e4e46856" y="252"/>
      </g>
     </g>
     <g id="text_2">
      <!-- 0.1 -->
      <g transform="translate(113.008438 266.598437)scale(0.1 -0.1)">
       <defs>
        <path d="M 12.40625 8.296875 
L 28.515625 8.296875 
L 28.515625 63.921875 
L 10.984375 60.40625 
L 10.984375 69.390625 
L 28.421875 72.90625 
L 38.28125 72.90625 
L 38.28125 8.296875 
L 54.390625 8.296875 
L 54.390625 0 
L 12.40625 0 
z
" id="DejaVuSans-49"/>
       </defs>
       <use xlink:href="#DejaVuSans-48"/>
       <use x="63.623047" xlink:href="#DejaVuSans-46"/>
       <use x="95.410156" xlink:href="#DejaVuSans-49"/>
      </g>
     </g>
    </g>
    <g id="xtick_3">
     <g id="line2d_3">
      <g>
       <use style="stroke:#000000;stroke-width:0.8;" x="187.92" xlink:href="#ma4e4e46856" y="252"/>
      </g>
     </g>
     <g id="text_3">
      <!-- 0.2 -->
      <g transform="translate(179.968438 266.598437)scale(0.1 -0.1)">
       <defs>
        <path d="M 19.1875 8.296875 
L 53.609375 8.296875 
L 53.609375 0 
L 7.328125 0 
L 7.328125 8.296875 
Q 12.9375 14.109375 22.625 23.890625 
Q 32.328125 33.6875 34.8125 36.53125 
Q 39.546875 41.84375 41.421875 45.53125 
Q 43.3125 49.21875 43.3125 52.78125 
Q 43.3125 58.59375 39.234375 62.25 
Q 35.15625 65.921875 28.609375 65.921875 
Q 23.96875 65.921875 18.8125 64.3125 
Q 13.671875 62.703125 7.8125 59.421875 
L 7.8125 69.390625 
Q 13.765625 71.78125 18.9375 73 
Q 24.125 74.21875 28.421875 74.21875 
Q 39.75 74.21875 46.484375 68.546875 
Q 53.21875 62.890625 53.21875 53.421875 
Q 53.21875 48.921875 51.53125 44.890625 
Q 49.859375 40.875 45.40625 35.40625 
Q 44.1875 33.984375 37.640625 27.21875 
Q 31.109375 20.453125 19.1875 8.296875 
z
" id="DejaVuSans-50"/>
       </defs>
       <use xlink:href="#DejaVuSans-48"/>
       <use x="63.623047" xlink:href="#DejaVuSans-46"/>
       <use x="95.410156" xlink:href="#DejaVuSans-50"/>
      </g>
     </g>
    </g>
    <g id="xtick_4">
     <g id="line2d_4">
      <g>
       <use style="stroke:#000000;stroke-width:0.8;" x="254.88" xlink:href="#ma4e4e46856" y="252"/>
      </g>
     </g>
     <g id="text_4">
      <!-- 0.3 -->
      <g transform="translate(246.928438 266.598437)scale(0.1 -0.1)">
       <defs>
        <path d="M 40.578125 39.3125 
Q 47.65625 37.796875 51.625 33 
Q 55.609375 28.21875 55.609375 21.1875 
Q 55.609375 10.40625 48.1875 4.484375 
Q 40.765625 -1.421875 27.09375 -1.421875 
Q 22.515625 -1.421875 17.65625 -0.515625 
Q 12.796875 0.390625 7.625 2.203125 
L 7.625 11.71875 
Q 11.71875 9.328125 16.59375 8.109375 
Q 21.484375 6.890625 26.8125 6.890625 
Q 36.078125 6.890625 40.9375 10.546875 
Q 45.796875 14.203125 45.796875 21.1875 
Q 45.796875 27.640625 41.28125 31.265625 
Q 36.765625 34.90625 28.71875 34.90625 
L 20.21875 34.90625 
L 20.21875 43.015625 
L 29.109375 43.015625 
Q 36.375 43.015625 40.234375 45.921875 
Q 44.09375 48.828125 44.09375 54.296875 
Q 44.09375 59.90625 40.109375 62.90625 
Q 36.140625 65.921875 28.71875 65.921875 
Q 24.65625 65.921875 20.015625 65.03125 
Q 15.375 64.15625 9.8125 62.3125 
L 9.8125 71.09375 
Q 15.4375 72.65625 20.34375 73.4375 
Q 25.25 74.21875 29.59375 74.21875 
Q 40.828125 74.21875 47.359375 69.109375 
Q 53.90625 64.015625 53.90625 55.328125 
Q 53.90625 49.265625 50.4375 45.09375 
Q 46.96875 40.921875 40.578125 39.3125 
z
" id="DejaVuSans-51"/>
       </defs>
       <use xlink:href="#DejaVuSans-48"/>
       <use x="63.623047" xlink:href="#DejaVuSans-46"/>
       <use x="95.410156" xlink:href="#DejaVuSans-51"/>
      </g>
     </g>
    </g>
    <g id="xtick_5">
     <g id="line2d_5">
      <g>
       <use style="stroke:#000000;stroke-width:0.8;" x="321.84" xlink:href="#ma4e4e46856" y="252"/>
      </g>
     </g>
     <g id="text_5">
      <!-- 0.4 -->
      <g transform="translate(313.888438 266.598437)scale(0.1 -0.1)">
       <defs>
        <path d="M 37.796875 64.3125 
L 12.890625 25.390625 
L 37.796875 25.390625 
z
M 35.203125 72.90625 
L 47.609375 72.90625 
L 47.609375 25.390625 
L 58.015625 25.390625 
L 58.015625 17.1875 
L 47.609375 17.1875 
L 47.609375 0 
L 37.796875 0 
L 37.796875 17.1875 
L 4.890625 17.1875 
L 4.890625 26.703125 
z
" id="DejaVuSans-52"/>
       </defs>
       <use xlink:href="#DejaVuSans-48"/>
       <use x="63.623047" xlink:href="#DejaVuSans-46"/>
       <use x="95.410156" xlink:href="#DejaVuSans-52"/>
      </g>
     </g>
    </g>
    <g id="xtick_6">
     <g id="line2d_6">
      <g>
       <use style="stroke:#000000;stroke-width:0.8;" x="388.8" xlink:href="#ma4e4e46856" y="252"/>
      </g>
     </g>
     <g id="text_6">
      <!-- 0.5 -->
      <g transform="translate(380.848437 266.598437)scale(0.1 -0.1)">
       <defs>
        <path d="M 10.796875 72.90625 
L 49.515625 72.90625 
L 49.515625 64.59375 
L 19.828125 64.59375 
L 19.828125 46.734375 
Q 21.96875 47.46875 24.109375 47.828125 
Q 26.265625 48.1875 28.421875 48.1875 
Q 40.625 48.1875 47.75 41.5 
Q 54.890625 34.8125 54.890625 23.390625 
Q 54.890625 11.625 47.5625 5.09375 
Q 40.234375 -1.421875 26.90625 -1.421875 
Q 22.3125 -1.421875 17.546875 -0.640625 
Q 12.796875 0.140625 7.71875 1.703125 
L 7.71875 11.625 
Q 12.109375 9.234375 16.796875 8.0625 
Q 21.484375 6.890625 26.703125 6.890625 
Q 35.15625 6.890625 40.078125 11.328125 
Q 45.015625 15.765625 45.015625 23.390625 
Q 45.015625 31 40.078125 35.4375 
Q 35.15625 39.890625 26.703125 39.890625 
Q 22.75 39.890625 18.8125 39.015625 
Q 14.890625 38.140625 10.796875 36.28125 
z
" id="DejaVuSans-53"/>
       </defs>
       <use xlink:href="#DejaVuSans-48"/>
       <use x="63.623047" xlink:href="#DejaVuSans-46"/>
       <use x="95.410156" xlink:href="#DejaVuSans-53"/>
      </g>
     </g>
    </g>
    <g id="text_7">
     <!-- linfdistance -->
     <g transform="translate(192.50625 280.276563)scale(0.1 -0.1)">
      <defs>
       <path d="M 9.421875 75.984375 
L 18.40625 75.984375 
L 18.40625 0 
L 9.421875 0 
z
" id="DejaVuSans-108"/>
       <path d="M 9.421875 54.6875 
L 18.40625 54.6875 
L 18.40625 0 
L 9.421875 0 
z
M 9.421875 75.984375 
L 18.40625 75.984375 
L 18.40625 64.59375 
L 9.421875 64.59375 
z
" id="DejaVuSans-105"/>
       <path d="M 54.890625 33.015625 
L 54.890625 0 
L 45.90625 0 
L 45.90625 32.71875 
Q 45.90625 40.484375 42.875 44.328125 
Q 39.84375 48.1875 33.796875 48.1875 
Q 26.515625 48.1875 22.3125 43.546875 
Q 18.109375 38.921875 18.109375 30.90625 
L 18.109375 0 
L 9.078125 0 
L 9.078125 54.6875 
L 18.109375 54.6875 
L 18.109375 46.1875 
Q 21.34375 51.125 25.703125 53.5625 
Q 30.078125 56 35.796875 56 
Q 45.21875 56 50.046875 50.171875 
Q 54.890625 44.34375 54.890625 33.015625 
z
" id="DejaVuSans-110"/>
       <path d="M 37.109375 75.984375 
L 37.109375 68.5 
L 28.515625 68.5 
Q 23.6875 68.5 21.796875 66.546875 
Q 19.921875 64.59375 19.921875 59.515625 
L 19.921875 54.6875 
L 34.71875 54.6875 
L 34.71875 47.703125 
L 19.921875 47.703125 
L 19.921875 0 
L 10.890625 0 
L 10.890625 47.703125 
L 2.296875 47.703125 
L 2.296875 54.6875 
L 10.890625 54.6875 
L 10.890625 58.5 
Q 10.890625 67.625 15.140625 71.796875 
Q 19.390625 75.984375 28.609375 75.984375 
z
" id="DejaVuSans-102"/>
       <path d="M 45.40625 46.390625 
L 45.40625 75.984375 
L 54.390625 75.984375 
L 54.390625 0 
L 45.40625 0 
L 45.40625 8.203125 
Q 42.578125 3.328125 38.25 0.953125 
Q 33.9375 -1.421875 27.875 -1.421875 
Q 17.96875 -1.421875 11.734375 6.484375 
Q 5.515625 14.40625 5.515625 27.296875 
Q 5.515625 40.1875 11.734375 48.09375 
Q 17.96875 56 27.875 56 
Q 33.9375 56 38.25 53.625 
Q 42.578125 51.265625 45.40625 46.390625 
z
M 14.796875 27.296875 
Q 14.796875 17.390625 18.875 11.75 
Q 22.953125 6.109375 30.078125 6.109375 
Q 37.203125 6.109375 41.296875 11.75 
Q 45.40625 17.390625 45.40625 27.296875 
Q 45.40625 37.203125 41.296875 42.84375 
Q 37.203125 48.484375 30.078125 48.484375 
Q 22.953125 48.484375 18.875 42.84375 
Q 14.796875 37.203125 14.796875 27.296875 
z
" id="DejaVuSans-100"/>
       <path d="M 44.28125 53.078125 
L 44.28125 44.578125 
Q 40.484375 46.53125 36.375 47.5 
Q 32.28125 48.484375 27.875 48.484375 
Q 21.1875 48.484375 17.84375 46.4375 
Q 14.5 44.390625 14.5 40.28125 
Q 14.5 37.15625 16.890625 35.375 
Q 19.28125 33.59375 26.515625 31.984375 
L 29.59375 31.296875 
Q 39.15625 29.25 43.1875 25.515625 
Q 47.21875 21.78125 47.21875 15.09375 
Q 47.21875 7.46875 41.1875 3.015625 
Q 35.15625 -1.421875 24.609375 -1.421875 
Q 20.21875 -1.421875 15.453125 -0.5625 
Q 10.6875 0.296875 5.421875 2 
L 5.421875 11.28125 
Q 10.40625 8.6875 15.234375 7.390625 
Q 20.0625 6.109375 24.8125 6.109375 
Q 31.15625 6.109375 34.5625 8.28125 
Q 37.984375 10.453125 37.984375 14.40625 
Q 37.984375 18.0625 35.515625 20.015625 
Q 33.0625 21.96875 24.703125 23.78125 
L 21.578125 24.515625 
Q 13.234375 26.265625 9.515625 29.90625 
Q 5.8125 33.546875 5.8125 39.890625 
Q 5.8125 47.609375 11.28125 51.796875 
Q 16.75 56 26.8125 56 
Q 31.78125 56 36.171875 55.265625 
Q 40.578125 54.546875 44.28125 53.078125 
z
" id="DejaVuSans-115"/>
       <path d="M 18.3125 70.21875 
L 18.3125 54.6875 
L 36.8125 54.6875 
L 36.8125 47.703125 
L 18.3125 47.703125 
L 18.3125 18.015625 
Q 18.3125 11.328125 20.140625 9.421875 
Q 21.96875 7.515625 27.59375 7.515625 
L 36.8125 7.515625 
L 36.8125 0 
L 27.59375 0 
Q 17.1875 0 13.234375 3.875 
Q 9.28125 7.765625 9.28125 18.015625 
L 9.28125 47.703125 
L 2.6875 47.703125 
L 2.6875 54.6875 
L 9.28125 54.6875 
L 9.28125 70.21875 
z
" id="DejaVuSans-116"/>
       <path d="M 34.28125 27.484375 
Q 23.390625 27.484375 19.1875 25 
Q 14.984375 22.515625 14.984375 16.5 
Q 14.984375 11.71875 18.140625 8.90625 
Q 21.296875 6.109375 26.703125 6.109375 
Q 34.1875 6.109375 38.703125 11.40625 
Q 43.21875 16.703125 43.21875 25.484375 
L 43.21875 27.484375 
z
M 52.203125 31.203125 
L 52.203125 0 
L 43.21875 0 
L 43.21875 8.296875 
Q 40.140625 3.328125 35.546875 0.953125 
Q 30.953125 -1.421875 24.3125 -1.421875 
Q 15.921875 -1.421875 10.953125 3.296875 
Q 6 8.015625 6 15.921875 
Q 6 25.140625 12.171875 29.828125 
Q 18.359375 34.515625 30.609375 34.515625 
L 43.21875 34.515625 
L 43.21875 35.40625 
Q 43.21875 41.609375 39.140625 45 
Q 35.0625 48.390625 27.6875 48.390625 
Q 23 48.390625 18.546875 47.265625 
Q 14.109375 46.140625 10.015625 43.890625 
L 10.015625 52.203125 
Q 14.9375 54.109375 19.578125 55.046875 
Q 24.21875 56 28.609375 56 
Q 40.484375 56 46.34375 49.84375 
Q 52.203125 43.703125 52.203125 31.203125 
z
" id="DejaVuSans-97"/>
       <path d="M 48.78125 52.59375 
L 48.78125 44.1875 
Q 44.96875 46.296875 41.140625 47.34375 
Q 37.3125 48.390625 33.40625 48.390625 
Q 24.65625 48.390625 19.8125 42.84375 
Q 14.984375 37.3125 14.984375 27.296875 
Q 14.984375 17.28125 19.8125 11.734375 
Q 24.65625 6.203125 33.40625 6.203125 
Q 37.3125 6.203125 41.140625 7.25 
Q 44.96875 8.296875 48.78125 10.40625 
L 48.78125 2.09375 
Q 45.015625 0.34375 40.984375 -0.53125 
Q 36.96875 -1.421875 32.421875 -1.421875 
Q 20.0625 -1.421875 12.78125 6.34375 
Q 5.515625 14.109375 5.515625 27.296875 
Q 5.515625 40.671875 12.859375 48.328125 
Q 20.21875 56 33.015625 56 
Q 37.15625 56 41.109375 55.140625 
Q 45.0625 54.296875 48.78125 52.59375 
z
" id="DejaVuSans-99"/>
       <path d="M 56.203125 29.59375 
L 56.203125 25.203125 
L 14.890625 25.203125 
Q 15.484375 15.921875 20.484375 11.0625 
Q 25.484375 6.203125 34.421875 6.203125 
Q 39.59375 6.203125 44.453125 7.46875 
Q 49.3125 8.734375 54.109375 11.28125 
L 54.109375 2.78125 
Q 49.265625 0.734375 44.1875 -0.34375 
Q 39.109375 -1.421875 33.890625 -1.421875 
Q 20.796875 -1.421875 13.15625 6.1875 
Q 5.515625 13.8125 5.515625 26.8125 
Q 5.515625 40.234375 12.765625 48.109375 
Q 20.015625 56 32.328125 56 
Q 43.359375 56 49.78125 48.890625 
Q 56.203125 41.796875 56.203125 29.59375 
z
M 47.21875 32.234375 
Q 47.125 39.59375 43.09375 43.984375 
Q 39.0625 48.390625 32.421875 48.390625 
Q 24.90625 48.390625 20.390625 44.140625 
Q 15.875 39.890625 15.1875 32.171875 
z
" id="DejaVuSans-101"/>
      </defs>
      <use xlink:href="#DejaVuSans-108"/>
      <use x="27.783203" xlink:href="#DejaVuSans-105"/>
      <use x="55.566406" xlink:href="#DejaVuSans-110"/>
      <use x="118.945312" xlink:href="#DejaVuSans-102"/>
      <use x="154.150391" xlink:href="#DejaVuSans-100"/>
      <use x="217.626953" xlink:href="#DejaVuSans-105"/>
      <use x="245.410156" xlink:href="#DejaVuSans-115"/>
      <use x="297.509766" xlink:href="#DejaVuSans-116"/>
      <use x="336.71875" xlink:href="#DejaVuSans-97"/>
      <use x="397.998047" xlink:href="#DejaVuSans-110"/>
      <use x="461.376953" xlink:href="#DejaVuSans-99"/>
      <use x="516.357422" xlink:href="#DejaVuSans-101"/>
     </g>
    </g>
   </g>
   <g id="matplotlib.axis_2">
    <g id="ytick_1">
     <g id="line2d_7">
      <defs>
       <path d="M 0 0 
L -3.5 0 
" id="me01442267b" style="stroke:#000000;stroke-width:0.8;"/>
      </defs>
      <g>
       <use style="stroke:#000000;stroke-width:0.8;" x="54" xlink:href="#me01442267b" y="252"/>
      </g>
     </g>
     <g id="text_8">
      <!-- 0.0 -->
      <g transform="translate(31.096875 255.799219)scale(0.1 -0.1)">
       <use xlink:href="#DejaVuSans-48"/>
       <use x="63.623047" xlink:href="#DejaVuSans-46"/>
       <use x="95.410156" xlink:href="#DejaVuSans-48"/>
      </g>
     </g>
    </g>
    <g id="ytick_2">
     <g id="line2d_8">
      <g>
       <use style="stroke:#000000;stroke-width:0.8;" x="54" xlink:href="#me01442267b" y="208.512"/>
      </g>
     </g>
     <g id="text_9">
      <!-- 0.2 -->
      <g transform="translate(31.096875 212.311219)scale(0.1 -0.1)">
       <use xlink:href="#DejaVuSans-48"/>
       <use x="63.623047" xlink:href="#DejaVuSans-46"/>
       <use x="95.410156" xlink:href="#DejaVuSans-50"/>
      </g>
     </g>
    </g>
    <g id="ytick_3">
     <g id="line2d_9">
      <g>
       <use style="stroke:#000000;stroke-width:0.8;" x="54" xlink:href="#me01442267b" y="165.024"/>
      </g>
     </g>
     <g id="text_10">
      <!-- 0.4 -->
      <g transform="translate(31.096875 168.823219)scale(0.1 -0.1)">
       <use xlink:href="#DejaVuSans-48"/>
       <use x="63.623047" xlink:href="#DejaVuSans-46"/>
       <use x="95.410156" xlink:href="#DejaVuSans-52"/>
      </g>
     </g>
    </g>
    <g id="ytick_4">
     <g id="line2d_10">
      <g>
       <use style="stroke:#000000;stroke-width:0.8;" x="54" xlink:href="#me01442267b" y="121.536"/>
      </g>
     </g>
     <g id="text_11">
      <!-- 0.6 -->
      <g transform="translate(31.096875 125.335219)scale(0.1 -0.1)">
       <defs>
        <path d="M 33.015625 40.375 
Q 26.375 40.375 22.484375 35.828125 
Q 18.609375 31.296875 18.609375 23.390625 
Q 18.609375 15.53125 22.484375 10.953125 
Q 26.375 6.390625 33.015625 6.390625 
Q 39.65625 6.390625 43.53125 10.953125 
Q 47.40625 15.53125 47.40625 23.390625 
Q 47.40625 31.296875 43.53125 35.828125 
Q 39.65625 40.375 33.015625 40.375 
z
M 52.59375 71.296875 
L 52.59375 62.3125 
Q 48.875 64.0625 45.09375 64.984375 
Q 41.3125 65.921875 37.59375 65.921875 
Q 27.828125 65.921875 22.671875 59.328125 
Q 17.53125 52.734375 16.796875 39.40625 
Q 19.671875 43.65625 24.015625 45.921875 
Q 28.375 48.1875 33.59375 48.1875 
Q 44.578125 48.1875 50.953125 41.515625 
Q 57.328125 34.859375 57.328125 23.390625 
Q 57.328125 12.15625 50.6875 5.359375 
Q 44.046875 -1.421875 33.015625 -1.421875 
Q 20.359375 -1.421875 13.671875 8.265625 
Q 6.984375 17.96875 6.984375 36.375 
Q 6.984375 53.65625 15.1875 63.9375 
Q 23.390625 74.21875 37.203125 74.21875 
Q 40.921875 74.21875 44.703125 73.484375 
Q 48.484375 72.75 52.59375 71.296875 
z
" id="DejaVuSans-54"/>
       </defs>
       <use xlink:href="#DejaVuSans-48"/>
       <use x="63.623047" xlink:href="#DejaVuSans-46"/>
       <use x="95.410156" xlink:href="#DejaVuSans-54"/>
      </g>
     </g>
    </g>
    <g id="ytick_5">
     <g id="line2d_11">
      <g>
       <use style="stroke:#000000;stroke-width:0.8;" x="54" xlink:href="#me01442267b" y="78.048"/>
      </g>
     </g>
     <g id="text_12">
      <!-- 0.8 -->
      <g transform="translate(31.096875 81.847219)scale(0.1 -0.1)">
       <defs>
        <path d="M 31.78125 34.625 
Q 24.75 34.625 20.71875 30.859375 
Q 16.703125 27.09375 16.703125 20.515625 
Q 16.703125 13.921875 20.71875 10.15625 
Q 24.75 6.390625 31.78125 6.390625 
Q 38.8125 6.390625 42.859375 10.171875 
Q 46.921875 13.96875 46.921875 20.515625 
Q 46.921875 27.09375 42.890625 30.859375 
Q 38.875 34.625 31.78125 34.625 
z
M 21.921875 38.8125 
Q 15.578125 40.375 12.03125 44.71875 
Q 8.5 49.078125 8.5 55.328125 
Q 8.5 64.0625 14.71875 69.140625 
Q 20.953125 74.21875 31.78125 74.21875 
Q 42.671875 74.21875 48.875 69.140625 
Q 55.078125 64.0625 55.078125 55.328125 
Q 55.078125 49.078125 51.53125 44.71875 
Q 48 40.375 41.703125 38.8125 
Q 48.828125 37.15625 52.796875 32.3125 
Q 56.78125 27.484375 56.78125 20.515625 
Q 56.78125 9.90625 50.3125 4.234375 
Q 43.84375 -1.421875 31.78125 -1.421875 
Q 19.734375 -1.421875 13.25 4.234375 
Q 6.78125 9.90625 6.78125 20.515625 
Q 6.78125 27.484375 10.78125 32.3125 
Q 14.796875 37.15625 21.921875 38.8125 
z
M 18.3125 54.390625 
Q 18.3125 48.734375 21.84375 45.5625 
Q 25.390625 42.390625 31.78125 42.390625 
Q 38.140625 42.390625 41.71875 45.5625 
Q 45.3125 48.734375 45.3125 54.390625 
Q 45.3125 60.0625 41.71875 63.234375 
Q 38.140625 66.40625 31.78125 66.40625 
Q 25.390625 66.40625 21.84375 63.234375 
Q 18.3125 60.0625 18.3125 54.390625 
z
" id="DejaVuSans-56"/>
       </defs>
       <use xlink:href="#DejaVuSans-48"/>
       <use x="63.623047" xlink:href="#DejaVuSans-46"/>
       <use x="95.410156" xlink:href="#DejaVuSans-56"/>
      </g>
     </g>
    </g>
    <g id="ytick_6">
     <g id="line2d_12">
      <g>
       <use style="stroke:#000000;stroke-width:0.8;" x="54" xlink:href="#me01442267b" y="34.56"/>
      </g>
     </g>
     <g id="text_13">
      <!-- 1.0 -->
      <g transform="translate(31.096875 38.359219)scale(0.1 -0.1)">
       <use xlink:href="#DejaVuSans-49"/>
       <use x="63.623047" xlink:href="#DejaVuSans-46"/>
       <use x="95.410156" xlink:href="#DejaVuSans-48"/>
      </g>
     </g>
    </g>
    <g id="text_14">
     <!-- Accuracy -->
     <g transform="translate(25.017187 166.108125)rotate(-90)scale(0.1 -0.1)">
      <defs>
       <path d="M 34.1875 63.1875 
L 20.796875 26.90625 
L 47.609375 26.90625 
z
M 28.609375 72.90625 
L 39.796875 72.90625 
L 67.578125 0 
L 57.328125 0 
L 50.6875 18.703125 
L 17.828125 18.703125 
L 11.1875 0 
L 0.78125 0 
z
" id="DejaVuSans-65"/>
       <path d="M 8.5 21.578125 
L 8.5 54.6875 
L 17.484375 54.6875 
L 17.484375 21.921875 
Q 17.484375 14.15625 20.5 10.265625 
Q 23.53125 6.390625 29.59375 6.390625 
Q 36.859375 6.390625 41.078125 11.03125 
Q 45.3125 15.671875 45.3125 23.6875 
L 45.3125 54.6875 
L 54.296875 54.6875 
L 54.296875 0 
L 45.3125 0 
L 45.3125 8.40625 
Q 42.046875 3.421875 37.71875 1 
Q 33.40625 -1.421875 27.6875 -1.421875 
Q 18.265625 -1.421875 13.375 4.4375 
Q 8.5 10.296875 8.5 21.578125 
z
M 31.109375 56 
z
" id="DejaVuSans-117"/>
       <path d="M 41.109375 46.296875 
Q 39.59375 47.171875 37.8125 47.578125 
Q 36.03125 48 33.890625 48 
Q 26.265625 48 22.1875 43.046875 
Q 18.109375 38.09375 18.109375 28.8125 
L 18.109375 0 
L 9.078125 0 
L 9.078125 54.6875 
L 18.109375 54.6875 
L 18.109375 46.1875 
Q 20.953125 51.171875 25.484375 53.578125 
Q 30.03125 56 36.53125 56 
Q 37.453125 56 38.578125 55.875 
Q 39.703125 55.765625 41.0625 55.515625 
z
" id="DejaVuSans-114"/>
       <path d="M 32.171875 -5.078125 
Q 28.375 -14.84375 24.75 -17.8125 
Q 21.140625 -20.796875 15.09375 -20.796875 
L 7.90625 -20.796875 
L 7.90625 -13.28125 
L 13.1875 -13.28125 
Q 16.890625 -13.28125 18.9375 -11.515625 
Q 21 -9.765625 23.484375 -3.21875 
L 25.09375 0.875 
L 2.984375 54.6875 
L 12.5 54.6875 
L 29.59375 11.921875 
L 46.6875 54.6875 
L 56.203125 54.6875 
z
" id="DejaVuSans-121"/>
      </defs>
      <use xlink:href="#DejaVuSans-65"/>
      <use x="66.658203" xlink:href="#DejaVuSans-99"/>
      <use x="121.638672" xlink:href="#DejaVuSans-99"/>
      <use x="176.619141" xlink:href="#DejaVuSans-117"/>
      <use x="239.998047" xlink:href="#DejaVuSans-114"/>
      <use x="281.111328" xlink:href="#DejaVuSans-97"/>
      <use x="342.390625" xlink:href="#DejaVuSans-99"/>
      <use x="397.371094" xlink:href="#DejaVuSans-121"/>
     </g>
    </g>
   </g>
   <g id="line2d_13">
    <path clip-path="url(#p799c15efc0)" d="M 54.3348 35.951616 
L 55.3392 36.1908 
L 65.718 37.647648 
L 67.0572 37.8216 
L 68.3964 37.952064 
L 69.4008 38.169504 
L 71.7444 38.560896 
L 72.7488 38.778336 
L 75.4272 39.387168 
L 76.0968 39.626352 
L 77.7708 40.191696 
L 78.7752 40.387392 
L 79.4448 40.713552 
L 80.1144 40.909248 
L 80.784 41.170176 
L 83.7972 42.235632 
L 84.8016 42.60528 
L 85.806 43.192368 
L 87.8148 43.822944 
L 88.1496 43.931664 
L 89.154 44.56224 
L 89.8236 44.931888 
L 91.1628 45.86688 
L 95.5152 48.80232 
L 95.85 49.476384 
L 97.1892 50.150448 
L 98.1936 50.694048 
L 98.8632 51.128928 
L 101.2068 53.064144 
L 101.5416 53.520768 
L 101.8764 53.69472 
L 102.2112 53.999136 
L 102.546 54.107856 
L 103.8852 55.195056 
L 104.8896 55.999584 
L 105.894 57.434688 
L 106.2288 57.782592 
L 106.5636 58.456656 
L 107.2332 59.065488 
L 108.2376 60.196176 
L 108.5724 60.478848 
L 109.242 61.30512 
L 109.9116 62.022672 
L 110.2464 62.544528 
L 110.5812 62.805456 
L 112.2552 64.849392 
L 112.59 65.153808 
L 113.2596 66.284496 
L 114.264 67.589136 
L 115.2684 69.13296 
L 115.938 70.198416 
L 116.6076 71.611776 
L 116.9424 73.133856 
L 119.286 76.395456 
L 119.6208 77.265216 
L 120.2904 78.308928 
L 121.2948 79.765776 
L 121.9644 81.3096 
L 122.2992 82.28808 
L 123.6384 84.658176 
L 124.308 86.288976 
L 125.6472 88.767792 
L 125.982 89.311392 
L 126.9864 91.877184 
L 127.3212 93.638448 
L 127.9908 95.377968 
L 128.6604 97.008768 
L 129.6648 99.117936 
L 130.3344 101.161872 
L 130.6692 101.85768 
L 131.6736 104.553936 
L 132.3432 106.141248 
L 132.678 107.706816 
L 133.6824 109.924704 
L 134.352 111.338064 
L 134.6868 112.316544 
L 135.0216 113.686416 
L 135.3564 115.708608 
L 135.6912 116.31744 
L 137.0304 121.492512 
L 137.3652 123.101568 
L 137.7 127.276416 
L 138.0348 129.211632 
L 139.0392 132.321024 
L 139.374 133.364736 
L 140.0436 134.79984 
L 141.3828 138.322368 
L 142.0524 139.887936 
L 142.722 141.32304 
L 143.7264 144.58464 
L 144.396 145.824048 
L 145.0656 147.498336 
L 145.4004 148.346352 
L 145.7352 149.607504 
L 147.0744 152.499456 
L 147.4092 152.999568 
L 148.0788 154.91304 
L 148.4136 157.174416 
L 149.0832 159.305328 
L 150.0876 161.349264 
L 152.4312 167.328864 
L 153.1008 168.524784 
L 153.7704 170.699184 
L 154.44 171.960336 
L 155.7792 174.091248 
L 156.114 175.265424 
L 158.1228 179.679456 
L 158.4576 180.527472 
L 158.7924 184.332672 
L 159.1272 185.963472 
L 160.1316 188.3988 
L 160.4664 188.964144 
L 161.4708 191.421216 
L 163.8144 195.161184 
L 164.1492 196.44408 
L 164.8188 197.705232 
L 165.1536 198.096624 
L 167.832 202.488912 
L 169.1712 204.05448 
L 169.506 205.837488 
L 170.1756 207.033408 
L 170.5104 207.403056 
L 171.18 208.40328 
L 172.854 210.642912 
L 173.5236 211.360464 
L 174.1932 211.947552 
L 174.8628 213.121728 
L 175.1976 213.360912 
L 175.8672 214.339392 
L 178.8804 217.122624 
L 179.2152 217.405296 
L 179.55 218.101104 
L 179.8848 221.88456 
L 181.224 225.298368 
L 182.2284 226.4508 
L 182.5632 227.624976 
L 183.9024 229.103568 
L 184.2372 229.190544 
L 184.9068 229.842864 
L 185.2416 230.647392 
L 186.9156 232.060752 
L 187.2504 232.125984 
L 188.2548 232.995744 
L 188.5896 233.126208 
L 189.2592 233.62632 
L 189.9288 233.930736 
L 190.5984 235.235376 
L 191.268 235.80072 
L 194.9508 237.64896 
L 195.2856 237.692448 
L 195.9552 238.214304 
L 197.6292 238.540464 
L 198.2988 238.779648 
L 198.9684 239.018832 
L 199.9728 239.17104 
L 200.3076 239.192784 
L 200.6424 239.997312 
L 201.6468 240.845328 
L 202.6512 241.171488 
L 202.986 241.23672 
L 203.6556 241.519392 
L 205.6644 241.802064 
L 206.6688 242.171712 
L 208.008 242.32392 
L 209.0124 242.497872 
L 211.0212 242.715312 
L 211.356 242.997984 
L 212.0256 243.171936 
L 213.3648 243.367632 
L 216.0432 243.606816 
L 217.3824 243.693792 
L 218.7216 243.759024 
L 221.4 243.911232 
L 221.7348 246.477024 
L 222.4044 247.151088 
L 222.7392 247.238064 
L 223.074 247.585968 
L 224.0784 247.716432 
L 224.4132 248.020848 
L 225.0828 248.238288 
L 225.4176 248.281776 
L 225.7524 248.477472 
L 226.7568 248.52096 
L 227.0916 248.694912 
L 229.4352 248.912352 
L 231.7788 248.95584 
L 233.4528 249.282 
L 235.1268 249.368976 
L 236.1312 249.412464 
L 237.1356 249.434208 
L 237.8052 249.586416 
L 238.8096 249.629904 
L 242.1576 249.673392 
L 242.8272 249.890832 
L 249.5232 250.216992 
L 252.8712 250.282224 
L 253.8756 250.3692 
L 263.25 250.456176 
L 263.5848 250.651872 
L 267.9372 250.825824 
L 305.1 250.934544 
L 308.7828 251.065008 
L 336.2364 251.173728 
L 338.2452 251.195472 
L 388.8 251.23896 
L 388.8 251.23896 
" style="fill:none;stroke:#1f77b4;stroke-linecap:square;stroke-width:1.5;"/>
   </g>
   <g id="line2d_14">
    <path clip-path="url(#p799c15efc0)" d="M 54.3348 35.97336 
L 55.3392 36.08208 
L 56.0088 36.234288 
L 58.6872 36.690912 
L 59.6916 37.038816 
L 60.696 37.191024 
L 61.7004 37.343232 
L 62.37 37.451952 
L 65.718 37.995552 
L 67.0572 38.278224 
L 67.7268 38.299968 
L 68.3964 38.47392 
L 71.0748 38.995776 
L 71.4096 39.191472 
L 72.414 39.34368 
L 78.4404 41.387616 
L 82.1232 43.36632 
L 82.458 43.627248 
L 83.4624 44.040384 
L 85.1364 44.953632 
L 85.806 45.497232 
L 86.4756 45.845136 
L 87.1452 46.30176 
L 87.8148 46.758384 
L 88.1496 46.95408 
L 92.502 51.128928 
L 92.8368 51.324624 
L 93.5064 52.042176 
L 94.5108 53.064144 
L 95.1804 53.825184 
L 95.5152 54.607968 
L 95.85 55.695168 
L 97.524 57.478176 
L 97.8588 57.847824 
L 101.5416 64.479744 
L 104.8896 71.916192 
L 105.894 74.829888 
L 106.2288 75.808368 
L 106.5636 77.199984 
L 106.8984 77.874048 
L 107.568 79.744032 
L 108.5724 82.135872 
L 108.9072 82.679472 
L 110.2464 86.571648 
L 110.916 88.833024 
L 111.2508 89.550576 
L 112.2552 92.355552 
L 112.59 93.094848 
L 113.2596 94.964832 
L 115.938 102.662208 
L 116.6076 104.836608 
L 116.9424 107.924256 
L 117.2772 109.35936 
L 117.9468 111.011904 
L 118.2816 112.490496 
L 120.2904 117.578592 
L 121.6296 120.753216 
L 121.9644 121.840416 
L 122.2992 123.362496 
L 122.634 123.971328 
L 123.6384 126.64584 
L 124.6428 129.559536 
L 125.3124 131.233824 
L 125.982 132.451488 
L 126.9864 135.256464 
L 127.656 138.126672 
L 128.3256 139.757472 
L 129.33 142.127568 
L 129.6648 142.7364 
L 130.3344 144.932544 
L 130.6692 145.541376 
L 131.3388 147.541824 
L 132.0084 148.716 
L 132.3432 149.607504 
L 132.678 150.912144 
L 135.0216 156.304656 
L 135.3564 157.63104 
L 137.0304 161.54496 
L 137.3652 162.762624 
L 138.0348 168.8292 
L 139.374 172.830096 
L 140.3784 174.852288 
L 141.048 176.76576 
L 141.3828 177.265872 
L 142.0524 178.592256 
L 142.722 179.657712 
L 143.0568 180.440496 
L 143.3916 181.54944 
L 145.0656 184.876272 
L 145.4004 185.289408 
L 146.07 186.594048 
L 147.0744 188.159616 
L 147.744 188.920656 
L 148.0788 189.59472 
L 148.4136 191.355984 
L 148.7484 192.290976 
L 150.4224 195.03072 
L 150.7572 195.4656 
L 151.092 196.204896 
L 152.766 198.379296 
L 153.1008 198.705456 
L 153.4356 199.314288 
L 153.7704 200.271024 
L 155.1096 201.967056 
L 155.7792 202.554144 
L 156.4488 203.641344 
L 157.4532 204.641568 
L 157.788 204.880752 
L 158.4576 206.01144 
L 158.7924 208.40328 
L 159.7968 210.316752 
L 160.4664 211.12128 
L 161.136 211.686624 
L 161.4708 212.382432 
L 162.81 213.534864 
L 163.8144 214.27416 
L 164.1492 214.948224 
L 165.8232 216.55728 
L 166.4928 216.839952 
L 168.5016 218.427264 
L 168.8364 218.601216 
L 169.1712 218.927376 
L 169.506 220.14504 
L 170.1756 220.819104 
L 170.8452 221.319216 
L 173.8584 223.232688 
L 174.1932 223.276176 
L 174.8628 223.906752 
L 175.8672 224.211168 
L 177.2064 224.754768 
L 179.2152 225.537552 
L 179.55 225.820224 
L 179.8848 227.86416 
L 180.5544 228.668688 
L 180.8892 228.712176 
L 181.224 229.103568 
L 181.8936 229.407984 
L 182.2284 229.451472 
L 183.2328 229.886352 
L 183.9024 230.03856 
L 184.572 230.342976 
L 184.9068 230.36472 
L 185.2416 230.734368 
L 185.9112 231.060528 
L 186.246 231.104016 
L 186.5808 231.386688 
L 187.5852 231.538896 
L 189.9288 231.8868 
L 190.2636 232.299936 
L 191.6028 232.713072 
L 193.9464 233.08272 
L 194.2812 233.213184 
L 194.9508 233.321904 
L 195.6204 233.474112 
L 197.6292 233.756784 
L 198.6336 233.84376 
L 200.3076 234.017712 
L 200.6424 234.430848 
L 201.312 234.626544 
L 203.3208 234.778752 
L 204.66 234.865728 
L 205.3296 234.952704 
L 211.356 235.431072 
L 212.6952 235.670256 
L 215.0388 235.757232 
L 217.0476 235.931184 
L 221.0652 236.039904 
L 221.4 236.105136 
L 221.7348 237.735936 
L 222.0696 237.801168 
L 222.4044 237.996864 
L 227.4264 238.540464 
L 236.8008 239.040576 
L 240.8184 239.149296 
L 242.4924 239.344992 
L 243.162 239.410224 
L 249.5232 239.518944 
L 251.532 239.540688 
L 254.88 239.649408 
L 258.228 239.758128 
L 263.25 239.866848 
L 263.9196 239.975568 
L 270.9504 240.084288 
L 272.2896 240.14952 
L 278.9856 240.25824 
L 280.9944 240.279984 
L 288.36 240.388704 
L 289.6992 240.453936 
L 295.056 240.540912 
L 296.3952 240.606144 
L 298.7388 240.649632 
L 304.0956 240.758352 
L 308.448 240.932304 
L 310.4568 241.01928 
L 311.796 241.084512 
L 313.8048 241.106256 
L 317.4876 241.214976 
L 318.492 241.258464 
L 322.1748 241.367184 
L 325.188 241.45416 
L 327.8664 241.56288 
L 329.2056 241.649856 
L 334.5624 241.758576 
L 337.5756 241.845552 
L 340.9236 241.954272 
L 344.2716 242.062992 
L 345.9456 242.149968 
L 347.6196 242.258688 
L 350.298 242.345664 
L 352.3068 242.497872 
L 356.3244 242.606592 
L 360.0072 242.737056 
L 364.0248 242.845776 
L 370.0512 243.128448 
L 373.0644 243.237168 
L 373.734 243.324144 
L 384.4476 243.911232 
L 388.8 243.998208 
L 388.8 243.998208 
" style="fill:none;stroke:#ff7f0e;stroke-linecap:square;stroke-width:1.5;"/>
   </g>
   <g id="line2d_15">
    <path clip-path="url(#p799c15efc0)" d="M 54.3348 37.06056 
L 60.0264 37.886832 
L 62.37 38.408688 
L 63.0396 38.539152 
L 65.718 39.300192 
L 66.3876 39.387168 
L 67.0572 39.582864 
L 67.7268 39.648096 
L 68.7312 40.082976 
L 69.7356 40.387392 
L 70.4052 40.670064 
L 71.0748 40.909248 
L 73.0836 41.539824 
L 73.4184 41.800752 
L 75.762 42.49656 
L 77.436 43.301088 
L 78.4404 43.670736 
L 78.7752 44.01864 
L 80.4492 44.605728 
L 81.1188 45.127584 
L 81.7884 45.453744 
L 82.458 46.127808 
L 82.7928 46.214784 
L 84.132 47.019312 
L 85.4712 47.649888 
L 87.1452 48.737088 
L 88.1496 49.693824 
L 88.4844 49.933008 
L 89.154 50.694048 
L 89.8236 51.324624 
L 90.828 52.4988 
L 91.8324 53.346816 
L 92.502 53.955648 
L 92.8368 54.412272 
L 93.1716 54.6732 
L 93.8412 55.521216 
L 94.176 55.7604 
L 95.5152 57.3912 
L 95.85 58.04352 
L 96.5196 58.869792 
L 98.5284 61.696512 
L 99.198 62.696736 
L 99.5328 63.066384 
L 100.2024 64.262304 
L 100.872 65.175552 
L 101.5416 66.30624 
L 101.8764 66.545424 
L 102.546 67.458672 
L 102.8808 68.437152 
L 103.5504 69.45912 
L 104.22 70.742016 
L 104.5548 71.285616 
L 105.2244 72.916416 
L 105.5592 73.546992 
L 106.5636 76.09104 
L 108.5724 80.287632 
L 109.5768 82.635984 
L 110.2464 84.832128 
L 111.9204 89.398368 
L 112.2552 90.0072 
L 112.9248 91.920672 
L 114.264 95.11704 
L 115.2684 97.378416 
L 116.6076 101.183616 
L 117.2772 103.662432 
L 119.286 110.207376 
L 121.2948 116.491392 
L 122.2992 120.01392 
L 123.6384 124.710624 
L 123.9732 126.64584 
L 125.3124 130.864176 
L 126.9864 137.452608 
L 129.6648 146.606832 
L 133.0128 160.89264 
L 136.026 172.786608 
L 137.3652 178.418304 
L 137.7 180.57096 
L 139.0392 185.398128 
L 139.7088 188.159616 
L 141.048 192.595392 
L 141.7176 195.204672 
L 143.3916 200.749392 
L 146.07 209.947104 
L 147.0744 212.3172 
L 149.0832 217.86192 
L 149.7528 219.49272 
L 150.4224 220.884336 
L 151.092 222.384672 
L 151.4268 223.058736 
L 151.7616 224.145936 
L 152.4312 225.25488 
L 155.4444 230.930064 
L 156.114 231.843312 
L 157.1184 233.278416 
L 160.1316 236.648736 
L 162.1404 238.73616 
L 162.4752 238.910112 
L 168.1668 244.041696 
L 169.1712 244.585296 
L 169.8408 245.15064 
L 171.18 245.737728 
L 171.5148 245.998656 
L 171.8496 246.107376 
L 173.1888 246.933648 
L 175.8672 248.260032 
L 176.5368 248.564448 
L 176.8716 248.607936 
L 177.2064 248.803632 
L 178.2108 249.086304 
L 180.2196 249.912576 
L 182.2284 250.412688 
L 183.5676 250.651872 
L 190.5984 251.4564 
L 192.942 251.56512 
L 200.6424 251.956512 
L 388.8 252 
L 388.8 252 
" style="fill:none;stroke:#2ca02c;stroke-linecap:square;stroke-width:1.5;"/>
   </g>
   <g id="patch_3">
    <path d="M 54 252 
L 54 34.56 
" style="fill:none;stroke:#000000;stroke-linecap:square;stroke-linejoin:miter;stroke-width:0.8;"/>
   </g>
   <g id="patch_4">
    <path d="M 388.8 252 
L 388.8 34.56 
" style="fill:none;stroke:#000000;stroke-linecap:square;stroke-linejoin:miter;stroke-width:0.8;"/>
   </g>
   <g id="patch_5">
    <path d="M 54 252 
L 388.8 252 
" style="fill:none;stroke:#000000;stroke-linecap:square;stroke-linejoin:miter;stroke-width:0.8;"/>
   </g>
   <g id="patch_6">
    <path d="M 54 34.56 
L 388.8 34.56 
" style="fill:none;stroke:#000000;stroke-linecap:square;stroke-linejoin:miter;stroke-width:0.8;"/>
   </g>
   <g id="text_15">
    <!-- Linf BIM -->
    <g transform="translate(197.505 28.56)scale(0.12 -0.12)">
     <defs>
      <path d="M 9.8125 72.90625 
L 19.671875 72.90625 
L 19.671875 8.296875 
L 55.171875 8.296875 
L 55.171875 0 
L 9.8125 0 
z
" id="DejaVuSans-76"/>
      <path id="DejaVuSans-32"/>
      <path d="M 19.671875 34.8125 
L 19.671875 8.109375 
L 35.5 8.109375 
Q 43.453125 8.109375 47.28125 11.40625 
Q 51.125 14.703125 51.125 21.484375 
Q 51.125 28.328125 47.28125 31.5625 
Q 43.453125 34.8125 35.5 34.8125 
z
M 19.671875 64.796875 
L 19.671875 42.828125 
L 34.28125 42.828125 
Q 41.5 42.828125 45.03125 45.53125 
Q 48.578125 48.25 48.578125 53.8125 
Q 48.578125 59.328125 45.03125 62.0625 
Q 41.5 64.796875 34.28125 64.796875 
z
M 9.8125 72.90625 
L 35.015625 72.90625 
Q 46.296875 72.90625 52.390625 68.21875 
Q 58.5 63.53125 58.5 54.890625 
Q 58.5 48.1875 55.375 44.234375 
Q 52.25 40.28125 46.1875 39.3125 
Q 53.46875 37.75 57.5 32.78125 
Q 61.53125 27.828125 61.53125 20.40625 
Q 61.53125 10.640625 54.890625 5.3125 
Q 48.25 0 35.984375 0 
L 9.8125 0 
z
" id="DejaVuSans-66"/>
      <path d="M 9.8125 72.90625 
L 19.671875 72.90625 
L 19.671875 0 
L 9.8125 0 
z
" id="DejaVuSans-73"/>
      <path d="M 9.8125 72.90625 
L 24.515625 72.90625 
L 43.109375 23.296875 
L 61.8125 72.90625 
L 76.515625 72.90625 
L 76.515625 0 
L 66.890625 0 
L 66.890625 64.015625 
L 48.09375 14.015625 
L 38.1875 14.015625 
L 19.390625 64.015625 
L 19.390625 0 
L 9.8125 0 
z
" id="DejaVuSans-77"/>
     </defs>
     <use xlink:href="#DejaVuSans-76"/>
     <use x="55.712891" xlink:href="#DejaVuSans-105"/>
     <use x="83.496094" xlink:href="#DejaVuSans-110"/>
     <use x="146.875" xlink:href="#DejaVuSans-102"/>
     <use x="182.080078" xlink:href="#DejaVuSans-32"/>
     <use x="213.867188" xlink:href="#DejaVuSans-66"/>
     <use x="282.470703" xlink:href="#DejaVuSans-73"/>
     <use x="311.962891" xlink:href="#DejaVuSans-77"/>
    </g>
   </g>
   <g id="legend_1">
    <g id="patch_7">
     <path d="M 276.603125 86.594375 
L 381.8 86.594375 
Q 383.8 86.594375 383.8 84.594375 
L 383.8 41.56 
Q 383.8 39.56 381.8 39.56 
L 276.603125 39.56 
Q 274.603125 39.56 274.603125 41.56 
L 274.603125 84.594375 
Q 274.603125 86.594375 276.603125 86.594375 
z
" style="fill:#ffffff;opacity:0.8;stroke:#cccccc;stroke-linejoin:miter;"/>
    </g>
    <g id="line2d_16">
     <path d="M 278.603125 47.658438 
L 298.603125 47.658438 
" style="fill:none;stroke:#1f77b4;stroke-linecap:square;stroke-width:1.5;"/>
    </g>
    <g id="line2d_17"/>
    <g id="text_16">
     <!-- c2  0.13/1% -->
     <g transform="translate(306.603125 51.158438)scale(0.1 -0.1)">
      <defs>
       <path d="M 25.390625 72.90625 
L 33.6875 72.90625 
L 8.296875 -9.28125 
L 0 -9.28125 
z
" id="DejaVuSans-47"/>
       <path d="M 72.703125 32.078125 
Q 68.453125 32.078125 66.03125 28.46875 
Q 63.625 24.859375 63.625 18.40625 
Q 63.625 12.0625 66.03125 8.421875 
Q 68.453125 4.78125 72.703125 4.78125 
Q 76.859375 4.78125 79.265625 8.421875 
Q 81.6875 12.0625 81.6875 18.40625 
Q 81.6875 24.8125 79.265625 28.4375 
Q 76.859375 32.078125 72.703125 32.078125 
z
M 72.703125 38.28125 
Q 80.421875 38.28125 84.953125 32.90625 
Q 89.5 27.546875 89.5 18.40625 
Q 89.5 9.28125 84.9375 3.921875 
Q 80.375 -1.421875 72.703125 -1.421875 
Q 64.890625 -1.421875 60.34375 3.921875 
Q 55.8125 9.28125 55.8125 18.40625 
Q 55.8125 27.59375 60.375 32.9375 
Q 64.9375 38.28125 72.703125 38.28125 
z
M 22.3125 68.015625 
Q 18.109375 68.015625 15.6875 64.375 
Q 13.28125 60.75 13.28125 54.390625 
Q 13.28125 47.953125 15.671875 44.328125 
Q 18.0625 40.71875 22.3125 40.71875 
Q 26.5625 40.71875 28.96875 44.328125 
Q 31.390625 47.953125 31.390625 54.390625 
Q 31.390625 60.6875 28.953125 64.34375 
Q 26.515625 68.015625 22.3125 68.015625 
z
M 66.40625 74.21875 
L 74.21875 74.21875 
L 28.609375 -1.421875 
L 20.796875 -1.421875 
z
M 22.3125 74.21875 
Q 30.03125 74.21875 34.609375 68.875 
Q 39.203125 63.53125 39.203125 54.390625 
Q 39.203125 45.171875 34.640625 39.84375 
Q 30.078125 34.515625 22.3125 34.515625 
Q 14.546875 34.515625 10.03125 39.859375 
Q 5.515625 45.21875 5.515625 54.390625 
Q 5.515625 63.484375 10.046875 68.84375 
Q 14.59375 74.21875 22.3125 74.21875 
z
" id="DejaVuSans-37"/>
      </defs>
      <use xlink:href="#DejaVuSans-99"/>
      <use x="54.980469" xlink:href="#DejaVuSans-50"/>
      <use x="118.603516" xlink:href="#DejaVuSans-32"/>
      <use x="150.390625" xlink:href="#DejaVuSans-32"/>
      <use x="182.177734" xlink:href="#DejaVuSans-48"/>
      <use x="245.800781" xlink:href="#DejaVuSans-46"/>
      <use x="277.587891" xlink:href="#DejaVuSans-49"/>
      <use x="341.210938" xlink:href="#DejaVuSans-51"/>
      <use x="404.833984" xlink:href="#DejaVuSans-47"/>
      <use x="438.525391" xlink:href="#DejaVuSans-49"/>
      <use x="502.148438" xlink:href="#DejaVuSans-37"/>
     </g>
    </g>
    <g id="line2d_18">
     <path d="M 278.603125 62.336563 
L 298.603125 62.336563 
" style="fill:none;stroke:#ff7f0e;stroke-linecap:square;stroke-width:1.5;"/>
    </g>
    <g id="line2d_19"/>
    <g id="text_17">
     <!-- c3  0.11/6% -->
     <g transform="translate(306.603125 65.836563)scale(0.1 -0.1)">
      <use xlink:href="#DejaVuSans-99"/>
      <use x="54.980469" xlink:href="#DejaVuSans-51"/>
      <use x="118.603516" xlink:href="#DejaVuSans-32"/>
      <use x="150.390625" xlink:href="#DejaVuSans-32"/>
      <use x="182.177734" xlink:href="#DejaVuSans-48"/>
      <use x="245.800781" xlink:href="#DejaVuSans-46"/>
      <use x="277.587891" xlink:href="#DejaVuSans-49"/>
      <use x="341.210938" xlink:href="#DejaVuSans-49"/>
      <use x="404.833984" xlink:href="#DejaVuSans-47"/>
      <use x="438.525391" xlink:href="#DejaVuSans-54"/>
      <use x="502.148438" xlink:href="#DejaVuSans-37"/>
     </g>
    </g>
    <g id="line2d_20">
     <path d="M 278.603125 77.014688 
L 298.603125 77.014688 
" style="fill:none;stroke:#2ca02c;stroke-linecap:square;stroke-width:1.5;"/>
    </g>
    <g id="line2d_21"/>
    <g id="text_18">
     <!-- lenet  0.11/0% -->
     <g transform="translate(306.603125 80.514688)scale(0.1 -0.1)">
      <use xlink:href="#DejaVuSans-108"/>
      <use x="27.783203" xlink:href="#DejaVuSans-101"/>
      <use x="89.306641" xlink:href="#DejaVuSans-110"/>
      <use x="152.685547" xlink:href="#DejaVuSans-101"/>
      <use x="214.208984" xlink:href="#DejaVuSans-116"/>
      <use x="253.417969" xlink:href="#DejaVuSans-32"/>
      <use x="285.205078" xlink:href="#DejaVuSans-32"/>
      <use x="316.992188" xlink:href="#DejaVuSans-48"/>
      <use x="380.615234" xlink:href="#DejaVuSans-46"/>
      <use x="412.402344" xlink:href="#DejaVuSans-49"/>
      <use x="476.025391" xlink:href="#DejaVuSans-49"/>
      <use x="539.648438" xlink:href="#DejaVuSans-47"/>
      <use x="573.339844" xlink:href="#DejaVuSans-48"/>
      <use x="636.962891" xlink:href="#DejaVuSans-37"/>
     </g>
    </g>
   </g>
  </g>
 </g>
 <defs>
  <clipPath id="p799c15efc0">
   <rect height="217.44" width="334.8" x="54" y="34.56"/>
  </clipPath>
 </defs>
</svg>
